<svg xmlns="http://www.w3.org/2000/svg" width="237" height="19" fill="none" viewBox="0 0 237 19"><path fill="#fdd300" fill-opacity=".6" d="M18.333 15.901c.15-.02.734.03.99.022-.29.214-1.52.051-.99-.022M44.708.464l-.65.145c.615.047 1.434.027 2 .091.094.011-.152.159.068.171s.184-.199.501-.213c.363-.016 1.992.176 2.557.19 2.116.05 4.231.003 6.306.155-2.154.087.008.315.61.266.133-.012.123-.401 2.27-.242 1.355.098.088.626 2.366.401-1.737-.433-.02-.362 1.35-.347.234.004 2.148.1 2.986.095.29-.002.735-.2 1.114-.2.26 0 .474.116.856.115.793 0 1.573 0 2.378.006 1.144.01 2.183.045 3.251.096-1.118.495.86.248.935.276.439.156-1.566.139-.778.25l3.316.05c-.9-.091 1.212-.406 1.587-.223-.154-.467 4.972.545 5.76.405.163-.03-.895-.283 1.575-.122.268.018.163.156.305.146.09-.006.598-.441 1.142-.184.198.094-1.081.363 1.708.298-1.098-.471 3.867-.181 4.778-.062l-.546-.19c.902.176 1.065.023 1.27.034l.145.008c.845.052 1.943.21 2.706.216.946.01.96-.273 2.062-.122q-.39-.109-.781-.216 1.148.062 2.292.14c-1.787.291.381.034.523.036.227-.001-.106.134.273.135.039 0-.009-.148.573-.131 1.215.038 1.012.21 1.519.24.045.002-.104-.14.77-.109 2.778.108-.018.096-.129.109-.144.015.778.615-1.574.27.793.111.852.357.942.369.082.009 1.447.072 1.523.071.677-.03.101-.239.233-.258.106-.017 1.73.328 2.151-.13.744.522-.482.37-1.802.337-.199.078 1.237.284 1.31.291 1.848.157.856-.303 1.282-.506.231-.105.948.216.29-.18 1.679.116.644.218.75.256.157.057.749.016.823.036.106.029-.279.109.14.19.068.012.764-.123-.099-.3 1.165.139 1.087-.039 1.448.341.874-.567.543.44.857.508.837.18.635-.353.684-.373.324-.129 2.62.284 3.196.271-.255.343-1.833-.187-2.199-.152-1.215.114 1.669.356.755.727.371-.09.758-.177 1.132-.265.631.365-.322.394 1.479.476.32-.224-1.27-.094-.937-.262.206-.097 1.235-.014 1.268-.073.026-.073-.92-.084-.76-.183.346-.215 3.757.388 1.128.245.723.072 1.049.607 1.694.52.418-.056-1.804-.985 1.626-.489.04.24-1.373-.078-1.422-.065-.057.02.152.574.195.605.055.037.549.073 1.214.122.945.07 2.321.092 2.743.275-.27-.306 2.436.017 2.772-.082.081-.024-.221-.215-.134-.234.54-.11 2.048.231 2.762.24.795.012.699-.15.743-.15.349.01.07.12.284.12.322-.001 2.578.025 2.69.004.034-.007-.338-.193.16-.227.084-.005.029.212 1.491.125 1.763-.103-1.224-.279-.49-.504 1.129.333 1.101.01 1.403.037.088.008.64.202 1.324.264q.206.02.427.018l-.428.028-1.419.09c.357.031.911.027 1.418.03.337.003.656.01.859.034.239.029.037.253.562.252.114-.002.556-.548-.817-.315-.106-.197.542-.063.848-.115.046-.008.231-.335.614-.127.091.051-.925.999 1.686.333.083-.022-.206-.145-.124-.169.054-.016.725.04.795.023.075-.017-.243-.152-.154-.177.458-.128 1.054.399.111.349l.946.203c-.332-.396.496-.105.936-.112 2.802-.047.929-.322 1.412-.449.78-.203.176.461 1.331.272.106-.017-1.28-.317 1.432-.127l-1.202.02c.226.382 1.447-.01 1.54-.014 1.066-.04.345.088 1.929-.09.142-.015.449.082.751.038 1.255-.178-1.651-.134-1.729-.289-.037-.075 3.088-.022 3.194.015.453.163-1.417.054-1.062.254.13.072 4.583-.023 5.474.062 1.03.1 1.486.618 1.5.04.286.57.544.186.675.191 1.591.068 1.597.074 2.961.032.301-.01.55.165.659.137.063-.017-.051-.202.253-.256.425-.074 2.944.134 3.134.236.19.103-1.066.037-.841.206.316.008.652.009.96.007l-.176.001c.559-.017 1.11-.043 1.678-.048.37-.003.183.12.343.118.067 0 1.336-.146 1.28-.188-.129-.086-4.053.08-3.024-.15.199-.044.909.209.789-.117 3.503-.011 7.012-.134 10.6-.307-2.042.387-4.348.31-6.462.43-.29.018-1.271.027-1.145.188 1.8-.029 4.039-.24 5.799-.247.056 0-.139.162.071.172.395.02 1.663-.307 1.881-.26.038.012-.677.258-.447.367.588.28.693-.437 1.179-.463.383-.02 2.966.137 3.597-.128.664-.28-1.906.006-1.729-.196 1.728-.317 3.51-.247 5.166-.394.029-.003-.236-.131.134-.18.646-.084.821.114 1.142.124.341.01 1.542-.108 1.7-.043.021.009-.204.234-.239.242-.521.124-.724-.131-.772-.131-.179.003-.34.118-.506.124-.271.01-.427-.075-.778-.057-.241.012.005.178-.228.187-.091.002-1.049-.347-1.101.086-.021.135 7.593-.248 8.358-.404-.669-.005-1.309-.012-1.976-.016 1.338.03 2.903-.42 3.057.076 1.031-.062 2.057-.122 3.103-.183.04-.005.159-.006.199-.01 3.956-.103 7.85-.14 11.741-.177.878.028.402.362 1.844.242l-1.125-.291c.745.06 4.017.146 4.548.07.068-.01.155-.306.974-.346.724-.034.843.184 1.233.22.327.029.688-.036.785-.025.074.008.106.143.285.163.564.062.103-.31.667.117l-.406.057c.678.05 1.609.231.611.348-.171.02-.026-.113-.154-.11-5.02.113-1.006.297.749.06.455.186 2.981.017 3.066.053.118.053-.31.217.258.338.121.027 3.495-.158 2.286.127-.251.059-1.871.04-2.262.055.931.39 3.067-.246 3.31-.237.98.04-1.869.4.335.395 1.69-.006.097-.24.744-.373.365-.074 2.285.176 2.221-.213.655-.06.277.157.358.17.08.01 1.366-.143 1.787-.074.051.009-.103.216-.05.231.104.026 1.345-.053 1.395-.073.031-.013-.271-.18-.15-.228.141-.054 1.337-.051 1.401-.105.09-.08-1.383.02-1.144-.187.682.028 1.786-.142 2.228-.318-.109.05-.767.08-.996.07.098-.293 1.511-.34 1.036-.092.303-.135.091-.193.26-.316.044-.031.481-.053.563-.107.01-.01-.444-.103-.356-.166.16-.112 1.481-.138 1.591-.115.308.068-.767.206-.852.332-.012.02.914.224.929.245.063.226-.965.1-.84.301l.763.101c-.967.247-2.774.204-3.233.456 1.445-.12 2.957-.17 2.975.363.008.224-.612.38-.585.435.099.2.958-.054.991-.045q.04.017.04.035c.004.12-1.229.253-1.289.31-.1.1.465.478.468.566-.019.019-.897.146-.593.289.306.144 1.078.118 1.106.133.151.088-1.196.223-1.235.28-.02.028.712.172.735.22.02.048-.527.176-.739.34-.159.12.318.192.235.213-.059.015-1.338.059-1.399.08-.093.034.211.161.169.197-.06.052-.475.017-.42.066.043.037 1.66.455 1.655.582-.01.217-1.727-.22-.115.578.011.005.394-.07.405-.065.243.148-.981.436.525.337-2.797.378-.337.339-.739.719-.155.146-1.243.243-1.247.264.112.174.454.024.575.107.067.046-.901.269-.677.383.115.06 1.15 0 1.193.01.415.1-.084.244.009.323.063.053.688.034.704.043.028.02-.813.274-.988.359-.132.065.377.14.284.17-.561.178-1.778-.18-.599.34.072.032.511.002.524.009.277.149-.531.192-.671.327-.24.234.918.067-.043.26.73.12 1.135.1 1.982.026-2.346.203-3.157.811-.545.702-.831.022-.728.346-.975.36-.155.01-1.371-.274-.793.438.073.089.801-.053.578.142-1.76.014-.033.12-.03.145-.007.435-4.319.222-5.054.29-.854.08-1.606.44-1.792.446-.612.016-.109-.17-.247-.23-.139-.058-1.872.316-1.959.3-.34-.065-.002-.278-.037-.287-.423-.115-2.75.098-3.407.064.022.132 1.338.114.521.345-.95.269-1.014-.315-1.04-.34-4.371.097-8.73.17-13.073.252.063.31 2.895.026 2.964.066.38.236-4.417.314-5.004.216l1.343.177c-.76.371-2.452-.062-3.546.118-.356.059.33.183.315.192-.392.147-1.041.054-.564-.143-.969.2-.833 0-1.578.001-.038 0 .282.138-.302.21-.281.035-1.751.072-1.941.204-.08.055.677.595.759.111 1.604.196.505-.232 1.13-.236.098 0-.124.274 1.446.113-.285.49-2.107.17-2.407.236-.634.136 1.995.323 2.472-.063-.217.383.186.047.778.05.64.004.364.122.712.116.957-.016.55-.275 1.345-.05-.784-.73 1.351-.123 1.966.062-.999.055-2.009.112-3.004.169l.173.114-.792-.001.124-.115c-1.354.27-1.684.005-1.798.004-1.424 0-3.064.042-4.489.085-.204.006-.074.224-1.425.121l.214-.01-.197-.01c-.511-.027-.047-.248-.616-.182-.673.562-.686.151-.901.165-.614.041-.968.194-1.024.199-.757.072-1.858.127-2.673.203-.016.004.422.131-.115.122-.198-.003-1.922-.558-3.388-.23l1.162.053c-.461-.031-3.61.372-2.824.495.487.075 1.617-.445 1.768-.035-1.054-.05-6.883.573-7.35.508-.064-.009.313-.173.225-.184-.067-.008-1.409.122-1.594.083-.108-.023.481-.15.429-.195-.04-.031-1.736.032-1.819.208.411-.097 1.576-.121.978.066-.077.023-.491-.057-.586-.028-.87.271 1.769.033 2.179.003-1.644.34-4.229.267-6.176.528-.795-.093 1.154-.29.256-.351-1.864-.13-.481.226-.536.247-.452.173-2.065-.505-2.036.077-.679-.053-.464-.137-1.415-.014l.383.103c-1.046.394-3.334-.375-3.165-.448.445-.188 1.627.036 1.726.025.148-.017.53-.622 2.167-.176.639-.428-2.568-.143-1.118-.484-.984.103-5.067-.04-5.65.136-.05.017.112.226-.18.271-.031-.001-.123.004-.153.001-.106.015-.275.004-.551-.054-.472-.099.663-.096.447-.188-.66-.275-9.583-.181-11.268-.187-.11-.001-.068-.123-.176-.123-.334 0-1.541.17-2.134.107 1.227.24-1.161.232-1.766.2-.921-.048-.862-.263-1.259-.314-1.532-.194-3.911.293-5.098-.2.059.477-2.057-.256-3.023-.27-.755-.012-1.855.292-.838.495-.999-.027-2.037.01-3.016.037-.305.008-.593.016-.879.02-.203.004.076-.135-.268-.125-.03.002-.076.14-.366.152-2.433.106-1.245-.18-1.702-.269a5 5 0 0 0-.579-.082c1.415-.023 3.054-.065 3.485-.064-.367-.31-3.139.037-3.947-.046-.028-.003.069-.17.041-.172h-.002c-.306-.014-2.249.045-1.849.246.105.054 1.005.054 2.061.04-.285.036-.073.225-.123.233-.613.09-2.116-.095-2.655-.12-.124-.006-.115.114-.136.115-.488-.029-.288-.372-.791-.019-.883-.43 1.66-.06 1.482-.34-.112-.208-5.849-.122-5.895.19-.019-.037-.1-.084-.269-.14-.366-.119-2.073-.16-2.383-.124-.051.01-.052.338-.116.337-.109-.002-1.163-.195-2.08-.308-.365-.045-.699-.064-.922-.027l.902.207.273.057-.276-.028c-2.053-.212-1.703-.08-.971.094.038.005.074.022.111.027.266.062.571.127.827.183.35.072.613.123.62.138.009.025-.248.023-.634-.004-1.055-.07-3.161-.32-2.566-.488.111-.03 1.916.3 1.034-.013-.156-.055-1.325-.118-1.386-.148-.394-.203 2.182-.14 1.894-.397-.649.146-1.425-.05-2.141-.071-.319-.009-.421.146-.461.144-.603-.02-.249-.156-.448-.173-.102-.008-1.317.233-1.042-.247-3.891-.03-1.096.257 1.264.48-.756.104-2.23-.14-2.881-.164-.239-.01-.117.173-.518.166-.825-.018-4.697-.594-5.691-.722.622-.004.46-.203-.019-.233s-.1.25-.195.268c-.098.017-2.323-.286-2.689-.278 1.676.042 1.318-.171-.103-.3.212-.037.416-.075.627-.11-.84.005-2.561-.393-3.046-.337-.076.01.184.18.141.184-.423.038-1.837-.195-1.906-.144-.058.041.542.2.314.253-.048.01-.623-.227-1.201-.2-.214.01-.092.161-.146.167-.45.053-.177-.184-.998-.173-.603.01-1.056.236-1.887.138 2.721.377.432.182-.712.258-.183.012-.033.272-1.095.14l-.034-.005.034-.006c1.41-.273.815-.307.003-.294-.529.008-1.123.032-1.373.027-.036-.002-.046-.177-.361-.183-.026 0 .01.118-.282.123-2.77.047-.999-.062-1.524-.185-.225-.053-1.578.092-1.936.09-.084-.002-.044-.123-.368-.124-.57-.002-1.088.118-1.463.121-.044 0-.04-.193-.759-.145-.201.013-.426.077-.144.139.946.203 2.745-.08 3.815.12.974.182-2.11.146-2.267.143-.058 0 .548-.085-.066-.116-.524-.026-1.478.289-2.258.199-.06-.007-.67-.304-.643-.32.03-.011.977-.052.843-.137-.018-.01-.62-.02-.698-.084-.096-.076-.342-.81-.47-.832-.33-.053-.119.118-.33.102-.466-.035-2.045-.29-2.109-.04l.789.065c-1.464-.011-.845.112-1.053.154-.226.046-.15-.175-.65-.209-.104-.007-2.176-.018-2.135.076 1.14-.116.716.146.767.153.197.023.455-.124.727-.113 1.888.075-.026.266.419.341.152.025.465-.098.53-.09.209.028.208.2.349.19.33-.024-.048-.277-.021-.29.301-.144 1.445.075.723.322.426.106.492-.215.827-.078.67.272-.341.182-.622.217-.993.127-1.286-.004-2.687 0-.504 0-1.102.14-1.34.141-.148.002-1.519-.583-1.588.267-.533-.099-1.366-.686-1.92-.677-.496.009-.345.315-.392.325-.078.016-.668-.025-.877.011-.24.044-.118.162-.5.198-.937.09-.896-.216-.995-.24-1.098-.259-.623.192-.865.22-.105.013-.805-.031-1.542-.062-1.025-.038-2.19-.076-2.564-.02l.841-.174c-.507-.198-1.027.107-1.04-.237-.12.554-1.13.168-1.459.177-.124.004-.116.1-.27.1-.588.008-1.956-.092-2.285-.051-1.417.18 2.2.593 2.474.615-.556-.012-3.798.049-2.318.345.232.046.642-.195.768-.203.872-.048.183.162.25.185.115.036.7-.17.845-.141.051.009-.28.205.552.223-.408.19-2.75-.012-3.048.027-.108.014.56.448-1.428-.003l.067.118c-1.11-.01-2.228-.022-3.34-.038.122-.086.75-.248-.035-.232-.449.01-.122.218-.163.223-.428.05-7.552-.256-8.892-.27-.464-.006-1.753.119-1.854.12-.584-.001-2.659-.152-3.07-.136-.259.01-.017.18-.248.168-.215-.011.011-.168-.053-.176-.41-.054-2.94.023-4.497-.008-.427-.009-.807-.028-1.009-.063.167.015.57-.001 1.01-.033 1.067-.076 2.467-.238 2.438-.318-.017-.016-.715-.148-.864-.09-.248-.143-1.065.272-1.528.184-.025-.005.012-.065-.042-.13-.055-.068-.197-.14-.61-.166-.282-.018-1.009.162-1.745-.052-1.06.09-6.685-.244-7.07.012-.012.013.783.104.246.207-.712.137-.07-.33-.9-.374-.126-.007-2.43.034-2.508.063-.7.262 1.316.374 1.288.405-.07.077-1.745.12-1.813.1-.065-.018 1.302-.364-.34-.236l.564.127c-.773.08-.846-.162-1.033-.178-.581-.048-1.211.318-2.143-.137-.246-.12.164-.254.133-.272-.297-.162-.674.27-1.12-.053-.032-.024 1.003-.216-.807-.22l.373.094c-.253.069-2.091.107-2.336.09-.72-.048-.092-.27-.817-.243.464.305-1.736.342-1.611.08-.31.33-2.182.074-3.061.066-.555-.005-1.682.139-1.866.122-.215-.02-.151-.245-.534-.295-.118-.015-1.267.15-2.284-.083-.187-.045-.616-.426-.243-.521.618-.163 1.815.144 1.794-.081-.018-.241-1.611-.098-2.044-.13q-.224-.015-.393-.034c-1.416-.149-.443-.373-.494-.445-.124-.188-1.218-.182-1.26-.2-.19-.075.588-.224.592-.339.021-.15-1.025-.42-.788-.47.329-.072 1.299.153 1.357.143.785-.146-.294-.492-.593-.662-.09-.052.268-.138.193-.153-1.144-.233-.245.486-1.001.438-.69-.043.203-.27.168-.283-.03-.013-.847-.026-.976-.106-.052-.04 2.047-.483 1.965-.681l-2.025.131c-.055-.258.918-.068 1.02-.095.2-.053-.364-.184-.34-.266.013-.052.68-.237.077-.314-.207-.026-.632.155-1.38-.03 2.59-.237.807-.382.718-.474-.075-.091 1.172-.307-.34-.269-.066-.503.034-.159.46-.247.536-.109-.692-.274 1.233-.149C6.11 8.984 4.57 9 4.489 8.982c-.07-.017.276-.133.153-.173-1.453-.455-.457-.247-.873-.537-.04-.026-1.405-.134-.365-.177 1.907-.077 2.681.257 3.008-.456-1.405-.31-3.106.15-3.525.158-.657.011.02-.134-.06-.175-.03-.013-.593-.001-.595-.013-.406-.544 2.503-.009 3.416-.103-.254-.082-.484-.163-.738-.245l.997-.01c-1.58-.164-.055-.062.342-.502.085-.1-.956.07.233-.205-.877-.063-.599-.153-1.387-.03.012-.176 1.808-.375 2.509-.466-2.484-.198-1.075.45-3.22.107-.398.219.627.176.543.212-.292.13-.996-.076-1.851.379-.138.074.445.304-.419.293-.088-.002-.649-.198-.639-.212.073-.154.625-.096.641-.16.025-.061-.585-.025-.59-.042-.016-.192.508-.073.434-.134-.17-.13-2.351-.546.5-.424-2.368.218-.304.213.622.129.235-.021.296-.136.63-.176.436-.052.942.003 1.16-.018.242-.023-1.128-.295.853-.214-1.013-.27-2.781.018-3.769-.172-1.991-.384 1.385-.467 1.74-.504.093-.01-.218-.165-.157-.175.099-.015 2.017.057 2.213-.071.184-.129-.698.006-.766-.128-.042-.09 2.283-.25 1.02-.312-.858-.043-2.454.32-2.723-.07l3.812-.097h.003-.003l-2.086-.445c.73-.024 1.406.008 2.086.017.626.008 1.276-.005 1.926-.109-3.245-.475 1.059-.379 1.107-.437.013-.034-1.271-.42-1.47-.491 1.128-.148 4.586-.22 2.567-.697.36.108 1.254-.158 1.24-.178-.107-.21-2.05-.074-1.733-.264.373-.22.876.079 1.443.055 2.89-.124 2.095-1.223 4.995-1.047L17.54.546q4.722.097 9.452.203c1.233-.332 4.523-.525 6.136-.48.326.01 1.927.195 2.042.227.224.06-1.002.075-.448.19.11.022 2.82.116 2.634-.073-.312-.024-1.258.063-1.412.018-.495-.146.956-.164 2.718-.145 2.162.022 4.77.113 5.007.05q-.276-.098-.559-.194c.537.04 1.066.08 1.597.122M20.455 15.37c-.315.188-1.1.046-1.566.098-.643.074-1.734.798-1.265.071zm13.774.324c-.626-.105-.143-.508.38-.336.056.02.477.477-.38.336m-6.619-.22c.027-.006.571.007.591.013.49.165-1.156.126-.59-.013m31.911.386c-.703 0-.208.381.24.24.028-.008-.194-.24-.24-.24m-.499-.023c-.547-.344-1.658.295-.784.252.082-.005.812-.235.784-.252m-27.04-.316c.068-.126.725-.062 1-.03-.005.115-.732.017-1 .03m16.38.203c.026-.1-2.213-.157-2.365-.028.353-.048 2.332.116 2.364.028m5.803.045c-.058-.019-.845-.018-.825.07.383.128 1.082.017.825-.07m11.697.285c.046-.022-.549-.589.863-.201.207.056-.537.193-.464.213q.23.062.377.066c-.673.038-1.328.05-1.405.014-.308-.165.611-.083.629-.092m5.999-.32c.129-.089.978-.016 1.166.028.033.008-.12.243.264.236.31-.005-.141-.264.451-.207.61.057-.212.208-.156.222.069.018 1.008-.064.977.078-.028.105-1.027.004-1.274.019-.318.02.057.207-.463.154-.336-.034-.14-.338-.21-.356-.06-.014-1.21.132-.753-.174zm-5.049.387a.7.7 0 0 1-.174.011zm-44.528-.884c.328.096-.647.217-1.018.092-.006-.101.965-.107 1.018-.092m45.136.64c.987.089.246.187-.608.244.272-.055.28-.275.608-.245m-27.332-.533c.04.024.065.06.067.12-.104-.067-.114-.102-.067-.12m2.212.139c.76-.168-.788-.187-.774-.057-.001.049.745.063.773.057m18.126.416c-.07-.02 1.047-.538-.565-.167.85.085-.045.123-.038.17.031.139 1.475.04 1.792.106.254-.24-.95-.045-1.187-.109zm22.4.277c-.195.14-.817.078-1.228.059.193-.14.818-.077 1.228-.059m108.676 1.296c-2.796.334-3.207-.222-.614-.177.048.001.78.106.614.177m-24.566 1.398c-.282-.248.63-.313 1.231-.228.137.02.648.26.076.33.006-.309-.882-.399-1.307-.102m-98.96-3.15c.223-.134.82-.077 1.3-.034.1.011.197.021.283.027a.9.9 0 0 1-.284.067c-.409.035-1.003-.017-1.298-.06m114.246 2.128c-.299.003-.488.24-.434.254.241.067.781-.153.434-.254M65.16 15.656c-.03-.102 1.11-.183 1.194.07-.255-.022-1.157-.005-1.194-.07m16.883.426c-.177-.056.75-.126 1.03-.068-.027.108-.91.104-1.03.068m95.35 2.189c-.275 0-.948.038-1.019.133-.085.118.903.014 1.019-.133m49.388-2.242c.034.04-.998.356-1.464.293-.882-.12 1.426-.32 1.464-.293m-41.747 1.497c.852.148-.089.013-.039.232.561-.034 1.975-.128.988-.274-.194-.028-.683.036-.949.042m-.781-.017c-.079.078-.679.35-.15.295.24-.026.609-.306.15-.295m36.087-1.238c-.761-.18 2.715-.146 2.82-.115a.4.4 0 0 1 .108.048c.126-.066.783-.091.864.064-.199-.008-.736.018-.799.002a.3.3 0 0 1-.061-.02c-.231.142-2.788.056-2.932.021m-5.761-.097c.864-.305 1.023.186.949.203-.938.218-.33-.156-.359-.173-.067-.027-.735.154-.587-.03zm4.578.04a15 15 0 0 1 .794 0c.6.155-1.461.152-.794 0m-142.726-.69c.525.065-.001.23-.34.155-.026-.007-.117-.212.34-.155m107.411 2.065c-.122-.025-3.21.074-3.011.333.263-.05 3.773-.17 3.011-.333m-23.548.917c.543.007-.049.26-.343.161-.109-.036.206-.162.343-.16m-96.69-3.11c-.569.13-.444-.343.045-.171.02.007-.023.165-.045.17M164.65 18.69c-1.785.136-1.471-.591.655-.416.031.002.126-.003.158-.002q.178.01.372.027l-.234.114c2.515.048.828.056-.133.094-.033-.002-.132.003-.165 0a9 9 0 0 0-.365.012c-.266.016-.043.154-.286.172zm-7.221-.227c-1.801-.6 1.642-.186 2.637-.253-.96.231-2.213.182-.513.445-2.489.023-1.45-.198-1.55-.219-.116-.022-.496.053-.574.027m4.774.04c.101-.016.89.11 1.178.092-.4.196-1.872.018-1.178-.092m46.364-2.09c.062-.158.226-.275.842-.228-.188.082-.584.156-.842.227M19.86 14.55c-.425-.012-1.278-.071-1.017.093.028.014 1.017-.001 1.017-.093m154.959 3.545c-.094-.012-2.497.111-1.657.236.254.04 2.437-.114 1.657-.236m12.221-.852c-.201.014-.982.1-1.002.14-.039.13.921-.012 1.002-.14M17.706 14.39c-.052-.016-1.362.012-1.216.087.268.143 1.41-.03 1.216-.087m60.635.826c.108-.002.248.17.286.174.095.006 2.096-.005 1.327.192-.133.033-3.016-.133-3.388-.166-.136-.237 1.087.02 1.386.005.053-.003.096-.196.388-.204m133.452.977c.084-.149 2.435-.286 2.409-.107zm-1.192-.004c-.502-.096.669-.15 1.016-.11.009.1-.945.124-1.016.11m-28.041.836c-.234.054.509.214.35.268-.104.034-.637-.007-.797.072-.046.025.503.188.659.167.222-.028-.006-.171.237-.19.794-.063 1.512-.002 2.262-.06.067-.006-.459-.08.11-.12.084-.007.646.12 1.321.044 1.48-.63 2.634-.203 4.543-.527-.07-.044-1.529-.071-1.606-.07-1.619.03-4.503.236-6.2.361-.432.032-.213.126-.399.144-.149.014.012-.202-.48-.089M20.087 14.44c-.203-.204-.919-.076-1.373-.087.159.184.93.041 1.373.087m180.035 1.805c-.23.014-.923-.027-.981.036-.069.082.933.104.981-.036M89.678 15.53c.022-.005.578.015.6.021.495.17-1.173.112-.6-.02m12.822.436c.402.003.814-.03.936.144-.253-.045-.992-.033-.936-.144m17.944 1.73c-.077-.22 1.333.033 1.594.063-.099.095-1.534.104-1.594-.063m88.021-1.96c.769 0 .6-.325 1.088-.185.081.023.346.7-.496.46-.153-.044.439-.216-.592-.275m-42.221 2.56c.198-.146.827-.12 1.254-.121-.094.109-.951.105-1.254.122M15.351 14.225c-.363-.202-2.023-.053-1.612.08.057.018 1.376-.088 1.612-.08m54.547.868c.48-.107-.118-.178-.615-.145a2.3 2.3 0 0 0-.527.078c.085-.004.299.009.526.024.275.02.59.048.616.043m46.121 2.018c.037-.002.744.088.779.1.571.227-1.456-.031-.779-.1m-17.653-1.635c.256-.123 1.899.062 2.261.216-.367.166-2.577-.069-2.26-.216m106.954.412a13 13 0 0 1 1.566.06c-.104.112-1.502.02-1.566-.06M118.66 17.38c.038.005.074.022.111.027zm74.71-1.094c-.463-.011-.353.183-.325.187.358.04.836-.173.325-.187M19.564 14.139c-.161-.182-.928-.042-1.375-.086.131.144 1.015.104 1.375.086m135.933 3.932c-.575-.204 1.774-.409 2.271-.277.034.123-2.186.305-2.271.276m-87.686-3.277c-.05-.143-1.043.017-.833.087.13.044.858.002.833-.087m91.136 3.095c.222-.041.737.104.555.188-.233.108-.613-.176-.555-.188m20.231-.746c-.101-.014-1.394.223-.843.33.378.075.424-.135.512-.141.104-.007 2.206.095.331-.189m-36.827.66c.493-.05 1.08.02 1.592.022-.208.086-1.384.097-1.592-.022m-70.828-2.986c-.138-.067-3.208-.155-1.47.051.096.01 1.817.132 1.47-.05m136.942.919a4 4 0 0 1-.337-.017q.192.007.337.017m-8.659.164c.169-.109-.703-.112-.965-.049-.074.13.94.064.965.049m-55.823 1.78c.295-.055.831.014 1.195.011-.062.096-1.069.09-1.195-.01m-20.897-.313c.637.086 1.409.08 1.421-.038q.018.03.092.06c.05.021.718-.02.998.025 1.778.317-6.814-.115-1.8-.236q-.354.096-.711.19m-26.943-2.243c-.317-.152-1.219.01-.987.071.164.041 1.303.081.987-.071m12.372.717c-.098-.035-.993-.018-1.025.056.5.125 1.456.105 1.025-.056m-14.842-.928c-.212-.024-.483.205-.459.215.13.054.406.01.519-.06.056-.038.07-.083.001-.126a.4.4 0 0 0-.061-.029m113.196.228c-.311-.061-1.291.125-1.504.283-.041-.03-.15-.066-.348-.108h.002c-.276-.065-8.194.065-2.876.227.168.006-.063-.127.613-.118.045.001.069.113.208.115.324.004 2.017.04 2.36-.057q.004.03.074.057c.42.154 1.714-.353 1.471-.4m-96.582.851c-.175-.059-.753-.076-.819.017.275.075 1.226.12.819-.017m-38.85-1.583c-.37-.092-1.28.04-1.008.127.16.053 1.425-.023 1.007-.127m33.174 1.12c2.064.288.496.032.826-.087-.273.029-.555.058-.826.088m112.152-.185c-.341-.028.053-.32.432-.172.119.047-.242.186-.432.172m15.461-.456c-.301-.244 1.135-.141.583.05a7 7 0 0 1-.583-.05m-10.816.174c-.229.178-.38.202-1.033.172.965-.068.065-.203 1.033-.172M124.5 17.312q.007.01.006.019a.04.04 0 0 1-.006-.019m-32.854-2.375c-.266-.15-1.026-.15-.802 0 .02.014.695.106.802 0m113.718.489c.036.025.018.042-.041.059q-.003-.029.041-.06M95.628 14.87c-.029.108 1.07.178 1.115.167.635-.17-.659-.165-1.115-.167m-31.69-.729c-.061.01.327.3.556.193.18-.083-.325-.232-.555-.193m159.69.804c.362-.008.876-.02.972.112-.243-.015-.978-.013-.972-.112m8.029-.222c-.425.171-1.407.2-2.035.192-.016-.206 1.633-.13 2.035-.192m-23.809.478c-.031-.008-.937-.053-.81.083.181.2 1.068-.012.81-.083m-142.138-.882c.407-.09-.522-.396-.961-.177-.227.113.902.193.961.177m23.582.39c-.541.072.788.236.98.094-.25-.015-.79-.119-.98-.094m17.783.622c-1.61-.563-.78.277-.482.236.043-.006.522-.223.482-.236M11.17 13.386c-.241.058.657.27.766.13.073-.086-.614-.167-.766-.13m121.66 3.862-.211.003q.076-.01.211-.003m-48.413-3.195c1.18.617 1.064.159 1.167.164.223.01.745.181 1.165.163l-1.454.17c.378.053 3.698.332 3.77.236.099-.135-.94-.11-.974-.123-.044-.018-.202-.4-.298-.416-.153-.024-2.936-.088-3.376-.194m19.222 1.057c.262.065.322.22.447.194.042-.01.06-.152.205-.178zm-21.371-.576c-.333-.184 1.18-.08 1.227-.06.258.125-.955.21-1.228.06m12.813.197c-.051-.012-1.172-.082-1.165.016.297.075 1.791.123 1.165-.016m9.388.4c.39.047 1.129.254 1.06.031h-.002c-.35-.01-.708-.022-1.058-.031m-37.355-1.25c-.743-.353-.4.086.269.206.206-.152-.147-.148-.27-.205m-2.422-.29c-.196-.065-2.388-.037-2.057.15.122.068 1.366-.073 1.43-.06.086.02-.314.215.352.187-.038-.07.346-.256.275-.278m1.8.063c-.757-.272-.926.207-.362.216.222.005.472-.177.363-.216m3.057.076a4 4 0 0 0-.254-.037c-.348-.034-.85-.047-1.217.07l1.216.037.735.027c.077-.09-.26-.054-.482-.097zm166.591-.398c-.602-.114.773-.219.833-.188.177.105-.563.239-.833.188M6.527 9.006c-.16-.054-.274-.234-.636-.14.369.133.726.265 1.1.397.282-.303-.284-.197-.464-.257M5.135 7.898c.052-.007-.232-.474.434-.163.446.21-1.996.416-2.444.209.49-.096 1.562.014 2.01-.046M.841 5.879c-.033-.037.906-.092 1.009-.066.57.139-.862.265-1.009.066m2.968.089c-.428-.09.523-.149.823-.097.023.087-.756.11-.823.097m226.083.814c-.48-.304-.884.39-.161.232.035-.007.181-.217.161-.232M1.749 5.409c.436.09-.528.149-.819.096-.023-.086.752-.11.82-.096m227.789.627c-.632-.21-.39.55-.311.578.327.113 1.42-.22 1.644-.302-1.648.164-1.035-.177-1.333-.276m-2.872.538c-.579.097.909.215 1.186-.006-.288.018-1.02-.022-1.186.006m-3.529-.162c-.312-.02-1.245-.066-1.397.058.339-.03 1.27.069 1.397-.058m-.716-.345c-.491-.154-.598.326-.038.172.021-.006.056-.164.038-.172m-2.748-.116c-.324-.184-.68.285-.161.288.154 0 .196-.267.161-.288m9.06-.716c-.459-.068-1.04.278-.063.288l-1.025.18c1.287.15 1.177-.306 1.546-.298.514.013.485.392.385.514.414-.244 2.202-.301 3.233-.38-.911-.067-2.389-.19-3.286-.226-.257-.01-.503.1-.721.095-.35-.01-.044-.168-.068-.173zm-12.669.776c-.948-.199-.344.255.189.163.023-.007-.166-.158-.189-.163M.499 3.999c1.26.194.343.45 2.98.06-1.107.277-.061.2-.276.31-.176.089-.824.016-.447.193-.495-.193-2.654-.14-2.747-.17h.003c-.057-.02.084-.455.487-.393m222.606 1.2c-.323-.555-.43.34-1.056-.112-.807.695 2.268-.05 2.654.513-3.356.01 2.229.515-.132-.287 1.936.265.63-.121.925-.237.314-.124 1.407-.025 1.347-.233h-.002c-.668.031-1.331.063-1.999.093.663.437-.7.333-1.173-.025zm3.786.335c-.068-.008-1.514.091-1.42.18.195.053 2.253-.069 1.42-.18m6.373-.287c-.52.016-1.327-.046-1.605.133.521-.015 1.328.047 1.605-.133m-26.868.552c-.666.152 1.391.156.793 0a14 14 0 0 0-.793 0m15.201-.482c-.681-.158-.349.383.148.23.029-.01-.117-.223-.148-.23M1.519 3.933c.045-.135 1.878-.04 2.202-.042-.182.125-2.256.195-2.202.042m232.642.78c-1.05-.445-2.434.157-2.588.15s.08-.226.045-.23a39 39 0 0 0-1.787.074c-.056.013.247.3-.086.404.65-.186 3.634-.176 3.787-.216.118-.03-.794-.31.627-.181zm-2.974.097c.411.112-.731.162-1.009.125-.617-.085.956-.138 1.009-.125m-2.75-.034c-.131-.024-1.311-.018-1.406.122.56.166 1.704-.065 1.406-.122m-13.129.301c-.303.023-1.155-.069-1.2.053.306-.023 1.156.069 1.2-.053M7.762 2.878c-.507-.1.678-.142 1.016-.094.02.08-.978.103-1.016.094m213.696 1.287c-.184-.032-3.882.131-4.402.196.512.083 4.179.02 4.346-.03.048-.014.079-.161.056-.166m7.988-.251c.334-.188.559.019.602.02.418.015 1.286-.051 1.1.126-.741-.046-2.366.226-1.702-.146m-14.414.363c-1.261.088 1.162.233.842.052a9 9 0 0 0-.842-.052m6.838-.173c.274-.148 3.976-.108 4.566-.125-.525.279-.957.088-1.671.118-.193.009-.139.118-.159.119-.333.012-.087-.12-.292-.118-.131.003-2.83.217-2.444.006m7.765-.319c.203-.107 2.504-.221 2.597-.198.7.18-2.418.23-2.597.198m-8.109.09c.388-.315 2.234-.15.978.032-.12.016-.632-.106-.978-.031m-6.365.106c-.061-.008-1.379-.047-1.398.051.187.035 2.104.036 1.398-.051m.673-.343c-.031.002.28.186-.336.173-.053-.002-.147-.212-.923-.121-.157.019-.398.163-.38.172.815.32 3.228-.362 1.639-.224m13.839-.026c-.127-.086.164-.361.437-.234.118.054-.093.22-.437.234m-18.682.354c.763-.174-1.641-.164-1.763-.12.079.099 1.686.137 1.763.12M8.958 1.632h-.002c.645.037.245.17.276.175 1.376.197 1.002-.107 1.22-.143.468-.077.379.293 1.164.14-1.287.226-.12.131-.08.263.138.537-1.705-.252-2.345-.14-.09.016.564.187.337.236-.741.158-3.042-.67-.57-.531m221.36 1.716c.292-.166 2.539-.084 1.949.065-.095.024-2.377.178-1.949-.065M124.999 5.462c.513-.124-.66-.313-.871-.216-.11.05.646.272.871.216m-8.24-1.277c-.64-.04-1.396.453-.575.451.093 0 .638-.365.575-.45m41.76 1.289c-.675-.21-.636.168-.142.168.176 0 .163-.161.142-.168m-25.805-.208c-.067-.014-.854.008-.824.095.29.053 1.265-.003.824-.095m26.019.156c-.398.064.279.344.776.082-.251.02-.734-.088-.776-.082m61.388-2.353c-.333.161-1.274.133-1.819.17-.061-.2 1.43-.126 1.819-.17M119.474 4.705c-.629.075.673.332.569.132a7 7 0 0 0-.569-.132m60.25-.003c-.433.152.982.21.581.028a7 7 0 0 0-.581-.028m6.146-.386c-.336-.016-1.777.103-1.208.179.089.011 1.191-.068 1.208-.18M10.49 1.52c-.18-.207.871-.158 1.026-.121.055.015-.78.39-1.026.12m143.65 3.878c-.35.022-1.253-.037-1.415.07.428-.018 1.527.147 1.415-.07m-32.078-.43c-.439-.257-1.196-.315-1.04-.004.851.064-.084-.266 1.04.004m38.915.235c-.281-.02-.493.26-.463.273.298.13.743-.161.463-.273m-21.006.009c-.018-.12-.91-.075-.794.003.04.027.804.094.794-.003m68.407-2.003c-.415-.103.843-.232 1.217-.11.183.181-1.163.121-1.217.11m-39.943 2.009c.034-.18-1.316-.033-.779.097.136.033.767-.037.779-.097M181.57 4.2c-.922.282 3.025.14 1.971-.048-.071-.013-1.891.024-1.971.048m6.453-.344c-.163-.012-.131-.616.567-.435.092.024-.315.212-.239.243.052.017 1.51-.004 1.583-.023.07-.02-.028-.207.043-.233.075-.03 1.001.073 1.466.043.885-.06.984-.227 1.051-.232.21-.016.571.073 1.007.043.909-.063 2.008-.161 3.132-.239.043-.005.176-.006.219-.01 1.572-.06 3.134-.064 4.153.108-1.405-.089-2.749.057-4.143.16-.042.004-.17.004-.212.01q-.216.023-.432.043c.421-.363-2.22.407-.678-.083-.72.128-6.982.635-7.515.604zm-73.798-.105c.419-.163-1.638-.328-1.83-.108.262.059 1.774.125 1.83.108m9.025.395c.169-.028.33-.416 1.212-.184h.002c.26.068-.041.156.006.192.014.016.838.237.149.25-1.038.016-.091-.3-.636-.323-.071 0-1.089.166-1.03.215.005.006.308-.023.358-.001.185.083.087.204.114.211.078.025 1.735-.134 1.991.052.056.072-2.657.116-2.728.063-.062-.024-.013-.368-.076-.407-.036-.016-1.056.034-1.18-.014a1 1 0 0 1-.085-.036c.068.06-.109.067-.304.044-.256-.03-.534-.092-.51-.152.014-.027.295.002.523.032.12.016.221.033.23.037l.025.014c-.125-.13 2.009.034 1.562-.196.638-.071-.108.28.377.203m3.246-.125-.219.107c1.229-.074 2.703.103 4.192.104.376 0-.058-.223.438-.162.4.05.84.258.623.304-.055.011-.863-.125-1.269-.112-1.192.04-.886.231-.957.236-.08.005-.821-.13-1.224-.127-1.005.01-1.475.128-2.789-.05.763-.112.347-.393 1.205-.3m47.655.368c.039-.123.873-.069 1.172-.106-.04.124-.875.07-1.172.106M48.855.885c-.268.19 1.694.299 1.182.118-.112-.04-.936-.11-1.182-.118m8.733.396c.26-.048-.778-.22-.778-.067-.002.049.746.073.778.067m85.619 3.048c.048-.006.768.046.789.057.473.215-1.885.068-.789-.057M68.103 1.246c-.904.12 1.8.205.974.031a23 23 0 0 0-.974-.031m3.91.03c-.216.001-1.22-.087-1.233-.027-.022.097 1.121.19 1.233.028m89.162 3.18c-.101-.224 1.164-.044 1.608-.068.102.223-1.171.044-1.608.068m-8.033-.245c5.373-.119 4.181.345-.321.105-.005-.143-.018-.097.321-.105m6.87.097c-.19.14-.808.092-1.214.077.072-.099.923-.054 1.214-.077M46.513.514c.347-.172 1.855.092 1.583.16-.062.013-1.715-.065-1.583-.16m97.147 3.63c-.121-.219 1.491-.113 1.613-.063.496.199-1.482.016-1.613.062m24.789.063c.269-.18 1.049-.123 1.55-.143-.222.156-1.124.131-1.55.143m-3.42-.045c.015-.003.185 0 .358.005l-.199.001c.193 0 .394.002.411.006.287.077-.063.116-.408.115l.195-.002c-.342-.01-.692-.057-.357-.125M8.064.002c.026-.006.576.005.594.011.49.163-1.16.13-.594-.012"/></svg>