<svg xmlns="http://www.w3.org/2000/svg" width="50" height="50" fill="none" viewBox="0 0 50 50"><path fill="#3baf75" d="m40.816 34.377-.534-8.455 2.547-2.067a2.88 2.88 0 0 0 1.066-1.974 2.82 2.82 0 0 0-.693-2.114l-1.624-1.856a3.03 3.03 0 0 0-1.864-.996l-.055-.868a.95.95 0 0 0-.337-.664l-7.444-6.31c-.2-.169-.46-.254-.726-.238l-13.033.823a3.08 3.08 0 0 0-2.073.982c-.53.579-.8 1.335-.751 2.102l1.462 23.154a2.85 2.85 0 0 0 1.01 1.991 3.07 3.07 0 0 0 2.18.714l18.044-1.14a3.07 3.07 0 0 0 2.073-.982c.53-.578.8-1.334.752-2.102M18.762 35.77 17.3 12.616a.95.95 0 0 1 .25-.7c.177-.194.425-.312.691-.328l12.03-.76.335 5.313c.05.796.762 1.398 1.588 1.346l5.52-.349.011.164a3 3 0 0 0-.392.27l-2.503 2.032a.5.5 0 0 0-.196-.238.5.5 0 0 0-.306-.077l-13.032.823a.5.5 0 0 0-.346.164.48.48 0 0 0-.125.35.48.48 0 0 0 .168.332c.1.085.23.127.364.119l12.642-.798-2.588 2.1-9.933.627a.5.5 0 0 0-.345.164.474.474 0 0 0 .043.682c.1.085.23.128.363.12l8.578-.542-2.587 2.1-5.869.37a.5.5 0 0 0-.345.164.48.48 0 0 0-.126.35.47.47 0 0 0 .169.332c.1.085.23.128.363.12l4.514-.286-2.534 2.057-.05.044-1.808.114a.5.5 0 0 0-.346.164.474.474 0 0 0 .043.682c.1.084.23.127.364.119l1.336-.085-1.152 4.63a.93.93 0 0 0 .207.845 1.03 1.03 0 0 0 .83.34l5.486-.342a1.03 1.03 0 0 0 .586-.227l9.17-7.444.443 7.027a.95.95 0 0 1-.25.7 1.03 1.03 0 0 1-.691.328l-18.045 1.14a1.02 1.02 0 0 1-.727-.239.95.95 0 0 1-.336-.663m13.371-19.248a.5.5 0 0 1-.358-.117.48.48 0 0 1-.166-.327l-.31-4.914 5.94 5.036zm6.309 8.371-2.91-3.336 1.121-.91 2.914 3.333zm-12.467 4.423 8.788-7.134 2.908 3.336-8.695 7.058zm-.744.652 2.974 3.234-.045.037-2.62.164-.905-1.036z"/></svg>