<svg xmlns="http://www.w3.org/2000/svg" width="237" height="19" fill="none" viewBox="0 0 237 19"><path fill="#fdd300" fill-opacity=".6" d="M18.304 15.876c.15-.02.733.03.99.022-.29.214-1.518.052-.99-.022M44.638.463q-.32.073-.65.145c.616.047 1.433.027 1.999.091.093.01-.153.159.068.17.22.013.183-.198.5-.212.362-.016 1.988.175 2.553.19 2.112.049 4.224.002 6.296.155-2.151.086.008.314.609.265.133-.012.123-.4 2.267-.242 1.352.098.087.625 2.361.401-1.733-.433-.019-.362 1.35-.346.232.003 2.143.099 2.98.094.29-.001.733-.2 1.112-.2.26.001.473.116.855.115.791 0 1.57 0 2.374.006 1.142.01 2.18.045 3.246.096-1.116.494.86.248.934.276.438.155-1.564.138-.777.25l3.31.05c-.899-.092 1.21-.406 1.585-.223-.153-.467 4.964.544 5.752.404.162-.03-.895-.282 1.571-.121.268.017.164.155.305.145.09-.006.597-.44 1.14-.183.198.093-1.079.362 1.706.297-1.097-.47 3.861-.181 4.77-.062l-.545-.189c.9.175 1.063.022 1.269.033l.144.008c.844.052 1.94.21 2.702.216.945.01.957-.273 2.058-.122q-.39-.109-.78-.215 1.146.06 2.29.14c-1.785.29.38.033.521.035.227-.001-.105.134.273.135.039 0-.009-.148.572-.131 1.213.038 1.01.209 1.517.24.045.002-.104-.14.768-.109 2.774.108-.017.096-.128.108-.144.016.776.615-1.572.27.792.111.851.357.941.368.081.01 1.444.073 1.521.072.675-.03.1-.239.232-.258.106-.017 1.728.327 2.147-.13.743.521-.481.37-1.799.337-.198.077 1.235.283 1.308.29 1.845.157.855-.302 1.281-.505.23-.105.946.215.289-.18 1.676.116.643.218.749.256.157.057.747.015.822.035.105.03-.279.11.14.19.068.013.762-.122-.099-.3 1.163.14 1.084-.038 1.446.342.872-.567.542.439.855.506.835.18.634-.352.683-.372.324-.128 2.616.284 3.191.271-.254.342-1.83-.187-2.195-.152-1.214.113 1.666.356.753.725.37-.089.757-.176 1.13-.264.63.365-.321.394 1.478.475.318-.224-1.269-.093-.936-.26.205-.098 1.233-.015 1.266-.074.025-.073-.919-.084-.759-.183.345-.215 3.75.388 1.126.245.722.072 1.048.606 1.691.52.418-.056-1.801-.984 1.624-.489.04.24-1.371-.078-1.42-.065-.057.02.152.573.195.604.054.037.547.073 1.212.122.943.07 2.317.092 2.739.275-.27-.306 2.432.017 2.767-.082.081-.025-.22-.215-.133-.234.539-.11 2.044.23 2.757.24.794.012.698-.15.742-.15.349.01.07.119.284.119.321 0 2.574.026 2.686.004.033-.007-.338-.192.159-.226.084-.005.03.212 1.489.125 1.76-.103-1.223-.279-.49-.503 1.128.332 1.1.01 1.401.036.088.009.64.202 1.322.264q.206.02.427.018l-.427.028-1.417.09c.356.031.91.026 1.416.03.335.003.654.01.857.033.238.03.037.253.561.252.114-.001.555-.547-.816-.314-.106-.197.542-.063.847-.115.046-.008.231-.335.613-.127.091.051-.923.998 1.683.332.084-.021-.205-.144-.123-.168.054-.016.723.04.794.023.075-.017-.243-.152-.154-.176.457-.128 1.053.397.111.348l.944.202c-.332-.395.495-.105.934-.112 2.798-.046.928-.321 1.41-.447.78-.203.176.46 1.33.271.105-.017-1.278-.317 1.429-.127l-1.2.02c.226.381 1.444-.01 1.538-.014 1.064-.04.344.088 1.926-.089.141-.016.448.08.75.038 1.252-.179-1.649-.135-1.727-.289-.037-.075 3.083-.022 3.189.014.453.163-1.414.055-1.06.255.129.07 4.576-.024 5.466.061 1.028.1 1.483.617 1.497.04.285.57.544.186.674.19 1.588.069 1.595.075 2.956.033.301-.01.549.164.659.136.062-.017-.052-.201.252-.255.424-.074 2.94.134 3.129.235.19.103-1.064.038-.84.206.316.008.651.009.959.007l-.176.001c.558-.017 1.108-.043 1.675-.047.37-.003.183.119.343.117.067 0 1.334-.146 1.278-.188-.129-.085-4.047.08-3.019-.15.198-.043.907.209.788-.116 3.497-.011 7.001-.134 10.583-.307-2.039.386-4.341.31-6.452.43-.29.017-1.269.027-1.143.187 1.797-.029 4.033-.24 5.79-.246.056 0-.139.162.071.172.395.019 1.66-.307 1.878-.26.037.012-.676.257-.446.366.587.28.691-.437 1.177-.462.383-.02 2.961.136 3.591-.128.663-.28-1.903.006-1.726-.196 1.725-.316 3.504-.247 5.158-.393.029-.003-.236-.131.133-.18.645-.083.821.114 1.14.124.341.01 1.54-.108 1.698-.043.021.009-.203.234-.239.242-.52.124-.722-.131-.77-.131-.179.003-.34.118-.506.124-.271.01-.426-.075-.776-.057-.241.012.004.177-.228.186-.09.003-1.047-.346-1.099.087-.021.134 7.581-.248 8.345-.404-.668-.005-1.307-.012-1.973-.016 1.336.03 2.899-.42 3.052.076 1.029-.062 2.054-.122 3.098-.182.04-.006.159-.006.199-.01 3.949-.103 7.838-.14 11.722-.177.878.028.402.36 1.842.242-.371-.098-.749-.195-1.123-.292.743.06 4.011.147 4.54.07.069-.01.156-.305.973-.344.723-.035.842.183 1.231.218.327.03.687-.035.784-.025.074.009.106.143.284.163.563.063.103-.308.666.117l-.405.057c.677.051 1.606.231.61.348-.17.02-.026-.113-.154-.11-5.012.113-1.004.296.748.06.454.186 2.977.017 3.062.053.117.053-.31.216.257.337.12.027 3.49-.158 2.283.127-.252.059-1.869.039-2.259.054.929.39 3.062-.245 3.305-.236.978.04-1.866.4.334.394 1.687-.005.097-.239.743-.372.364-.074 2.282.176 2.218-.213.653-.06.276.157.357.17.08.011 1.364-.143 1.784-.074.051.009-.102.216-.049.231.104.026 1.342-.053 1.392-.072.032-.013-.27-.181-.15-.228.141-.054 1.335-.052 1.399-.105.09-.08-1.38.02-1.142-.187.681.028 1.783-.142 2.224-.318-.108.05-.765.08-.994.071.098-.294 1.509-.34 1.035-.093.302-.134.09-.192.259-.315.044-.031.48-.053.562-.107.011-.01-.443-.103-.355-.165.16-.112 1.479-.138 1.588-.115.308.067-.765.205-.85.33-.013.02.913.225.928.245.062.226-.964.101-.84.302l.762.1c-.965.246-2.769.204-3.227.455 1.442-.119 2.952-.169 2.97.363.008.223-.611.378-.585.434.1.2.958-.054.99-.045q.04.018.04.035c.004.12-1.227.253-1.287.31-.1.1.464.477.467.565-.018.019-.895.145-.592.288.306.144 1.077.118 1.105.133.15.088-1.194.223-1.233.28-.02.028.71.171.733.22.02.048-.526.175-.738.338-.158.122.318.192.235.214-.059.014-1.336.058-1.397.08-.092.033.211.16.169.196-.06.052-.475.017-.419.066.042.037 1.657.454 1.652.58-.01.218-1.724-.218-.115.578.012.005.393-.07.404-.065.243.148-.979.436.525.337-2.793.377-.337.338-.738.718-.155.146-1.241.242-1.245.263.112.174.453.024.574.107.067.046-.899.268-.676.383.115.059 1.148 0 1.192.01.414.1-.084.243.009.322.062.053.686.034.703.043.027.02-.813.274-.987.358-.132.065.376.141.283.17-.56.178-1.775-.18-.598.34.072.032.51.002.523.008.277.15-.53.192-.669.327-.24.233.916.067-.044.259.729.12 1.133.1 1.979.026-2.342.203-3.152.81-.544.701-.829.022-.726.346-.974.36-.154.01-1.368-.274-.791.437.073.09.8-.053.577.142-1.757.014-.033.12-.03.145-.007.434-4.312.222-5.046.288-.853.082-1.603.441-1.789.446-.611.017-.109-.169-.247-.229-.139-.058-1.869.315-1.956.299-.339-.065-.002-.277-.037-.286-.422-.114-2.746.098-3.401.064.021.132 1.335.114.52.344-.949.269-1.012-.314-1.039-.339-4.364.096-8.716.17-13.052.251.062.31 2.89.027 2.959.066.38.236-4.41.313-4.996.216l1.341.177c-.759.37-2.449-.062-3.541.118-.355.058.33.182.315.192-.392.146-1.04.053-.563-.143-.968.199-.832-.001-1.576 0-.038.001.282.138-.301.211-.281.034-1.749.07-1.939.203-.079.055.677.594.759.11 1.6.196.503-.23 1.127-.235.099 0-.123.273 1.445.113-.286.49-2.104.169-2.404.236-.633.135 1.992.322 2.468-.064-.216.383.186.047.777.05.639.005.363.123.711.116.955-.016.549-.274 1.343-.049-.783-.73 1.348-.123 1.963.061-.997.056-2.006.112-3 .169l.173.114-.791-.001.124-.115c-1.351.27-1.682.005-1.795.004-1.422 0-3.06.042-4.482.085-.204.006-.074.223-1.423.12l.214-.01-.197-.01c-.51-.026-.047-.247-.615-.18-.672.56-.685.15-.899.164-.613.041-.967.193-1.023.198-.755.072-1.855.127-2.669.204-.016.003.422.13-.114.121-.199-.003-1.92-.557-3.383-.23.381.019.777.036 1.16.053-.46-.03-3.604.371-2.82.495.487.075 1.615-.445 1.766-.036-1.053-.05-6.873.573-7.339.508-.064-.009.312-.173.224-.184-.066-.008-1.406.122-1.591.083-.108-.023.481-.15.428-.194-.04-.032-1.733.031-1.816.207.411-.097 1.574-.121.976.066-.076.023-.489-.058-.584-.028-.869.27 1.766.033 2.175.003-1.641.338-4.222.267-6.166.527-.794-.093 1.152-.29.255-.35-1.861-.13-.48.225-.535.247-.451.171-2.062-.505-2.032.076-.678-.053-.464-.136-1.413-.014l.382.103c-1.044.393-3.329-.374-3.16-.447.445-.189 1.624.036 1.724.024.147-.017.528-.62 2.163-.175.638-.428-2.564-.143-1.117-.483-.982.102-5.059-.04-5.64.135-.051.018.111.226-.181.271-.03-.001-.122.003-.152.001-.106.015-.275.004-.55-.054-.471-.098.662-.096.446-.187-.659-.275-9.568-.182-11.25-.188-.11 0-.068-.123-.176-.123-.333 0-1.538.17-2.131.107 1.225.24-1.159.232-1.763.2-.92-.047-.86-.263-1.257-.313-1.53-.194-3.905.292-5.09-.2.059.476-2.054-.255-3.018-.27-.754-.011-1.852.292-.838.495-.996-.028-2.033.01-3.011.037a76 76 0 0 1-.877.02c-.202.003.076-.135-.267-.125-.031.002-.076.14-.366.151-2.429.106-1.243-.179-1.699-.268a5 5 0 0 0-.579-.082c1.414-.023 3.05-.064 3.48-.064-.366-.31-3.134.037-3.941-.046-.027-.003.07-.17.041-.171h-.001c-.306-.015-2.247.044-1.847.245.105.054 1.004.055 2.058.04-.285.036-.073.225-.123.232-.612.091-2.113-.094-2.651-.12-.124-.005-.115.115-.135.115-.487-.028-.288-.371-.79-.018-.882-.43 1.657-.06 1.479-.339-.111-.208-5.84-.123-5.885.188-.02-.036-.1-.083-.269-.139-.366-.118-2.07-.16-2.379-.123-.052.009-.053.337-.116.336-.109-.002-1.161-.195-2.077-.308-.365-.044-.698-.063-.921-.027l.901.207.273.057-.276-.028c-2.05-.212-1.7-.08-.969.094.038.005.074.021.11.027.266.061.57.127.826.182.349.072.613.124.619.139.01.024-.248.022-.633-.005-1.054-.07-3.156-.319-2.562-.486.111-.03 1.913.3 1.033-.014-.156-.055-1.324-.117-1.384-.148-.394-.202 2.178-.138 1.891-.396-.648.146-1.424-.05-2.138-.071-.319-.009-.42.146-.46.144-.602-.02-.249-.156-.448-.173-.102-.008-1.315.233-1.039-.246-3.886-.03-1.095.256 1.261.478-.755.105-2.226-.14-2.876-.163-.239-.01-.118.173-.517.166-.824-.019-4.69-.593-5.683-.72.621-.005.46-.204-.019-.234s-.099.25-.195.268c-.098.017-2.319-.285-2.684-.278 1.673.042 1.316-.17-.103-.3.212-.036.416-.074.626-.11-.838.006-2.557-.391-3.041-.335-.076.009.183.179.141.184-.422.037-1.834-.195-1.904-.144-.058.04.541.2.313.252-.047.01-.62-.227-1.198-.2-.214.01-.092.161-.146.167-.45.053-.176-.183-.996-.173-.603.01-1.055.236-1.884.138 2.717.376.43.182-.712.258-.182.012-.032.27-1.093.14l-.034-.005.034-.006c1.408-.273.814-.306.004-.294-.529.008-1.123.032-1.372.027-.035-.002-.046-.176-.36-.183-.026 0 .01.118-.281.123-2.766.047-.998-.061-1.522-.185-.225-.053-1.576.092-1.933.09-.084-.001-.044-.123-.368-.124-.569-.002-1.086.119-1.46.122-.044 0-.04-.194-.758-.146-.2.014-.425.077-.144.139.944.203 2.74-.08 3.81.12.971.182-2.108.146-2.264.142-.059 0 .546-.085-.067-.115-.522-.026-1.475.289-2.254.199-.06-.007-.669-.304-.642-.32.03-.01.976-.051.842-.136-.018-.01-.62-.021-.697-.084-.096-.076-.341-.81-.47-.831-.328-.053-.118.118-.33.101-.464-.035-2.04-.29-2.104-.04l.787.066c-1.462-.011-.844.112-1.051.154-.226.045-.15-.175-.648-.21-.105-.006-2.174-.018-2.133.076 1.14-.115.715.147.766.153.197.023.455-.123.726-.113 1.885.075-.026.267.418.341.152.025.465-.098.53-.09.208.028.207.2.348.19.33-.024-.048-.277-.022-.29.302-.143 1.444.075.722.321.426.107.492-.213.826-.077.67.271-.34.181-.62.216-.991.128-1.285-.003-2.683 0-.504.001-1.1.14-1.34.142-.146.001-1.515-.583-1.584.266-.532-.099-1.364-.685-1.916-.676-.496.009-.345.314-.392.325-.078.016-.667-.026-.876.01-.24.044-.117.162-.5.198-.935.09-.894-.216-.992-.239-1.097-.259-.623.19-.864.22-.104.012-.804-.032-1.54-.062-1.023-.038-2.187-.077-2.56-.02q.414-.088.84-.175c-.506-.197-1.025.108-1.038-.236-.12.553-1.13.168-1.457.177-.123.004-.115.099-.27.1-.587.008-1.952-.092-2.281-.051-1.415.179 2.197.592 2.47.614-.555-.013-3.792.048-2.314.344.231.046.64-.195.767-.202.87-.049.182.162.25.184.114.036.698-.169.842-.14.052.008-.28.204.552.222-.407.19-2.747-.012-3.043.027-.108.014.56.447-1.426-.003l.067.118c-1.108-.01-2.225-.022-3.335-.038.122-.086.75-.247-.035-.231-.448.009-.122.217-.163.222-.427.049-7.54-.256-8.878-.27-.463-.006-1.75.119-1.851.12-.583-.001-2.655-.152-3.066-.136-.258.01-.016.18-.247.169-.215-.012.011-.168-.053-.176-.409-.055-2.935.022-4.49-.008-.426-.01-.805-.029-1.007-.064.167.015.57 0 1.008-.033 1.066-.076 2.464-.237 2.434-.317-.017-.016-.714-.148-.862-.09-.248-.142-1.064.272-1.526.184-.025-.005.012-.065-.042-.13-.054-.068-.197-.14-.609-.166-.281-.017-1.007.162-1.742-.051-1.058.09-6.674-.244-7.058.011-.013.013.78.104.244.207-.71.137-.07-.33-.898-.373-.126-.007-2.427.034-2.504.063-.698.261 1.314.373 1.286.404-.07.076-1.743.119-1.81.1s1.3-.364-.34-.236l.563.127c-.771.079-.844-.162-1.031-.178-.58-.047-1.21.318-2.14-.136-.245-.121.163-.254.133-.272-.296-.162-.673.27-1.118-.053-.032-.024 1.002-.216-.806-.22l.373.094c-.253.069-2.088.107-2.333.09-.72-.048-.092-.269-.816-.243.463.305-1.733.342-1.609.08-.308.33-2.178.074-3.056.066-.554-.005-1.679.139-1.862.122-.215-.02-.152-.245-.534-.295-.117-.014-1.265.15-2.28-.082-.187-.045-.616-.426-.242-.52.616-.164 1.81.143 1.79-.082-.018-.24-1.608-.097-2.04-.129q-.224-.015-.393-.035c-1.414-.148-.443-.372-.493-.443-.124-.188-1.216-.183-1.257-.2-.19-.075.586-.224.59-.338.021-.15-1.024-.42-.787-.47.329-.072 1.297.153 1.355.142.784-.145-.293-.49-.592-.66-.09-.052.267-.138.193-.153-1.142-.232-.245.485-1 .437-.689-.042.203-.27.168-.282-.03-.014-.846-.026-.975-.106-.052-.04 2.045-.482 1.962-.68-.665.044-1.35.087-2.022.13-.055-.257.917-.067 1.018-.094.201-.053-.362-.184-.339-.266.014-.051.68-.237.078-.313-.208-.026-.631.155-1.379-.03 2.586-.236.807-.382.717-.473-.074-.091 1.17-.307-.338-.269-.067-.502.033-.158.459-.247.534-.108-.692-.274 1.23-.148-.113-.235-1.65-.219-1.732-.237-.07-.017.275-.133.153-.172-1.45-.455-.456-.247-.872-.537-.04-.026-1.402-.134-.364-.176 1.903-.077 2.677.256 3.003-.456-1.402-.31-3.101.15-3.52.158-.655.011.02-.134-.059-.175-.03-.013-.592-.001-.595-.013-.405-.543 2.5-.009 3.41-.103-.253-.081-.482-.163-.736-.244l.996-.01c-1.577-.164-.056-.062.341-.502.085-.099-.954.07.233-.204-.876-.063-.598-.153-1.385-.03.012-.176 1.805-.375 2.505-.465-2.48-.198-1.073.449-3.215.106-.397.219.626.176.542.212-.291.13-.995-.076-1.848.378-.138.075.445.304-.418.293-.088-.001-.648-.198-.638-.212.073-.153.624-.096.64-.16.025-.06-.584-.024-.589-.041-.016-.192.507-.074.433-.134-.17-.13-2.347-.545.5-.424-2.365.218-.304.213.62.13.235-.022.296-.137.63-.176.435-.052.94.003 1.158-.018.24-.023-1.127-.295.852-.214-1.012-.27-2.778.018-3.764-.172-1.988-.383 1.383-.466 1.738-.503.092-.01-.218-.165-.157-.175.098-.014 2.013.058 2.209-.07.184-.13-.696.005-.765-.129-.041-.09 2.28-.25 1.02-.311-.858-.043-2.451.32-2.72-.07l3.806-.096h.004l-.004-.001c-.7-.148-1.391-.296-2.083-.444.73-.024 1.404.008 2.083.017.625.008 1.274-.005 1.923-.108-3.24-.475 1.057-.38 1.106-.437.013-.034-1.27-.42-1.469-.49 1.127-.149 4.58-.22 2.563-.696.361.107 1.252-.158 1.239-.178-.107-.21-2.047-.074-1.73-.264.371-.22.874.079 1.44.055 2.885-.123 2.092-1.22 4.987-1.045l-.172-.117q4.716.097 9.438.203c1.23-.332 4.516-.525 6.127-.479.325.01 1.924.194 2.038.226.224.06-1 .075-.447.19.11.022 2.816.116 2.63-.073-.311-.024-1.256.063-1.41.018-.494-.146.954-.164 2.714-.145 2.158.022 4.762.113 5 .05q-.277-.098-.559-.194c.537.04 1.064.08 1.594.122M20.424 15.348c-.315.187-1.1.045-1.565.097-.641.073-1.731.797-1.262.071zm13.752.323c-.625-.105-.143-.508.379-.336.056.02.477.477-.38.336m-6.609-.22c.028-.006.57.006.59.013.49.164-1.154.126-.59-.014m31.862.385c-.703 0-.208.381.24.24.028-.009-.194-.24-.24-.24m-.499-.022c-.546-.344-1.655.294-.782.25.081-.004.81-.233.782-.25m-26.998-.316c.069-.126.725-.062.999-.03-.005.115-.731.017-.999.03m16.354.202c.026-.1-2.209-.156-2.36-.027.352-.048 2.328.115 2.36.027m5.795.046c-.058-.02-.844-.018-.824.07.382.128 1.08.016.824-.07m11.678.284c.046-.021-.547-.588.862-.201.207.057-.536.192-.463.213q.23.061.377.066c-.673.037-1.326.05-1.403.014-.307-.165.61-.083.627-.092m5.99-.32c.129-.088.977-.015 1.164.028.034.008-.12.243.264.236.31-.005-.14-.264.45-.207.609.058-.21.208-.155.222.069.018 1.006-.064.975.078-.028.105-1.025.003-1.272.019-.317.02.057.206-.463.153-.335-.033-.14-.337-.21-.355-.059-.014-1.207.132-.751-.173zm-5.04.387a.7.7 0 0 1-.174.011zm-44.46-.882c.328.096-.645.216-1.016.09-.006-.1.964-.105 1.016-.09m45.066.637c.986.09.246.188-.607.245.272-.055.28-.274.607-.245m-27.29-.53c.04.023.065.059.068.118-.105-.066-.114-.1-.067-.119m2.209.138c.76-.167-.787-.187-.773-.057 0 .048.745.063.773.056m18.098.415c-.07-.019 1.046-.537-.564-.166.848.084-.045.122-.038.17.03.138 1.473.04 1.79.105.252-.24-.949-.045-1.186-.109zm22.366.277c-.195.139-.817.078-1.227.058.193-.138.817-.076 1.227-.058m108.506 1.294c-2.791.333-3.202-.222-.613-.177.048.001.779.106.613.177m-24.527 1.395c-.282-.247.628-.312 1.228-.227.137.02.648.26.076.33.007-.309-.88-.399-1.304-.103m-98.806-3.145c.222-.133.819-.076 1.297-.033.1.01.197.02.283.027a.9.9 0 0 1-.284.067c-.408.034-1-.018-1.296-.06m114.068 2.126c-.299.002-.488.239-.434.253.241.067.78-.152.434-.253m-116.88-2.19c-.03-.102 1.108-.183 1.192.069-.254-.021-1.156-.005-1.193-.07m16.856.425c-.176-.056.75-.126 1.03-.068-.028.108-.91.104-1.03.068m95.202 2.185c-.274 0-.946.039-1.018.133-.084.118.903.014 1.018-.133m49.311-2.238c.034.04-.996.355-1.461.293-.881-.12 1.424-.32 1.461-.293m-41.682 1.494c.851.148-.088.014-.039.232.56-.033 1.972-.127.987-.273-.194-.028-.682.036-.948.041m-.779-.016c-.079.078-.678.35-.15.294.239-.026.607-.305.15-.294m36.03-1.236c-.759-.18 2.712-.146 2.816-.115a.4.4 0 0 1 .108.047c.126-.065.782-.09.862.065-.198-.008-.735.018-.797.001a.3.3 0 0 1-.061-.02c-.23.143-2.784.057-2.928.022m-5.751-.097c.862-.305 1.021.185.947.203-.937.218-.33-.156-.358-.173-.068-.027-.734.153-.587-.03zm4.571.039c.035-.007.761-.006.792.001.599.154-1.458.152-.792-.001M76.312 15.5c.524.065 0 .23-.339.155-.027-.007-.117-.212.34-.155m107.244 2.061c-.121-.024-3.204.074-3.006.333.263-.05 3.767-.17 3.006-.332m-23.511.916c.542.008-.049.26-.343.161-.108-.036.206-.162.343-.16m-96.54-3.106c-.568.132-.443-.342.045-.17.02.007-.023.165-.045.17m100.889 3.29c-1.782.136-1.468-.59.654-.416.031.002.126-.002.158 0q.177.008.371.026l-.234.114c2.511.047.827.055-.133.093-.032-.002-.131.003-.164 0a9 9 0 0 0-.364.012c-.266.016-.043.154-.286.172zm-7.21-.227c-1.797-.599 1.639-.186 2.634-.253-.96.231-2.211.183-.513.445-2.485.023-1.447-.198-1.548-.218-.115-.023-.495.052-.573.026m4.766.04c.101-.015.889.11 1.177.092-.4.196-1.869.018-1.177-.091m46.293-2.087c.061-.157.226-.274.841-.227-.188.081-.583.155-.841.227M19.829 14.528c-.424-.011-1.276-.07-1.015.093.028.014 1.015 0 1.015-.093m154.718 3.54c-.093-.012-2.492.11-1.654.236.254.04 2.433-.114 1.654-.237m12.202-.85c-.2.013-.98.1-1 .138-.039.13.919-.01 1-.139m-169.07-2.851c-.053-.016-1.36.011-1.214.087.267.143 1.408-.031 1.214-.087m60.54.825c.108-.003.248.17.286.173.095.005 2.093-.005 1.325.191-.133.034-3.011-.132-3.383-.165-.135-.236 1.086.02 1.384.005.053-.003.095-.195.387-.203zm133.245.975c.083-.149 2.431-.286 2.405-.107zm-1.191-.004c-.5-.096.668-.15 1.016-.11.008.099-.945.124-1.016.11m-27.997.835c-.234.053.509.214.35.267-.104.034-.636-.007-.796.072-.046.025.502.187.658.167.221-.028-.006-.171.236-.19.794-.062 1.51-.002 2.259-.06.067-.006-.458-.08.11-.12.084-.006.645.12 1.319.045 1.478-.63 2.63-.204 4.535-.527-.069-.044-1.526-.07-1.603-.07-1.616.031-4.495.236-6.19.361-.431.032-.213.125-.399.143-.149.014.012-.201-.479-.088m-162.22-2.582c-.202-.203-.917-.075-1.371-.086.158.183.928.04 1.37.086M199.81 16.22c-.229.014-.922-.027-.98.036-.069.081.932.103.98-.036m-110.272-.713c.021-.005.577.014.598.021.495.17-1.17.112-.598-.02m12.802.435c.401.003.812-.03.934.144-.252-.045-.99-.033-.934-.144m17.916 1.728c-.077-.22 1.33.032 1.591.062-.098.095-1.531.104-1.591-.062m87.884-1.958c.768 0 .599-.324 1.087-.184.08.023.345.699-.496.458-.152-.043.438-.215-.591-.274m-42.156 2.557c.198-.147.826-.12 1.253-.122-.094.11-.95.106-1.253.122M15.327 14.202c-.363-.202-2.02-.053-1.61.08.058.018 1.374-.088 1.61-.08m54.463.866c.478-.106-.119-.177-.615-.144a2.3 2.3 0 0 0-.526.078c.085-.004.299.009.525.023.275.02.59.049.616.043m46.049 2.016c.036-.003.743.088.777.1.57.226-1.454-.032-.777-.1M98.214 15.45c.255-.123 1.895.061 2.256.215-.366.166-2.572-.068-2.256-.215M205 15.862a12 12 0 0 1 1.563.06c-.103.112-1.5.021-1.563-.06m-86.526 1.49c.038.005.074.021.11.027zm74.594-1.092c-.463-.012-.353.183-.325.187.357.04.835-.174.325-.187M19.534 14.117c-.161-.182-.927-.042-1.373-.086.13.144 1.013.104 1.373.086m135.721 3.925c-.574-.203 1.771-.407 2.267-.275.034.122-2.182.303-2.267.275m-87.55-3.27c-.05-.144-1.041.016-.831.086.129.044.857.002.832-.087m90.995 3.09c.222-.042.736.103.554.187-.233.108-.612-.176-.554-.188m20.2-.745c-.101-.015-1.392.222-.843.33.379.074.424-.136.512-.142.104-.007 2.202.095.331-.188m-36.771.658c.493-.05 1.079.02 1.59.023-.208.085-1.381.096-1.59-.023m-70.717-2.98c-.138-.068-3.203-.156-1.468.05.096.01 1.814.132 1.468-.05m136.729.916a4 4 0 0 1-.336-.016q.19.006.336.016m-8.646.164c.17-.108-.701-.111-.963-.048-.074.129.939.063.963.048m-55.736 1.778c.295-.056.83.014 1.194.01-.063.096-1.068.09-1.194-.01m-20.864-.313c.636.086 1.406.08 1.419-.038q.018.03.091.06c.051.021.717-.02.997.025 1.775.316-6.804-.115-1.798-.236q-.352.096-.709.19M95.994 15.1c-.317-.152-1.217.01-.986.072.164.04 1.302.08.986-.072m12.352.716c-.097-.035-.991-.017-1.023.056.499.125 1.454.105 1.023-.056m-14.819-.926c-.211-.024-.482.205-.457.215.13.053.404.01.517-.061.056-.037.07-.082.001-.126a.4.4 0 0 0-.06-.028m113.021.227c-.311-.06-1.29.125-1.502.282-.041-.028-.15-.065-.348-.107h.002c-.275-.065-8.181.065-2.871.227.167.005-.063-.127.612-.118.045.001.069.112.208.115.323.004 2.013.04 2.356-.057q.003.03.074.057c.419.153 1.711-.352 1.469-.399m-96.433.85c-.174-.059-.752-.076-.817.017.274.075 1.224.12.817-.017m-38.79-1.58c-.369-.092-1.277.04-1.005.127.16.052 1.423-.023 1.005-.127m33.123 1.118c2.061.287.496.031.825-.087zm111.978-.185c-.34-.027.053-.32.431-.172.119.047-.241.187-.431.172m15.437-.455c-.301-.244 1.133-.141.582.05a7 7 0 0 1-.582-.05m-10.799.174c-.229.177-.38.2-1.032.171.964-.068.065-.202 1.032-.171m-96.756 2.244q.006.01.006.02a.04.04 0 0 1-.006-.02m-32.804-2.372c-.265-.15-1.023-.15-.8.001.02.014.693.106.8 0m113.542.489c.036.025.018.042-.041.059q-.003-.029.041-.06m-109.565-.554c-.03.108 1.068.178 1.112.167.635-.17-.657-.165-1.112-.167m-31.64-.728c-.062.01.325.299.554.192.18-.082-.324-.231-.555-.192m159.44.803c.362-.008.875-.02.971.112-.243-.015-.977-.014-.971-.112m8.017-.222c-.424.171-1.404.2-2.032.192-.016-.206 1.631-.13 2.032-.192m-23.772.477c-.032-.008-.935-.053-.809.083.181.2 1.066-.012.809-.083m-141.917-.88c.406-.09-.521-.396-.96-.177-.227.113.9.193.96.177m23.545.39c-.54.07.787.235.979.093-.25-.015-.79-.119-.98-.094m17.756.62c-1.608-.562-.779.277-.482.235.043-.005.521-.222.482-.235m-95.758-1.94c-.24.058.656.268.766.13.072-.087-.613-.168-.766-.13m121.471 3.855-.21.003a1 1 0 0 1 .21-.003m-48.337-3.19c1.177.617 1.062.159 1.165.163.222.011.744.182 1.163.164l-1.451.17c.377.052 3.692.331 3.763.235.099-.135-.938-.11-.972-.122-.044-.018-.201-.4-.298-.416-.152-.025-2.93-.088-3.37-.194m19.192 1.055c.261.065.321.22.446.194.042-.01.06-.151.205-.177zm-21.338-.575c-.333-.183 1.177-.08 1.226-.06.257.125-.954.21-1.226.06m12.793.197c-.051-.012-1.17-.082-1.163.016.296.075 1.788.123 1.163-.016m9.373.399c.39.047 1.128.254 1.059.032h-.002zM67.009 13.86c-.74-.353-.4.086.27.205.205-.152-.148-.147-.27-.205m-2.418-.29c-.195-.065-2.384-.037-2.054.15.123.067 1.364-.073 1.428-.06.087.02-.314.215.352.186-.038-.069.345-.255.274-.277m1.798.062c-.756-.271-.925.207-.362.217.222.004.471-.178.362-.217m3.052.077a3 3 0 0 0-.253-.037c-.349-.034-.85-.047-1.216.069l1.215.038.733.027c.077-.09-.26-.054-.48-.097m166.332-.398c-.602-.114.771-.218.831-.187.178.104-.562.238-.831.187M6.517 8.992c-.16-.054-.274-.233-.635-.14.368.133.725.265 1.098.397.281-.303-.283-.197-.463-.257m-1.39-1.106c.052-.008-.231-.473.433-.163.446.21-1.992.415-2.44.208.49-.095 1.56.014 2.007-.045M.84 5.87c-.033-.037.904-.092 1.007-.066.57.138-.86.265-1.007.066m2.964.089c-.428-.09.522-.149.82-.097.024.087-.754.11-.82.097m225.73.812c-.479-.303-.882.39-.16.232.034-.007.181-.217.16-.232M1.746 5.401c.436.09-.527.148-.817.096-.024-.087.75-.11.817-.097m227.435.626c-.631-.21-.389.548-.31.577.326.112 1.417-.22 1.641-.302-1.646.164-1.033-.176-1.331-.275m-2.867.537c-.578.096.908.214 1.184-.007-.288.018-1.019-.02-1.184.007m-3.524-.162c-.312-.02-1.243-.066-1.394.057.337-.028 1.267.07 1.394-.057m-.714-.345c-.491-.153-.598.326-.039.172.022-.006.057-.163.039-.172m-2.744-.116c-.324-.183-.679.285-.161.288.154 0 .195-.267.161-.288m9.045-.714c-.458-.068-1.038.278-.062.287l-1.024.18c1.285.15 1.176-.306 1.544-.297.513.012.484.391.384.513.414-.243 2.199-.3 3.229-.38-.91-.066-2.386-.19-3.282-.225-.256-.01-.502.1-.72.094-.349-.01-.043-.167-.067-.172zM215.728 6c-.946-.198-.343.255.189.163.023-.007-.166-.158-.189-.163M.498 3.993c1.257.193.343.45 2.975.06-1.104.276-.06.199-.275.31-.176.088-.823.015-.446.192-.495-.193-2.65-.14-2.743-.17h.003c-.057-.02.084-.454.486-.392m222.261 1.199c-.324-.555-.431.34-1.055-.113-.806.694 2.264-.05 2.65.512-3.351.01 2.225.514-.132-.286 1.933.264.628-.121.923-.237.314-.124 1.405-.025 1.345-.233h-.001q-.999.048-1.996.093c.661.436-.7.333-1.172-.024zm3.779.334c-.068-.009-1.512.09-1.417.179.194.053 2.249-.069 1.417-.18m6.363-.287c-.518.016-1.324-.046-1.602.133.52-.015 1.326.046 1.602-.133m-26.826.55c-.665.153 1.389.156.792.002a14 14 0 0 0-.792-.001m15.177-.48c-.68-.158-.348.382.149.23.028-.01-.118-.223-.149-.23M1.517 3.926c.044-.133 1.875-.04 2.198-.04-.182.124-2.252.194-2.198.04m232.28.78c-1.048-.444-2.43.156-2.584.149s.08-.226.045-.23a42 42 0 0 0-1.784.075c-.056.013.246.3-.086.403.649-.186 3.628-.176 3.781-.216.118-.03-.793-.31.626-.18zm-2.97.097c.411.11-.73.162-1.007.124-.616-.084.955-.137 1.007-.124m-2.745-.035c-.131-.024-1.309-.018-1.404.123.559.165 1.702-.066 1.404-.123m-13.108.301c-.304.023-1.154-.068-1.198.053.305-.023 1.154.069 1.198-.053M7.749 2.874c-.506-.101.678-.142 1.015-.094.02.08-.976.102-1.015.094m213.365 1.284c-.184-.032-3.876.131-4.396.196.511.083 4.173.02 4.34-.03.048-.014.079-.16.056-.166m7.975-.25c.334-.188.558.019.601.02.418.015 1.284-.052 1.099.125-.74-.045-2.363.227-1.7-.145m-14.391.362c-1.26.088 1.16.233.84.053a9 9 0 0 0-.84-.053m6.827-.172c.274-.148 3.97-.108 4.559-.125-.524.278-.956.088-1.669.118-.192.008-.138.117-.159.118-.332.013-.086-.12-.291-.117-.131.003-2.825.217-2.44.006m7.753-.319c.203-.107 2.5-.22 2.593-.198.699.18-2.414.23-2.593.198m-8.096.09c.387-.315 2.23-.15.976.032-.12.016-.631-.106-.976-.031m-6.356.106c-.061-.008-1.376-.047-1.395.051.187.035 2.101.036 1.395-.051m.673-.343c-.032.003.279.186-.336.173-.052-.002-.146-.212-.922-.12-.157.018-.397.162-.379.17.814.32 3.223-.36 1.637-.223m13.817-.026c-.127-.086.164-.36.437-.234.117.055-.094.221-.437.234m-18.653.354c.762-.174-1.638-.164-1.76-.12.079.099 1.683.137 1.76.12M8.943 1.63c.644.036.244.17.276.174 1.373.197 1-.106 1.217-.142.468-.078.38.292 1.162.139-1.284.226-.118.131-.08.262.14.537-1.702-.251-2.34-.139-.09.016.563.187.336.236-.74.157-3.037-.67-.57-.53M229.96 3.343c.291-.166 2.535-.084 1.946.064-.095.025-2.373.179-1.946-.064m-105.155 2.11c.511-.123-.659-.312-.87-.215-.109.05.645.271.87.216m-8.228-1.274c-.639-.04-1.394.452-.573.45.092 0 .636-.364.573-.45m41.695 1.286c-.673-.21-.635.168-.141.168.175 0 .162-.161.141-.168m-25.764-.208c-.067-.013-.853.009-.823.096.289.052 1.263-.004.823-.096m25.979.157c-.398.064.278.344.774.081-.25.02-.733-.088-.774-.081m61.292-2.35c-.333.161-1.272.133-1.816.17-.061-.2 1.427-.126 1.816-.17M119.288 4.698c-.628.075.673.331.568.132a7 7 0 0 0-.568-.132m60.157-.004c-.433.152.98.21.579.028a7 7 0 0 0-.579-.028m6.136-.385c-.336-.016-1.774.104-1.206.179.089.011 1.189-.068 1.206-.179M10.473 1.517c-.18-.206.87-.157 1.025-.12.055.014-.779.389-1.025.12m143.428 3.871c-.349.022-1.251-.036-1.412.07.427-.018 1.524.147 1.412-.07m-32.028-.429c-.438-.256-1.194-.315-1.038-.004.85.064-.084-.265 1.038.004m38.855.235c-.281-.02-.492.26-.462.273.297.128.741-.162.462-.273m-20.973.009c-.018-.12-.909-.075-.793.003.04.027.803.094.793-.003m68.3-2c-.414-.103.842-.232 1.215-.11.183.181-1.161.121-1.215.11m-39.881 2.006c.034-.179-1.314-.033-.777.097.135.033.765-.037.777-.097m13.113-1.016c-.92.282 3.021.14 1.969-.047-.071-.014-1.888.023-1.969.047m6.444-.343c-.163-.012-.131-.615.566-.434.091.023-.315.211-.239.242.052.017 1.508-.004 1.581-.023.07-.02-.028-.206.043-.233.075-.03.999.074 1.463.043.884-.059.983-.226 1.05-.23.209-.016.57.072 1.005.042.907-.063 2.005-.161 3.127-.238.044-.006.176-.007.219-.011 1.569-.059 3.129-.064 4.146.108-1.402-.088-2.744.057-4.136.16-.042.003-.169.004-.211.01q-.216.023-.432.043c.42-.363-2.216.407-.677-.083-.719.128-6.971.634-7.503.603zm-73.684-.105c.419-.163-1.635-.327-1.827-.108.262.06 1.772.125 1.827.108m9.011.394c.169-.027.33-.415 1.211-.183h.002c.259.067-.041.156.005.192.015.015.837.236.15.25-1.037.015-.091-.3-.636-.324-.071 0-1.087.167-1.028.215.005.006.307-.023.357 0 .185.083.087.203.114.21.078.025 1.733-.134 1.988.052.056.072-2.653.115-2.723.063-.063-.024-.013-.368-.076-.406-.036-.017-1.055.033-1.179-.014a1 1 0 0 1-.084-.036c.067.059-.109.067-.304.044-.256-.03-.534-.092-.51-.152.015-.028.295.001.523.031.12.017.221.033.229.037l.025.015c-.125-.131 2.006.033 1.56-.197.637-.07-.108.281.376.203m3.242-.124-.219.106c1.226-.073 2.698.104 4.186.104.375 0-.059-.223.437-.161.399.05.838.257.621.303-.054.011-.861-.125-1.266-.112-1.191.04-.885.231-.956.236-.08.006-.819-.13-1.222-.126-1.003.01-1.473.127-2.785-.05.762-.113.347-.393 1.204-.3m47.58.367c.039-.123.872-.068 1.17-.106-.039.124-.873.07-1.17.106M48.779.884c-.267.189 1.691.298 1.18.118-.112-.04-.935-.11-1.18-.118m8.72.395c.26-.047-.777-.22-.777-.067-.003.049.744.073.776.067m85.485 3.043c.048-.005.768.047.788.057.472.215-1.882.068-.788-.057M67.997 1.244c-.902.12 1.798.205.973.031a23 23 0 0 0-.973-.031m3.905.03c-.217.001-1.219-.087-1.232-.027-.022.096 1.12.19 1.232.028m89.022 3.175c-.101-.223 1.162-.044 1.606-.068.102.223-1.169.044-1.606.068m-8.02-.244c5.364-.12 4.174.344-.321.105-.005-.143-.017-.098.321-.105m6.859.096c-.19.14-.807.093-1.211.077.071-.098.921-.054 1.211-.077M46.441.513c.346-.172 1.852.092 1.58.159-.061.014-1.712-.064-1.58-.159m96.995 3.624c-.12-.218 1.489-.112 1.612-.063.495.2-1.48.016-1.612.063m24.751.064c.268-.18 1.047-.123 1.547-.143-.221.155-1.122.13-1.547.143m-3.415-.045c.016-.003.185 0 .358.004l-.199.002c.193 0 .394.002.41.005.287.077-.062.116-.407.115l.195-.001c-.342-.01-.691-.058-.357-.125M8.052 0c.025-.005.575.006.592.012.49.163-1.158.13-.592-.012"/></svg>