<svg xmlns="http://www.w3.org/2000/svg" width="100" height="94" fill="none" viewBox="0 0 100 94"><path fill="#3baf75" fill-rule="evenodd" d="M38.606 11.42c2.502-2.502 5.982-3.606 9.894-3.606s7.392 1.104 9.894 3.606C60.89 13.922 62 17.402 62 21.314s-1.11 7.386-3.6 9.888c-2.502 2.502-5.982 3.612-9.894 3.612s-7.392-1.11-9.894-3.612c-2.496-2.496-3.606-5.976-3.606-9.888s1.11-7.392 3.606-9.894m9.9 35.928c-3.042-2.88-6.918-5.898-11.076-7.476-2.34-.888-4.836-1.344-7.344-1.014-2.526.336-4.974 1.464-7.206 3.588-3.768 3.576-4.716 8.07-3.882 12.648.822 4.512 3.372 9.132 6.624 13.296a58.2 58.2 0 0 0 11.328 10.92c3.966 2.88 8.028 4.98 11.31 5.52q.24.033.48 0c3.282-.54 7.35-2.64 11.31-5.52A58.2 58.2 0 0 0 71.39 68.39c3.252-4.164 5.796-8.784 6.618-13.296.84-4.578-.108-9.072-3.876-12.648-2.238-2.124-4.68-3.252-7.212-3.588-2.502-.33-4.998.12-7.344 1.02-4.152 1.572-8.028 4.59-11.064 7.47" clip-rule="evenodd"/></svg>