<svg xmlns="http://www.w3.org/2000/svg" width="100" height="94" fill="none" viewBox="0 0 100 94"><path fill="#3baf75" d="M12.52 39.825a8.574 8.574 0 1 0 17.148 0 8.574 8.574 0 0 0-17.148 0m54.81 0a8.575 8.575 0 1 0 17.15 0 8.575 8.575 0 0 0-17.15 0M46.75 20.75a3.5 3.5 0 0 1-3.5-3.5v-7a3.5 3.5 0 0 1 7 0v7a3.5 3.5 0 0 1-3.5 3.5m20.545-5.67a3.5 3.5 0 0 0-4.935 0l-4.97 4.935a3.5 3.5 0 0 0 0 4.97 3.5 3.5 0 0 0 4.97 0l4.935-4.97a3.5 3.5 0 0 0 0-4.935M33.625 26A3.5 3.5 0 0 1 31 24.985l-4.795-4.97A3.5 3.5 0 0 1 31 15.08l5.11 4.935A3.5 3.5 0 0 1 33.625 26"/><path fill="#3baf75" d="M63.9 87.25V63.695A22.23 22.23 0 0 1 45 48.575l-2.94-8.855A5.11 5.11 0 0 1 46.015 33a5.285 5.285 0 0 1 5.74 3.71l2.87 8.575A11.935 11.935 0 0 0 66 53.51h15.05a7 7 0 0 1 7 7v26.74zM39.89 50.22v-.455A11.9 11.9 0 0 1 31 53.51H15.985a7 7 0 0 0-7 7v26.74H33.1V63.695a22.3 22.3 0 0 0 11.655-4.655 27.3 27.3 0 0 1-4.865-8.82"/></svg>