<svg xmlns="http://www.w3.org/2000/svg" width="100" height="94" fill="none" viewBox="0 0 100 94"><path fill="#3baf75" fill-rule="evenodd" d="M18.775 23.799A38.43 38.43 0 0 1 49.5 8.5c12.555 0 23.702 6.013 30.727 15.299l4.242 5.61H14.532zM14.529 64.59h69.94l-4.241 5.61a38.43 38.43 0 0 1-30.73 15.3 38.43 38.43 0 0 1-30.723-15.299zm.721-29.029h-2.625v22.873h5.25v-9.541h7.654v-5.25h-7.654v-2.832H27v-5.25zm36.782 0h14.37v5.25h-9.117v2.828h7.654v5.25h-7.654v4.294h9.121v5.25H52.035zm18.844 0H85.25v5.25h-9.124v2.828h7.654v5.25h-7.654v4.294h9.124v5.25H70.876zm-36.779 0h-2.625v22.873h5.25v-7.34h3.287l3.752 5.813 1.424 2.206 4.41-2.846-1.424-2.205-2.345-3.633a5.2 5.2 0 0 0 2.642-4.529v-5.138a5.195 5.195 0 0 0-5.193-5.197zm9.121 10.283h-6.496v-5.033h6.496z" clip-rule="evenodd"/></svg>