<svg width="39" height="38" viewBox="0 0 39 38" fill="none" xmlns="http://www.w3.org/2000/svg">
<path d="M31.7658 28.1255L31.3225 21.1048L33.4372 19.3884C33.9456 18.9757 34.2639 18.3862 34.3219 17.7496C34.38 17.1131 34.1732 16.4816 33.7468 15.9941L32.3984 14.453C32.0056 14.004 31.4549 13.7097 30.8503 13.6258L30.8047 12.9048C30.7913 12.6924 30.6907 12.4942 30.5251 12.3539L24.3441 7.11417C24.1785 6.97379 23.9615 6.90272 23.7408 6.91662L12.9194 7.59989C12.2571 7.64171 11.6379 7.93502 11.198 8.41529C10.7581 8.89556 10.5336 9.52345 10.5739 10.1608L11.7878 29.387C11.8281 30.0243 12.1298 30.619 12.6265 31.0401C13.1233 31.4613 13.7745 31.6744 14.4368 31.6325L29.4203 30.6865C30.0826 30.6447 30.7018 30.3514 31.1417 29.8711C31.5815 29.3908 31.806 28.7629 31.7658 28.1255ZM13.4527 29.2818L12.2387 10.0557C12.2253 9.84325 12.3001 9.63396 12.4467 9.47387C12.5934 9.31378 12.7998 9.21601 13.0205 9.20207L23.0095 8.57135L23.2881 12.9829C23.3298 13.6438 23.9205 14.1438 24.6064 14.1005L29.1905 13.8111L29.1991 13.9472C29.0862 14.0123 28.9778 14.0869 28.8739 14.1713L26.795 15.8588C26.7643 15.7776 26.7072 15.7083 26.632 15.6612C26.5569 15.614 26.4679 15.5916 26.3782 15.5972L15.5568 16.2805C15.4464 16.2874 15.3432 16.3363 15.2699 16.4164C15.1966 16.4964 15.1592 16.6011 15.1659 16.7073C15.1726 16.8135 15.2229 16.9126 15.3057 16.9828C15.3885 17.053 15.497 17.0885 15.6074 17.0816L26.105 16.4187L23.9561 18.163L15.7085 18.6837C15.5982 18.6907 15.495 18.7396 15.4216 18.8196C15.3483 18.8997 15.3109 19.0043 15.3176 19.1106C15.3243 19.2168 15.3746 19.3159 15.4574 19.3861C15.5402 19.4563 15.6487 19.4918 15.7591 19.4848L22.8821 19.0351L20.7332 20.7793L15.8603 21.087C15.7499 21.094 15.6467 21.1429 15.5734 21.2229C15.5001 21.3029 15.4627 21.4076 15.4694 21.5138C15.4761 21.6201 15.5264 21.7192 15.6092 21.7894C15.692 21.8595 15.8005 21.8951 15.9109 21.8881L19.6592 21.6514L17.5549 23.3591L17.5137 23.3954L16.012 23.4903C15.9016 23.4972 15.7984 23.5461 15.7251 23.6262C15.6518 23.7062 15.6144 23.8109 15.6211 23.9171C15.6278 24.0233 15.6781 24.1224 15.7609 24.1926C15.8437 24.2628 15.9522 24.2983 16.0626 24.2914L17.1722 24.2213L16.2156 28.065C16.1852 28.1872 16.1849 28.3143 16.2148 28.4363C16.2446 28.5583 16.3038 28.6717 16.3875 28.7674C16.4712 28.8632 16.5772 28.9386 16.6969 28.9876C16.8166 29.0367 16.9467 29.058 17.0768 29.0498L21.632 28.7654C21.8106 28.7544 21.981 28.6883 22.1182 28.5771L29.7325 22.3955L30.101 28.2307C30.1144 28.4431 30.0395 28.6524 29.8929 28.8125C29.7463 28.9726 29.5399 29.0704 29.3191 29.0843L14.3356 30.0304C14.1149 30.0443 13.8978 29.9733 13.7322 29.8329C13.5666 29.6925 13.4661 29.4943 13.4527 29.2818ZM24.5558 13.2994C24.5019 13.3028 24.4479 13.296 24.3968 13.2793C24.3458 13.2626 24.2987 13.2363 24.2583 13.2021C24.2179 13.1678 24.1849 13.1262 24.1613 13.0796C24.1376 13.0329 24.1237 12.9823 24.1205 12.9304L23.8629 8.85044L28.7953 13.0317L24.5558 13.2994ZM29.7943 20.2506L27.3788 17.4804L28.3089 16.7251L30.7284 19.4919L29.7943 20.2506ZM19.4424 23.9227L26.7396 17.9993L29.1543 20.7696L21.9342 26.6302L19.4424 23.9227ZM18.8248 24.4644L21.2943 27.15L21.2569 27.1805L19.0809 27.3163L18.3296 26.4565L18.8248 24.4644Z" fill="#3BAF75"/>
</svg>
