<svg width="30" height="30" viewBox="0 0 30 30" fill="none" xmlns="http://www.w3.org/2000/svg">
<path d="M15.0063 27.5037C8.1026 27.5037 2.50635 21.9075 2.50635 15.0037C2.50635 8.09997 8.1026 2.50372 15.0063 2.50372C21.9101 2.50372 27.5064 8.09997 27.5064 15.0037C27.5064 21.9075 21.9101 27.5037 15.0063 27.5037ZM16.2564 16.2537V15.0037H20.0063V12.5037H16.7738L19.4251 9.84997L17.6576 8.08247L15.0063 10.735L12.3551 8.08247L10.5863 9.84997L13.2388 12.5025H10.0063V15.0025H13.7563V16.2525H10.0063V18.7525H13.7563V21.2525H16.2564V18.7525H20.0063V16.2525L16.2564 16.2537Z" fill="#3BAF75"/>
</svg>
