<svg width="20" height="20" viewBox="0 0 20 20" fill="none" xmlns="http://www.w3.org/2000/svg">
<path d="M8.40268 13.9218L4.54541 10.0636L5.83086 8.77812L8.40268 11.349L13.5445 6.2063L14.8309 7.49266L8.40268 13.9218Z" fill="#3BAF75"/>
<path fill-rule="evenodd" clip-rule="evenodd" d="M0 3.63636C0 2.67194 0.383116 1.74702 1.06507 1.06507C1.74702 0.383116 2.67194 0 3.63636 0H16.3636C17.3281 0 18.253 0.383116 18.9349 1.06507C19.6169 1.74702 20 2.67194 20 3.63636V16.3636C20 17.3281 19.6169 18.253 18.9349 18.9349C18.253 19.6169 17.3281 20 16.3636 20H3.63636C2.67194 20 1.74702 19.6169 1.06507 18.9349C0.383116 18.253 0 17.3281 0 16.3636V3.63636ZM3.63636 1.81818H16.3636C16.8458 1.81818 17.3083 2.00974 17.6493 2.35071C17.9903 2.69169 18.1818 3.15415 18.1818 3.63636V16.3636C18.1818 16.8458 17.9903 17.3083 17.6493 17.6493C17.3083 17.9903 16.8458 18.1818 16.3636 18.1818H3.63636C3.15415 18.1818 2.69169 17.9903 2.35071 17.6493C2.00974 17.3083 1.81818 16.8458 1.81818 16.3636V3.63636C1.81818 3.15415 2.00974 2.69169 2.35071 2.35071C2.69169 2.00974 3.15415 1.81818 3.63636 1.81818Z" fill="#3BAF75"/>
</svg>
