<svg width="237" height="19" viewBox="0 0 237 19" fill="none" xmlns="http://www.w3.org/2000/svg">
<path d="M18.3329 15.9011C18.4824 15.8809 19.0666 15.931 19.3236 15.9227C19.0335 16.1373 17.8037 15.9743 18.3329 15.9011ZM44.7077 0.463581C44.4932 0.512084 44.2764 0.560683 44.0573 0.609384C44.6734 0.656324 45.4917 0.635786 46.0585 0.700258C46.1516 0.711017 45.9058 0.858901 46.1263 0.871191C46.3461 0.883475 46.3097 0.672176 46.627 0.657769C46.9898 0.641826 48.6189 0.833667 49.184 0.847768C51.2996 0.897222 53.4152 0.85077 55.4902 1.00317C53.3359 1.09015 55.4979 1.31803 56.1 1.2687C56.2335 1.25659 56.2231 0.867876 58.3703 1.02662C59.7251 1.12494 58.4581 1.6528 60.7358 1.4282C58.9994 0.994906 60.7165 1.06601 62.0869 1.08147C62.3202 1.08476 64.2343 1.18054 65.0715 1.17572C65.3626 1.17438 65.8068 0.976401 66.1861 0.976439C66.4467 0.976611 66.6596 1.09156 67.0421 1.09088C67.8346 1.09025 68.6151 1.09131 69.4201 1.09704C70.5641 1.10656 71.6025 1.14199 72.6714 1.19287C71.553 1.68806 73.5314 1.44137 73.6064 1.46938C74.045 1.62488 72.0399 1.60787 72.8281 1.71983C73.9419 1.73528 75.0446 1.75296 76.1439 1.76974C75.2433 1.67794 77.3556 1.36299 77.7306 1.54604C77.5774 1.07857 82.7026 2.09108 83.4913 1.95073C83.6537 1.92136 82.5957 1.66814 85.0655 1.82936C85.3339 1.84692 85.2293 1.98495 85.3711 1.97494C85.4608 1.96902 85.9687 1.534 86.5134 1.7914C86.7113 1.88475 85.4319 2.15442 88.2214 2.08906C87.1226 1.61756 92.0883 1.90784 92.9985 2.0272C92.8183 1.96417 92.6357 1.90104 92.4527 1.83784C93.355 2.01315 93.5178 1.86013 93.7232 1.87078C93.7703 1.8732 93.8184 1.87601 93.8675 1.87918C94.7129 1.93129 95.811 2.08844 96.5739 2.09522C97.5202 2.10479 97.5332 1.82188 98.6358 1.97275C98.3755 1.9003 98.1152 1.82854 97.8546 1.75744C98.6186 1.79821 99.3841 1.84479 100.147 1.89706C98.3604 2.18826 100.528 1.9313 100.67 1.93324C100.897 1.93157 100.564 2.06705 100.943 2.0682C100.982 2.06735 100.934 1.91971 101.516 1.93654C102.731 1.97507 102.528 2.14631 103.035 2.17704C103.08 2.17948 102.931 2.03793 103.805 2.06826C106.583 2.1765 103.787 2.16431 103.676 2.17683C103.532 2.19248 104.454 2.79206 102.102 2.4476C102.895 2.55821 102.954 2.80418 103.044 2.81585C103.126 2.82494 104.491 2.88833 104.567 2.88701C105.244 2.85667 104.668 2.64839 104.8 2.62901C104.906 2.61184 106.53 2.9566 106.951 2.49918C107.695 3.0207 106.469 2.86904 105.149 2.83639C104.95 2.91368 106.386 3.11996 106.459 3.12699C108.307 3.28427 107.315 2.82431 107.741 2.62105C107.972 2.51561 108.689 2.83671 108.031 2.44063C109.71 2.55739 108.675 2.6589 108.781 2.69722C108.938 2.75398 109.53 2.71261 109.604 2.7326C109.71 2.76164 109.325 2.84202 109.744 2.92271C109.812 2.9351 110.508 2.80041 109.645 2.62253C110.81 2.76171 110.732 2.58401 111.093 2.96428C111.967 2.39711 111.636 3.40384 111.95 3.4716C112.787 3.6518 112.585 3.11902 112.634 3.09886C112.958 2.97023 115.254 3.38299 115.83 3.37039C115.575 3.71288 113.997 3.18324 113.631 3.21791C112.416 3.33165 115.3 3.57443 114.386 3.94459C114.757 3.85546 115.144 3.76827 115.518 3.67988C116.149 4.04479 115.196 4.07421 116.997 4.15553C117.317 3.93153 115.727 4.06199 116.06 3.8942C116.266 3.79661 117.295 3.88004 117.328 3.82082C117.354 3.74784 116.408 3.73723 116.568 3.63799C116.914 3.42276 120.325 4.02642 117.696 3.8826C118.419 3.95534 118.745 4.48952 119.39 4.40318C119.808 4.34733 117.586 3.41837 121.016 3.91442C121.056 4.1544 119.643 3.83592 119.594 3.84863C119.537 3.86869 119.746 4.42309 119.789 4.45403C119.844 4.49139 120.338 4.52671 121.003 4.5762C121.948 4.64534 123.324 4.66789 123.746 4.85146C123.476 4.54467 126.182 4.86847 126.518 4.76934C126.599 4.74454 126.297 4.55388 126.384 4.53504C126.924 4.42476 128.432 4.76619 129.146 4.77564C129.941 4.78699 129.845 4.62493 129.889 4.62534C130.238 4.63489 129.959 4.74411 130.173 4.74412C130.495 4.74375 132.751 4.77048 132.863 4.74864C132.897 4.74163 132.525 4.55564 133.023 4.52225C133.107 4.51676 133.052 4.73432 134.514 4.64741C136.277 4.54431 133.29 4.36804 134.024 4.14301C135.153 4.47557 135.125 4.15251 135.427 4.17992C135.515 4.18824 136.067 4.38199 136.751 4.44397C136.888 4.45683 137.031 4.46392 137.178 4.46236C137.034 4.47145 136.892 4.48056 136.75 4.48969C136.271 4.51921 135.803 4.54946 135.331 4.58027C135.688 4.61129 136.242 4.60655 136.749 4.61046C137.086 4.613 137.405 4.61934 137.608 4.64367C137.847 4.6726 137.645 4.89662 138.17 4.89582C138.284 4.89448 138.726 4.34805 137.353 4.58147C137.247 4.38374 137.895 4.51825 138.201 4.46574C138.247 4.45755 138.432 4.13086 138.815 4.33898C138.906 4.39024 137.89 5.33784 140.501 4.67158C140.584 4.65011 140.295 4.52701 140.377 4.503C140.431 4.48671 141.102 4.54241 141.172 4.52614C141.247 4.50867 140.929 4.37423 141.018 4.3494C141.476 4.22142 142.072 4.74756 141.129 4.69784C141.442 4.76541 141.761 4.83308 142.075 4.90072C141.743 4.50543 142.571 4.79586 143.011 4.7886C145.813 4.74218 143.94 4.46692 144.423 4.34041C145.203 4.13737 144.599 4.80101 145.754 4.61235C145.86 4.59469 144.474 4.29482 147.186 4.48537C146.786 4.49203 146.384 4.49866 145.984 4.50533C146.21 4.88668 147.431 4.49535 147.524 4.49107C148.59 4.45084 147.869 4.57946 149.453 4.40185C149.595 4.3859 149.902 4.48278 150.204 4.43947C151.459 4.26111 148.553 4.3047 148.475 4.15042C148.438 4.0749 151.563 4.12821 151.669 4.16498C152.122 4.32812 150.252 4.21917 150.607 4.41943C150.737 4.49076 155.19 4.39571 156.081 4.48097C157.111 4.58052 157.567 5.09867 157.581 4.52167C157.867 5.09106 158.125 4.70709 158.256 4.71228C159.847 4.78023 159.853 4.78599 161.217 4.74401C161.518 4.73489 161.767 4.90891 161.876 4.88082C161.939 4.86382 161.825 4.67892 162.129 4.62473C162.554 4.55122 165.073 4.75894 165.263 4.86103C165.453 4.964 164.197 4.89831 164.422 5.0669C164.738 5.07512 165.074 5.07585 165.382 5.07414L165.206 5.07534C165.765 5.05815 166.316 5.03206 166.884 5.02732C167.254 5.0245 167.067 5.14691 167.227 5.14452C167.294 5.14501 168.563 4.99886 168.507 4.95682C168.378 4.8711 164.454 5.03771 165.483 4.80642C165.682 4.76306 166.392 5.01558 166.272 4.69041C169.775 4.67897 173.284 4.55643 176.872 4.38279C174.83 4.76956 172.524 4.69364 170.41 4.81389C170.12 4.83092 169.139 4.84049 169.265 5.00086C171.065 4.97223 173.304 4.76073 175.064 4.75439C175.12 4.75436 174.925 4.91615 175.135 4.92622C175.53 4.94544 176.798 4.61925 177.016 4.66597C177.054 4.67802 176.339 4.92362 176.569 5.03292C177.157 5.31363 177.262 4.59552 177.748 4.5698C178.131 4.55077 180.714 4.70674 181.345 4.44214C182.009 4.16171 179.439 4.44823 179.616 4.24558C181.344 3.92943 183.126 3.99868 184.782 3.85204C184.811 3.84925 184.546 3.72066 184.916 3.67243C185.562 3.58838 185.737 3.7858 186.058 3.7958C186.399 3.80631 187.6 3.688 187.758 3.75326C187.779 3.7618 187.554 3.98689 187.519 3.99536C186.998 4.11947 186.795 3.86361 186.747 3.86363C186.568 3.86654 186.407 3.98215 186.241 3.98823C185.97 3.99795 185.814 3.91346 185.463 3.93098C185.222 3.94267 185.468 4.10876 185.235 4.11754C185.144 4.12042 184.186 3.77076 184.134 4.20425C184.113 4.33861 191.727 3.95581 192.492 3.79969C191.823 3.79467 191.183 3.78804 190.516 3.78384C191.854 3.8141 193.419 3.36307 193.573 3.8603C194.604 3.79816 195.63 3.73767 196.676 3.67723C196.716 3.67192 196.835 3.67127 196.875 3.6672C200.831 3.56448 204.725 3.52678 208.616 3.49028C209.494 3.51816 209.018 3.8518 210.46 3.73243C210.088 3.63506 209.71 3.53784 209.335 3.44061C210.08 3.50032 213.352 3.5873 213.883 3.51095C213.951 3.50096 214.038 3.20495 214.857 3.16547C215.581 3.13055 215.7 3.34914 216.09 3.38453C216.417 3.41361 216.778 3.3493 216.875 3.35973C216.949 3.36814 216.981 3.50255 217.16 3.52284C217.724 3.58531 217.263 3.21373 217.827 3.63975C217.692 3.65888 217.557 3.67798 217.421 3.69711C218.099 3.7479 219.03 3.92843 218.032 4.04486C217.861 4.06491 218.006 3.93165 217.878 3.93424C212.858 4.04849 216.872 4.2317 218.627 3.99557C219.082 4.18102 221.608 4.01233 221.693 4.04815C221.811 4.1009 221.383 4.26455 221.951 4.38612C222.072 4.413 225.446 4.22802 224.237 4.51274C223.986 4.5719 222.366 4.55206 221.975 4.56759C222.906 4.95863 225.042 4.32181 225.285 4.33051C226.265 4.37091 223.416 4.7307 225.62 4.72551C227.31 4.72015 225.717 4.48594 226.364 4.35288C226.729 4.27866 228.649 4.529 228.585 4.13959C229.24 4.07963 228.862 4.29703 228.943 4.30965C229.023 4.32071 230.309 4.16664 230.73 4.23588C230.781 4.24457 230.627 4.45235 230.68 4.46735C230.784 4.49292 232.025 4.4135 232.075 4.39442C232.106 4.38146 231.804 4.21332 231.925 4.16633C232.066 4.11236 233.262 4.11464 233.326 4.06136C233.416 3.98177 231.943 4.08111 232.182 3.87424C232.864 3.90247 233.968 3.73184 234.41 3.55576C234.301 3.60549 233.643 3.63515 233.414 3.62677C233.512 3.33252 234.925 3.28636 234.45 3.53376C234.753 3.39909 234.541 3.34102 234.71 3.21808C234.754 3.18692 235.191 3.16485 235.273 3.11133C235.283 3.10091 234.829 3.00771 234.917 2.94531C235.077 2.83291 236.398 2.80693 236.508 2.83032C236.816 2.89788 235.741 3.03576 235.656 3.16159C235.644 3.18109 236.57 3.38627 236.585 3.40678C236.648 3.6327 235.62 3.50778 235.745 3.70834C235.999 3.74212 236.253 3.77575 236.508 3.8092C235.541 4.05576 233.734 4.01304 233.275 4.26469C234.72 4.14566 236.232 4.09558 236.25 4.62773C236.258 4.85195 235.638 5.00709 235.665 5.0631C235.764 5.26369 236.623 5.00882 236.656 5.01818C236.683 5.02957 236.695 5.0412 236.696 5.05297C236.696 5.05297 236.696 5.05298 236.696 5.05299C236.7 5.17266 235.467 5.30596 235.407 5.36245C235.307 5.46318 235.872 5.84114 235.875 5.92926C235.856 5.94784 234.978 6.07487 235.282 6.21767C235.588 6.36211 236.36 6.33607 236.388 6.35106C236.539 6.4386 235.192 6.5745 235.153 6.63054C235.133 6.65916 235.865 6.8027 235.888 6.85081C235.908 6.89937 235.361 7.02738 235.149 7.19058C234.99 7.31191 235.467 7.38296 235.384 7.40409C235.325 7.41861 234.046 7.46254 233.985 7.48469C233.892 7.51795 234.196 7.64538 234.154 7.68137C234.094 7.73315 233.679 7.6977 233.734 7.74684C233.777 7.78392 235.394 8.20202 235.389 8.32885C235.379 8.54636 233.662 8.10939 235.274 8.90667C235.285 8.9119 235.668 8.83692 235.679 8.84176C235.922 8.99004 234.698 9.2782 236.204 9.17916C233.407 9.55655 235.867 9.51802 235.465 9.89797C235.31 10.0443 234.222 10.1411 234.218 10.1621C234.33 10.3362 234.672 10.186 234.793 10.269C234.86 10.3155 233.892 10.5378 234.116 10.6521C234.231 10.7113 235.266 10.6518 235.309 10.6623C235.724 10.7629 235.225 10.9061 235.318 10.9849C235.381 11.0379 236.006 11.019 236.022 11.0282C236.05 11.048 235.209 11.3023 235.034 11.3868C234.902 11.4519 235.411 11.5279 235.318 11.5576C234.757 11.7355 233.54 11.377 234.719 11.8973C234.791 11.9292 235.23 11.8994 235.243 11.9058C235.52 12.055 234.712 12.0982 234.572 12.2334C234.332 12.4666 235.49 12.3 234.529 12.4923C235.259 12.6132 235.664 12.5924 236.511 12.5189C234.165 12.7216 233.354 13.3304 235.966 13.2209C235.135 13.2429 235.238 13.567 234.991 13.5818C234.836 13.5908 233.62 13.3068 234.198 14.019C234.271 14.108 234.999 13.9659 234.776 14.1611C233.016 14.175 234.743 14.2816 234.746 14.306C234.739 14.7406 230.427 14.5283 229.692 14.5951C228.838 14.6767 228.086 15.0364 227.9 15.0418C227.288 15.0581 227.791 14.8723 227.653 14.8125C227.514 14.7537 225.781 15.1279 225.694 15.1115C225.354 15.0468 225.692 14.8342 225.657 14.8247C225.234 14.7103 222.907 14.9234 222.25 14.8891C222.272 15.0214 223.588 15.0034 222.771 15.2341C221.821 15.5028 221.757 14.9193 221.731 14.8941C217.36 14.9908 213.001 15.0642 208.658 15.1456C208.721 15.4552 211.553 15.1723 211.622 15.2122C212.002 15.4478 207.205 15.5256 206.618 15.428C207.064 15.4868 207.512 15.5459 207.961 15.605C207.201 15.976 205.509 15.5428 204.415 15.7233C204.059 15.7818 204.745 15.9057 204.73 15.9155C204.338 16.0622 203.689 15.9689 204.166 15.7724C203.197 15.9715 203.333 15.7715 202.588 15.7734C202.55 15.7737 202.87 15.9106 202.286 15.9839C202.005 16.0178 200.535 16.0548 200.345 16.1866C200.265 16.2418 201.022 16.7816 201.104 16.2981C202.708 16.4936 201.609 16.0662 202.234 16.0624C202.332 16.0629 202.11 16.3356 203.68 16.175C203.395 16.6652 201.573 16.3444 201.273 16.4113C200.639 16.547 203.268 16.7343 203.745 16.3477C203.528 16.7307 203.931 16.3946 204.523 16.3981C205.163 16.402 204.887 16.5202 205.235 16.5139C206.192 16.4981 205.785 16.2389 206.58 16.4647C205.796 15.734 207.931 16.3413 208.546 16.526C207.547 16.5814 206.537 16.6376 205.542 16.6948C205.601 16.7328 205.657 16.7708 205.715 16.8088C205.453 16.8083 205.185 16.808 204.923 16.8077C204.964 16.7694 205.005 16.7311 205.047 16.6928C203.693 16.9637 203.363 16.6977 203.249 16.6969C201.825 16.6961 200.185 16.739 198.76 16.7817C198.556 16.7882 198.686 17.0056 197.335 16.903L197.549 16.8922C197.486 16.8897 197.421 16.8867 197.352 16.883C196.841 16.856 197.305 16.635 196.736 16.7014C196.063 17.2631 196.05 16.8521 195.835 16.8659C195.221 16.9074 194.867 17.0598 194.811 17.0649C194.054 17.1366 192.953 17.1918 192.138 17.2685C192.122 17.2716 192.56 17.3994 192.023 17.3904C191.825 17.3875 190.101 16.8322 188.635 17.1605C189.016 17.1784 189.414 17.1952 189.797 17.2133C189.336 17.1819 186.187 17.5846 186.973 17.7083C187.46 17.7831 188.59 17.2633 188.741 17.6725C187.687 17.6221 181.858 18.2459 181.391 18.1814C181.327 18.1722 181.704 18.0081 181.616 17.9971C181.549 17.9889 180.207 18.1194 180.022 18.0801C179.914 18.0569 180.503 17.9306 180.451 17.8853C180.411 17.8536 178.715 17.9168 178.632 18.093C179.043 17.9958 180.208 17.9718 179.61 18.1589C179.533 18.1823 179.119 18.1016 179.024 18.131C178.154 18.4024 180.793 18.1638 181.203 18.1344C179.559 18.4731 176.974 18.4012 175.027 18.6618C174.232 18.569 176.181 18.3724 175.283 18.3108C173.419 18.1807 174.802 18.5369 174.747 18.5585C174.295 18.7306 172.682 18.0528 172.711 18.6348C172.032 18.5824 172.247 18.4985 171.296 18.6211C171.424 18.6555 171.551 18.6898 171.679 18.724C170.633 19.1177 168.345 18.3491 168.514 18.2763C168.959 18.0877 170.141 18.3121 170.24 18.3006C170.388 18.2837 170.77 17.6788 172.407 18.1249C173.046 17.6967 169.839 17.9817 171.289 17.6412C170.305 17.7439 166.222 17.601 165.639 17.7768C165.589 17.7943 165.751 18.0029 165.459 18.0482C165.428 18.0468 165.336 18.0515 165.306 18.0493C165.2 18.0638 165.031 18.0528 164.755 17.9953C164.283 17.8963 165.418 17.8989 165.202 17.8073C164.542 17.5324 155.619 17.6256 153.934 17.6198C153.824 17.619 153.866 17.4966 153.758 17.4966C153.424 17.4965 152.217 17.6667 151.624 17.6037C152.851 17.8444 150.463 17.8362 149.858 17.8044C148.937 17.7562 148.996 17.5406 148.599 17.4903C147.067 17.2961 144.688 17.783 143.501 17.2902C143.56 17.7671 141.444 17.0342 140.478 17.0198C139.723 17.0084 138.623 17.3121 139.64 17.5147C138.641 17.4875 137.603 17.5249 136.624 17.5519C136.319 17.5601 136.031 17.5677 135.745 17.5722C135.542 17.5755 135.821 17.4368 135.477 17.4469C135.447 17.4489 135.401 17.5865 135.111 17.5988C132.678 17.7047 133.866 17.4191 133.409 17.3303C133.154 17.281 132.972 17.2564 132.83 17.248C134.245 17.225 135.884 17.1835 136.315 17.1839C135.948 16.874 133.176 17.2205 132.368 17.138C132.34 17.135 132.437 16.9673 132.409 16.966C132.409 16.966 132.408 16.966 132.407 16.966C132.101 16.9519 130.158 17.0109 130.558 17.2118C130.663 17.2656 131.563 17.2663 132.619 17.2512C132.334 17.288 132.546 17.4768 132.496 17.4847C131.883 17.5756 130.38 17.3899 129.841 17.3643C129.717 17.3587 129.726 17.4793 129.705 17.4795C129.217 17.4513 129.417 17.1075 128.914 17.4614C128.031 17.0305 130.574 17.4008 130.396 17.1216C130.284 16.9133 124.547 16.9986 124.501 17.3102C124.482 17.2736 124.401 17.2267 124.232 17.1708C123.866 17.0521 122.159 17.0112 121.849 17.0472C121.798 17.0562 121.797 17.3848 121.733 17.3837C121.624 17.3825 120.57 17.1888 119.653 17.0758C119.288 17.0314 118.954 17.0124 118.731 17.0485C119.028 17.117 119.328 17.186 119.633 17.2555C119.724 17.275 119.815 17.2942 119.906 17.3132C119.81 17.3035 119.718 17.2941 119.63 17.2849C117.577 17.0726 117.927 17.2054 118.659 17.3792C118.697 17.3842 118.733 17.4006 118.77 17.4058C119.036 17.4676 119.341 17.5331 119.597 17.5889C119.947 17.6605 120.21 17.7123 120.217 17.7271C120.226 17.7519 119.969 17.7499 119.583 17.7227C118.528 17.6533 116.422 17.4035 117.017 17.2353C117.128 17.2051 118.933 17.5355 118.051 17.2223C117.895 17.1672 116.726 17.1042 116.665 17.0737C116.271 16.8713 118.847 16.9349 118.559 16.6768C117.91 16.8234 117.134 16.6261 116.418 16.6058C116.099 16.597 115.997 16.7516 115.957 16.7505C115.354 16.7296 115.708 16.5938 115.509 16.577C115.407 16.569 114.192 16.8101 114.467 16.3305C110.576 16.3007 113.371 16.5871 115.731 16.8091C114.975 16.9139 113.501 16.6698 112.85 16.6458C112.611 16.6368 112.733 16.819 112.332 16.8118C111.507 16.7935 107.635 16.2185 106.641 16.0902C107.263 16.086 107.101 15.8867 106.622 15.8567C106.142 15.8272 106.522 16.1072 106.427 16.1252C106.329 16.1417 104.104 15.8395 103.738 15.8469C105.414 15.8891 105.056 15.6758 103.635 15.5468C103.847 15.5098 104.051 15.4725 104.262 15.4361C103.422 15.4422 101.701 15.0441 101.216 15.1004C101.14 15.1092 101.4 15.2795 101.357 15.2845C100.934 15.322 99.5204 15.0893 99.4506 15.1402C99.3925 15.181 99.9927 15.3405 99.7645 15.3928C99.717 15.4037 99.1425 15.1659 98.5639 15.1931C98.3495 15.203 98.4721 15.3541 98.4181 15.3603C97.9673 15.4127 98.2413 15.1763 97.4199 15.1869C96.817 15.1961 96.3641 15.4226 95.5334 15.3251C98.2543 15.7015 95.9646 15.507 94.8206 15.5827C94.6385 15.595 94.7883 15.8546 93.7261 15.7225C93.7149 15.7212 93.7036 15.7198 93.6921 15.7184C93.7036 15.7163 93.715 15.7142 93.7262 15.7122C95.1355 15.4392 94.5413 15.4054 93.7292 15.4178C93.2001 15.4258 92.6055 15.4503 92.3557 15.4453C92.3204 15.4432 92.3097 15.2685 91.995 15.2618C91.9685 15.2616 92.0047 15.3801 91.7135 15.3854C88.943 15.4323 90.7143 15.3234 90.1892 15.1997C89.9641 15.1471 88.6112 15.2921 88.2532 15.2895C88.169 15.2884 88.2091 15.1665 87.8846 15.1655C87.315 15.164 86.7966 15.2845 86.422 15.2874C86.3779 15.2871 86.382 15.0939 85.663 15.1418C85.462 15.1551 85.2371 15.219 85.5193 15.2806C86.4648 15.484 88.2637 15.2013 89.3341 15.4006C90.3077 15.5832 87.224 15.5472 87.0673 15.5436C87.0086 15.5431 87.6145 15.4585 87.0007 15.4279C86.4772 15.4021 85.5229 15.7169 84.7429 15.6269C84.6831 15.6202 84.0728 15.3232 84.0995 15.3072C84.1306 15.296 85.077 15.2555 84.9429 15.1704C84.9251 15.1608 84.3226 15.1493 84.2453 15.0865C84.1487 15.01 83.903 14.2751 83.7748 14.2538C83.4457 14.201 83.6565 14.3722 83.4441 14.3557C82.9785 14.3207 81.4002 14.0653 81.3364 14.3161C81.6047 14.3381 81.8597 14.3596 82.1249 14.3812C80.6609 14.3699 81.2798 14.4931 81.0718 14.5352C80.8457 14.5805 80.9226 14.3604 80.4227 14.3262C80.3182 14.3193 78.2456 14.3076 78.2871 14.4016C79.4278 14.2859 79.003 14.5482 79.0544 14.5546C79.2509 14.578 79.5094 14.4312 79.781 14.4418C81.669 14.5171 79.7551 14.7084 80.2 14.783C80.3518 14.8081 80.6654 14.6851 80.7298 14.6935C80.9385 14.7208 80.9378 14.893 81.079 14.8827C81.4098 14.8591 81.0308 14.6055 81.0575 14.5935C81.359 14.4492 82.5035 14.6678 81.7806 14.9146C82.2066 15.0209 82.2728 14.7004 82.6078 14.8374C83.2785 15.1089 82.267 15.0187 81.9858 15.0538C80.9934 15.1813 80.6996 15.0502 79.2987 15.0537C78.7949 15.0545 78.1969 15.1938 77.9581 15.1955C77.8109 15.1968 76.4402 14.6116 76.3711 15.4617C75.8377 15.3633 75.0048 14.7764 74.4513 14.7854C73.9548 14.7939 74.1059 15.1 74.0589 15.1102C73.9815 15.1262 73.3912 15.0848 73.1818 15.1213C72.942 15.1646 73.0643 15.2832 72.6818 15.319C71.745 15.4087 71.7861 15.1027 71.6872 15.0799C70.5891 14.8202 71.0636 15.2706 70.8219 15.2997C70.7175 15.312 70.0172 15.268 69.2801 15.2374C68.2548 15.1992 67.0897 15.1608 66.7157 15.2167C66.9923 15.1588 67.2728 15.1007 67.5574 15.0426C67.0501 14.8445 66.5304 15.1505 66.5177 14.8062C66.3967 15.3603 65.3863 14.9744 65.0585 14.9834C64.9345 14.9874 64.9425 15.0822 64.7883 15.0838C64.2002 15.0913 62.8323 14.9909 62.5031 15.032C61.0856 15.2112 64.7038 15.6249 64.9772 15.6473C64.4212 15.6346 61.1793 15.6958 62.6592 15.9919C62.8909 16.0377 63.3011 15.7967 63.4273 15.7892C64.299 15.7408 63.6098 15.9513 63.6775 15.9737C63.7923 16.0101 64.3772 15.8047 64.5216 15.8327C64.5731 15.8417 64.2411 16.0383 65.074 16.0558C64.6662 16.2462 62.3233 16.0443 62.0262 16.0829C61.9182 16.0966 62.5869 16.5305 60.5977 16.0802C60.6201 16.1195 60.6426 16.1588 60.6651 16.1982C59.5556 16.1888 58.4372 16.1759 57.3246 16.1603C57.4468 16.0743 58.0759 15.9124 57.2903 15.9284C56.841 15.9376 57.168 16.1461 57.1265 16.1507C56.6989 16.2002 49.5746 15.895 48.2348 15.8814C47.7709 15.8746 46.4824 15.9996 46.3807 16.0003C45.7975 15.9999 43.7222 15.8492 43.3102 15.865C43.052 15.8746 43.2944 16.0457 43.0633 16.0335C42.8476 16.0219 43.0743 15.8653 43.0103 15.8574C42.6002 15.8029 40.0702 15.8801 38.5132 15.8492C38.086 15.84 37.7062 15.8209 37.5042 15.7857C37.6712 15.8008 38.0745 15.785 38.5142 15.7526C39.5813 15.6766 40.9815 15.5147 40.9517 15.435C40.9346 15.419 40.2367 15.2871 40.0879 15.345C39.8404 15.2024 39.0225 15.617 38.5603 15.5293C38.5346 15.5244 38.5723 15.4642 38.5177 15.3984C38.4634 15.3313 38.3206 15.2582 37.908 15.2327C37.6261 15.2154 36.899 15.3946 36.1629 15.1815C35.1039 15.2711 29.4784 14.937 29.0937 15.1927C29.0808 15.2061 29.8762 15.297 29.3389 15.3999C28.6267 15.5369 29.2684 15.0694 28.4392 15.0262C28.3126 15.0194 26.0082 15.0604 25.9309 15.0894C25.2319 15.3512 27.2471 15.4632 27.219 15.4939C27.1483 15.5708 25.4736 15.6131 25.4056 15.5948C25.3409 15.5757 26.7076 15.2298 25.0656 15.3583C25.2538 15.4004 25.4419 15.4426 25.6297 15.4848C24.8574 15.5642 24.784 15.3225 24.5972 15.3073C24.0158 15.2593 23.3858 15.625 22.4544 15.1701C22.208 15.0494 22.6177 14.9165 22.5869 14.8984C22.2904 14.736 21.9134 15.1685 21.4678 14.8448C21.4349 14.8206 22.4704 14.6286 20.6602 14.6254C20.7844 14.6566 20.9088 14.6877 21.0333 14.7189C20.7801 14.7876 18.9419 14.8264 18.6973 14.8099C17.9769 14.7613 18.6047 14.5396 17.88 14.5655C18.3439 14.8706 16.1438 14.9085 16.2685 14.6463C15.9595 14.9755 14.087 14.7203 13.2075 14.7122C12.6529 14.7073 11.5259 14.8508 11.3424 14.834C11.1272 14.8133 11.1907 14.5886 10.8079 14.5385C10.6904 14.5242 9.54082 14.6888 8.52435 14.4562C8.33733 14.4113 7.90753 14.0301 8.28148 13.9348C8.89897 13.7718 10.0956 14.079 10.0748 13.8537C10.0568 13.6127 8.46395 13.756 8.03149 13.7245C7.8809 13.7135 7.75096 13.7018 7.63825 13.6897C6.22177 13.5412 7.19452 13.317 7.14439 13.2452C7.02023 13.0568 5.92622 13.0626 5.88492 13.0457C5.69486 12.9704 6.47229 12.8213 6.47649 12.7063C6.49735 12.5566 5.45094 12.2863 5.6876 12.2358C6.0169 12.1641 6.98657 12.3894 7.04496 12.3786C7.82981 12.2333 6.75122 11.8874 6.45159 11.7174C6.36173 11.6651 6.71957 11.5792 6.64531 11.5639C5.50122 11.3311 6.4001 12.0501 5.64385 12.0021C4.95405 11.9593 5.84703 11.7319 5.8121 11.7194C5.78196 11.7056 4.96463 11.6932 4.83563 11.6128C4.78368 11.5725 6.88342 11.1303 6.8005 10.932C6.13416 10.9757 5.44843 11.0194 4.77571 11.0631C4.7206 10.8045 5.69412 10.9948 5.79531 10.9682C5.9965 10.9147 5.43226 10.7839 5.45567 10.7021C5.46905 10.6501 6.13602 10.4646 5.53318 10.3882C5.32573 10.3617 4.90131 10.543 4.15251 10.3578C6.74292 10.1213 4.96043 9.976 4.87074 9.88442C4.79607 9.79285 6.04286 9.57732 4.5317 9.61544C4.4652 9.11232 4.56519 9.4564 4.99177 9.36797C5.52672 9.25928 4.29887 9.09361 6.22394 9.2193C6.11004 8.98374 4.57142 9.00041 4.48928 8.98162C4.41807 8.96458 4.76474 8.84872 4.64249 8.80947C3.1891 8.35431 4.18524 8.56216 3.76878 8.2715C3.72887 8.24553 2.3642 8.13777 3.40417 8.09544C5.3105 8.01848 6.08513 8.35228 6.41171 7.63866C5.00728 7.32867 3.30618 7.7893 2.8867 7.79711C2.23021 7.80835 2.90614 7.66282 2.82771 7.62203C2.797 7.60885 2.23445 7.62087 2.23168 7.60931C1.82579 7.06503 4.73546 7.60028 5.64757 7.50563C5.39371 7.42412 5.16366 7.34261 4.90965 7.2611C5.25065 7.25784 5.57892 7.25458 5.90725 7.25132C4.3276 7.08747 5.85153 7.18929 6.24897 6.74857C6.33425 6.64954 5.29326 6.81937 6.48183 6.54414C5.60485 6.48061 5.8832 6.39056 5.09525 6.5148C5.10716 6.33815 6.90296 6.13888 7.60351 6.04823C5.11971 5.84972 6.52942 6.49767 4.3835 6.15485C3.98593 6.37358 5.01061 6.331 4.92691 6.3671C4.63477 6.49692 3.93058 6.29079 3.07553 6.74563C2.93754 6.82031 3.52143 7.05017 2.65741 7.03907C2.56854 7.03749 2.00805 6.84106 2.01848 6.82682C2.09087 6.67297 2.64283 6.73062 2.6592 6.66641C2.68426 6.60561 2.07393 6.64217 2.06958 6.62532C2.05291 6.43259 2.5768 6.55166 2.50295 6.49132C2.33257 6.36009 0.1518 5.94534 3.00384 6.06682C0.634621 6.28472 2.69876 6.27964 3.62534 6.19593C3.85982 6.17494 3.92077 6.05982 4.25541 6.01987C4.69088 5.96812 5.19717 6.02339 5.41494 6.00226C5.65652 5.97897 4.28674 5.70685 6.26849 5.78805C5.25505 5.51737 3.48653 5.80596 2.4992 5.6159C0.507544 5.23185 3.88421 5.14939 4.23947 5.11217C4.33211 5.10209 4.02127 4.94661 4.08224 4.93709C4.18083 4.92248 6.09862 4.99435 6.29458 4.86569C6.47935 4.73714 5.59725 4.87161 5.5286 4.73755C5.4871 4.6473 7.8124 4.48722 6.54976 4.42553C5.69081 4.38325 4.09489 4.74599 3.82638 4.35609C5.09768 4.32384 6.35756 4.29159 7.63825 4.25934C7.63933 4.25931 7.64042 4.25928 7.6415 4.25925C7.64042 4.25901 7.63933 4.25877 7.63825 4.25854C6.93653 4.11043 6.24469 3.96232 5.55152 3.81421C6.28193 3.79009 6.95828 3.82234 7.63825 3.83091C8.26404 3.83905 8.91435 3.82579 9.56423 3.72231C6.3193 3.24684 10.6225 3.34295 10.6714 3.28519C10.6844 3.25058 9.3999 2.86462 9.20025 2.79405C10.3286 2.64554 13.7866 2.5739 11.7676 2.09697C12.1289 2.20461 13.0217 1.93933 13.008 1.91929C12.9014 1.70873 10.9583 1.84477 11.2749 1.65476C11.6475 1.43422 12.1511 1.73361 12.7183 1.70988C15.6077 1.58643 14.8131 0.487114 17.7126 0.663316C17.6552 0.624139 17.5979 0.584962 17.5406 0.545786C20.6881 0.610886 23.8412 0.677977 26.9929 0.749018C28.2257 0.41652 31.5159 0.22384 33.1293 0.269842C33.455 0.278537 35.0564 0.463941 35.1711 0.49575C35.3945 0.55627 34.1688 0.571335 34.7229 0.685654C34.8331 0.708408 37.5431 0.801882 37.3573 0.613318C37.0455 0.588862 36.0993 0.676218 35.945 0.630998C35.4499 0.484826 36.9006 0.466791 38.6634 0.48589C40.8246 0.5076 43.4326 0.599252 43.6702 0.53515C43.4859 0.470573 43.2997 0.406068 43.1115 0.341638C43.6483 0.381481 44.1769 0.422065 44.7077 0.463581ZM20.4554 15.3715C20.14 15.5594 19.3543 15.4169 18.8885 15.4693C18.2463 15.5426 17.1546 16.2671 17.6243 15.5404C18.5676 15.4839 19.512 15.4276 20.4554 15.3715ZM34.2287 15.6952C33.6033 15.5904 34.0864 15.187 34.6086 15.359C34.6649 15.3785 35.0862 15.8365 34.2287 15.6952ZM27.6104 15.4745C27.6375 15.4692 28.1812 15.4816 28.2014 15.4881C28.6907 15.6526 27.0451 15.6142 27.6104 15.4745ZM59.5211 15.8607C58.8175 15.8605 59.3134 16.2424 59.7615 16.1015C59.7895 16.0925 59.5675 15.861 59.5211 15.8607ZM59.022 15.8383C58.4748 15.4938 57.3636 16.1332 58.2381 16.0897C58.3197 16.0852 59.0502 15.8552 59.022 15.8383ZM31.9818 15.5221C32.0503 15.3957 32.7073 15.46 32.9822 15.4918C32.977 15.6074 32.2497 15.5092 31.9818 15.5221ZM48.3612 15.7247C48.3876 15.6248 46.1491 15.5682 45.9969 15.697C46.3496 15.649 48.3286 15.8125 48.3612 15.7247ZM54.1649 15.7704C54.1071 15.7514 53.3203 15.752 53.3399 15.8406C53.7228 15.9684 54.4219 15.8566 54.1649 15.7704ZM65.8616 16.055C65.9075 16.0334 65.3133 15.4662 66.7251 15.8537C66.9321 15.9104 66.1877 16.0465 66.2607 16.0675C66.4152 16.1088 66.5394 16.1287 66.6382 16.1333C65.9646 16.1707 65.3101 16.1824 65.2329 16.1473C64.9255 15.9824 65.8441 16.0641 65.8616 16.055ZM71.861 15.7343C71.9896 15.6464 72.8393 15.7193 73.0268 15.7626C73.0602 15.7706 72.9067 16.0059 73.2909 15.9993C73.6015 15.9937 73.1499 15.7346 73.7424 15.7916C74.3515 15.8493 73.5305 15.9998 73.586 16.0139C73.655 16.0323 74.5939 15.9503 74.5633 16.0922C74.5346 16.1971 73.5363 16.0955 73.2894 16.1108C72.9712 16.1303 73.3462 16.3176 72.8256 16.2645C72.4897 16.2312 72.6856 15.9268 72.6152 15.9091C72.5559 15.8945 71.4058 16.0413 71.8627 15.7354C71.8622 15.735 71.8616 15.7347 71.861 15.7343ZM66.8122 16.1219C66.7636 16.1317 66.7067 16.1365 66.6382 16.1333C66.6964 16.1298 66.7545 16.1257 66.8122 16.1219ZM22.2835 15.2383C22.6119 15.3344 21.6371 15.4553 21.2663 15.3296C21.2603 15.2286 22.2313 15.2233 22.2835 15.2383ZM67.4195 15.8772C68.407 15.9666 67.6659 16.0651 66.8122 16.1219C67.084 16.0671 67.0924 15.8472 67.4195 15.8772ZM40.0879 15.345C40.1278 15.3686 40.1528 15.405 40.1552 15.4642C40.0506 15.3981 40.0414 15.3632 40.0879 15.345ZM42.2995 15.4836C43.0608 15.3164 41.5116 15.2971 41.526 15.4269C41.5246 15.4755 42.2715 15.4902 42.2995 15.4836ZM60.4264 15.9001C60.3567 15.8807 61.4734 15.3624 59.8615 15.7331C60.7107 15.8176 59.8164 15.8556 59.8229 15.9034C59.854 16.0416 61.2984 15.9433 61.6155 16.0088C61.8686 15.769 60.6657 15.9642 60.4282 15.9002C60.4276 15.9001 60.427 15.9001 60.4264 15.9001ZM82.8263 16.1773C82.6313 16.3164 82.0089 16.2548 81.5979 16.2357C81.7908 16.0969 82.4157 16.159 82.8263 16.1773ZM191.502 17.4734C188.706 17.8069 188.295 17.2508 190.888 17.2956C190.936 17.297 191.668 17.4021 191.502 17.4734ZM166.936 18.8705C166.654 18.6229 167.566 18.558 168.167 18.6432C168.304 18.6625 168.815 18.9036 168.243 18.9734C168.249 18.6642 167.361 18.5743 166.936 18.8705ZM67.9767 15.7205C68.1992 15.5869 68.7968 15.644 69.2757 15.6874C69.3754 15.698 69.4732 15.7081 69.5589 15.7143C69.4924 15.7486 69.3895 15.7697 69.2748 15.7814C68.866 15.8158 68.2725 15.7638 67.9767 15.7205ZM182.222 17.8494C181.923 17.8522 181.734 18.0886 181.788 18.1032C182.029 18.1703 182.569 17.9504 182.222 17.8494ZM65.1598 15.6561C65.1304 15.5542 66.2697 15.4731 66.3541 15.7254C66.0994 15.7039 65.1967 15.7206 65.1598 15.6561ZM82.0428 16.0816C81.8658 16.0256 82.7933 15.9562 83.0734 16.014C83.046 16.1217 82.1624 16.1184 82.0428 16.0816ZM177.393 18.2708C177.118 18.2703 176.445 18.3091 176.374 18.4036C176.289 18.5217 177.277 18.4178 177.393 18.2708ZM226.781 16.0287C226.815 16.0683 225.783 16.3846 225.317 16.322C224.435 16.2025 226.743 16.0018 226.781 16.0287ZM185.034 17.5256C185.886 17.6738 184.945 17.5388 184.995 17.758C185.556 17.7242 186.97 17.6303 185.983 17.4844C185.789 17.4565 185.3 17.5202 185.034 17.5256ZM184.253 17.5092C184.174 17.5873 183.574 17.8595 184.103 17.8038C184.343 17.7781 184.712 17.4977 184.253 17.5092ZM220.34 16.2715C219.579 16.0903 223.055 16.125 223.16 16.156C223.213 16.1731 223.248 16.1895 223.268 16.2036C223.394 16.1385 224.051 16.1125 224.132 16.2684C223.933 16.2599 223.396 16.2858 223.333 16.2696C223.306 16.2628 223.286 16.2563 223.272 16.2495C223.041 16.3921 220.484 16.3065 220.34 16.2715ZM214.579 16.1744C215.443 15.8692 215.602 16.3599 215.528 16.377C214.59 16.5954 215.198 16.2208 215.169 16.2043C215.102 16.1771 214.434 16.3575 214.582 16.1743C214.581 16.1743 214.58 16.1743 214.579 16.1744ZM219.157 16.2132C219.192 16.2062 219.92 16.2074 219.951 16.2145C220.551 16.3688 218.49 16.3661 219.157 16.2132ZM76.431 15.5242C76.956 15.589 76.43 15.7549 76.0916 15.6794C76.0646 15.6722 75.9737 15.4672 76.431 15.5242ZM183.842 17.5889C183.72 17.5639 180.632 17.6626 180.831 17.9223C181.094 17.8715 184.604 17.7522 183.842 17.5889ZM160.294 18.5062C160.837 18.5133 160.245 18.7665 159.951 18.6674C159.842 18.6306 160.157 18.5046 160.294 18.5062ZM63.6038 15.3952C63.0352 15.5269 63.1599 15.0526 63.6488 15.2248C63.6681 15.2316 63.6262 15.3901 63.6038 15.3952ZM164.65 18.69C162.865 18.826 163.179 18.0988 165.305 18.2736C165.336 18.2759 165.431 18.271 165.463 18.2725C165.582 18.2789 165.706 18.2877 165.835 18.2991C165.757 18.3373 165.679 18.3754 165.601 18.4135C168.116 18.4612 166.429 18.4691 165.468 18.5066C165.435 18.505 165.336 18.5101 165.303 18.5077C165.16 18.5097 165.032 18.5131 164.938 18.5187C164.672 18.5345 164.895 18.6728 164.652 18.691C164.652 18.6907 164.651 18.6904 164.65 18.69ZM157.429 18.463C155.628 17.8629 159.071 18.2767 160.066 18.2097C159.106 18.4411 157.853 18.3925 159.553 18.6549C157.064 18.6785 158.103 18.4566 158.003 18.4364C157.887 18.4137 157.507 18.4887 157.429 18.463ZM162.203 18.5034C162.304 18.4873 163.093 18.6121 163.381 18.595C162.981 18.7909 161.509 18.6131 162.203 18.5034ZM208.567 16.4121C208.629 16.2553 208.793 16.1376 209.409 16.1852C209.221 16.2667 208.825 16.3409 208.567 16.4121ZM19.8601 14.551C19.4348 14.5393 18.5823 14.4797 18.8434 14.6437C18.8709 14.6577 19.8601 14.6429 19.8601 14.551ZM174.819 18.0955C174.725 18.0844 172.322 18.2072 173.162 18.3321C173.416 18.3722 175.599 18.2183 174.819 18.0955ZM187.04 17.2443C186.839 17.2575 186.058 17.3448 186.038 17.3833C185.999 17.5138 186.959 17.3725 187.04 17.2443ZM17.7063 14.3893C17.6536 14.373 16.3442 14.4006 16.4902 14.4763C16.7581 14.6194 17.9007 14.4451 17.7063 14.3893ZM78.3408 15.2153C78.4492 15.2127 78.5889 15.3859 78.6268 15.3889C78.7221 15.3945 80.7234 15.3844 79.9541 15.5806C79.821 15.6142 76.9382 15.4481 76.5657 15.4147C76.4304 15.1784 77.6533 15.4357 77.9525 15.4204C78.005 15.4174 78.0477 15.2242 78.3399 15.2163C78.3402 15.216 78.3405 15.2157 78.3408 15.2153ZM211.793 16.1924C211.877 16.0433 214.228 15.9057 214.202 16.085C213.398 16.1209 212.596 16.1566 211.793 16.1924ZM210.601 16.1882C210.099 16.0923 211.27 16.0378 211.617 16.078C211.626 16.1772 210.672 16.2023 210.601 16.1882ZM182.56 17.0241C182.326 17.0776 183.069 17.2385 182.91 17.2923C182.806 17.3262 182.273 17.2847 182.113 17.3641C182.067 17.389 182.616 17.5515 182.772 17.5311C182.994 17.5029 182.766 17.36 183.009 17.3409C183.803 17.2784 184.521 17.3389 185.271 17.2804C185.338 17.2749 184.812 17.2011 185.381 17.1604C185.465 17.1541 186.027 17.2805 186.702 17.2055C188.182 16.5756 189.336 17.0018 191.245 16.6778C191.175 16.6336 189.716 16.607 189.639 16.6079C188.02 16.6389 185.136 16.8441 183.439 16.9695C183.007 17.0012 183.226 17.0951 183.04 17.113C182.891 17.127 183.052 16.9111 182.56 17.0241ZM20.0867 14.4388C19.8845 14.2353 19.1684 14.3631 18.714 14.3521C18.8726 14.5356 19.6432 14.3932 20.0867 14.4388ZM200.122 16.2445C199.892 16.2584 199.199 16.217 199.141 16.28C199.072 16.3617 200.074 16.3837 200.122 16.2445ZM89.6781 15.5303C89.6997 15.5252 90.2559 15.5446 90.2777 15.5512C90.7726 15.7219 89.105 15.6629 89.6781 15.5303ZM102.5 15.9659C102.902 15.9685 103.314 15.9351 103.436 16.1096C103.183 16.065 102.444 16.0769 102.5 15.9659ZM120.444 17.6962C120.367 17.4764 121.777 17.7289 122.038 17.7587C121.939 17.8536 120.504 17.8627 120.444 17.6962ZM208.465 15.736C209.234 15.7353 209.065 15.4111 209.553 15.5507C209.634 15.5744 209.899 16.2509 209.057 16.0103C208.904 15.9671 209.496 15.7948 208.465 15.736ZM166.244 18.2968C166.442 18.1495 167.071 18.1761 167.498 18.1747C167.404 18.284 166.547 18.2801 166.244 18.2968ZM15.3513 14.2242C14.9878 14.0222 13.3277 14.1711 13.7387 14.3045C13.796 14.3219 15.1148 14.2164 15.3513 14.2242ZM69.8984 15.0916C70.3773 14.9848 69.7795 14.9145 69.283 14.9473C69.0746 14.9592 68.8791 14.9842 68.7562 15.0248C68.8415 15.0215 69.055 15.034 69.282 15.0488C69.5574 15.0692 69.8722 15.0973 69.8984 15.0916ZM116.019 17.1102C116.056 17.1075 116.763 17.1983 116.798 17.2099C117.369 17.4375 115.342 17.1788 116.019 17.1102ZM98.3665 15.4747C98.6222 15.3518 100.265 15.5366 100.627 15.6909C100.26 15.8566 98.0503 15.6221 98.3665 15.4747ZM205.32 15.8871C205.867 15.8696 206.383 15.9001 206.886 15.9474C206.782 16.0592 205.384 15.9679 205.32 15.8871ZM118.659 17.3792C118.697 17.3842 118.733 17.4006 118.77 17.4058C118.732 17.3971 118.695 17.3878 118.659 17.3792ZM193.369 16.285C192.906 16.2737 193.016 16.4682 193.044 16.4723C193.402 16.5128 193.88 16.2987 193.369 16.285ZM19.5643 14.1389C19.4028 13.9567 18.6357 14.097 18.1888 14.0533C18.32 14.1971 19.2036 14.1575 19.5643 14.1389ZM155.497 18.0705C154.922 17.8673 157.271 17.6624 157.768 17.7944C157.802 17.9167 155.582 18.0985 155.497 18.0705ZM67.811 14.7942C67.7611 14.6512 66.7676 14.8108 66.9779 14.8807C67.1071 14.9254 67.8363 14.8831 67.811 14.7942ZM158.947 17.889C159.169 17.8477 159.684 17.9932 159.502 18.0773C159.269 18.185 158.889 17.9009 158.947 17.889ZM179.178 17.1434C179.077 17.1291 177.784 17.3663 178.335 17.4735C178.713 17.5483 178.759 17.3384 178.847 17.3316C178.951 17.3253 181.053 17.4271 179.178 17.1434ZM142.351 17.8029C142.844 17.7535 143.431 17.8235 143.943 17.8252C143.735 17.9111 142.559 17.9223 142.351 17.8029ZM71.5233 14.8173C71.385 14.75 68.315 14.6615 70.0526 14.8684C70.1489 14.8782 71.8695 15.0003 71.5233 14.8173ZM208.465 15.736C208.369 15.7361 208.257 15.7312 208.128 15.7194C208.256 15.7227 208.368 15.7304 208.465 15.736ZM199.806 15.8999C199.975 15.7913 199.103 15.7881 198.841 15.8515C198.767 15.9804 199.781 15.9148 199.806 15.8999ZM143.983 17.6809C144.278 17.6247 144.814 17.694 145.178 17.6911C145.116 17.7869 144.109 17.7803 143.983 17.6809ZM123.086 17.3673C123.723 17.4534 124.495 17.4469 124.507 17.329C124.52 17.3478 124.549 17.3681 124.599 17.389C124.649 17.4103 125.317 17.3699 125.597 17.4141C127.375 17.7307 118.783 17.2991 123.797 17.1776C123.562 17.242 123.323 17.3053 123.086 17.3673ZM96.1432 15.1239C95.8256 14.9715 94.9243 15.1343 95.1561 15.1954C95.3198 15.236 96.4595 15.276 96.1432 15.1239ZM108.515 15.841C108.417 15.8058 107.522 15.8235 107.49 15.8968C107.99 16.0224 108.946 16.0016 108.515 15.841ZM93.6728 14.9132C93.4609 14.8894 93.1899 15.1181 93.2145 15.1284C93.3447 15.1816 93.6196 15.1388 93.7328 15.0672C93.7892 15.03 93.8034 14.985 93.7341 14.9417C93.7181 14.9321 93.6978 14.9226 93.6728 14.9132ZM206.869 15.1406C206.558 15.0799 205.578 15.2662 205.365 15.4235C205.324 15.3947 205.215 15.3583 205.017 15.3159C205.017 15.3159 205.018 15.3159 205.019 15.3159C204.743 15.251 196.825 15.3806 202.143 15.543C202.311 15.5486 202.08 15.4164 202.756 15.4252C202.801 15.426 202.825 15.5376 202.964 15.5399C203.288 15.5441 204.981 15.5796 205.324 15.483C205.328 15.5037 205.35 15.523 205.398 15.5402C205.818 15.6936 207.112 15.1872 206.869 15.1406ZM110.287 15.9921C110.112 15.933 109.534 15.916 109.468 16.0092C109.743 16.0843 110.694 16.1298 110.287 15.9921ZM71.4362 14.4089C71.0665 14.3173 70.1569 14.4497 70.429 14.5365C70.589 14.5887 71.8545 14.5131 71.4362 14.4089ZM104.611 15.5295C106.675 15.817 105.107 15.5606 105.437 15.4422C105.164 15.471 104.882 15.4996 104.611 15.5295ZM216.763 15.3437C216.422 15.3164 216.816 15.0231 217.195 15.1716C217.314 15.2187 216.953 15.3584 216.763 15.3437ZM232.224 14.8883C231.923 14.6442 233.359 14.7467 232.807 14.9389C232.781 14.9457 232.245 14.8973 232.224 14.8883ZM221.408 15.0622C221.179 15.2398 221.028 15.2635 220.375 15.2337C221.34 15.1657 220.44 15.031 221.408 15.0622ZM124.501 17.3102C124.505 17.3173 124.508 17.3226 124.507 17.329C124.503 17.3225 124.501 17.3165 124.501 17.3102ZM91.6469 14.9345C91.3813 14.7848 90.6215 14.7848 90.8455 14.9354C90.8649 14.9494 91.5395 15.0414 91.6469 14.9345ZM205.365 15.4235C205.401 15.449 205.383 15.4663 205.324 15.483C205.321 15.4635 205.336 15.4447 205.365 15.4235ZM95.6293 14.8693C95.6001 14.977 96.6995 15.0469 96.7437 15.0364C97.3794 14.8657 96.0851 14.8709 95.6293 14.8693ZM63.9396 14.1402C63.878 14.1505 64.2663 14.4393 64.495 14.3326C64.675 14.2498 64.1704 14.1009 63.9396 14.1402ZM223.629 14.9443C223.991 14.9364 224.505 14.9244 224.601 15.0562C224.358 15.0413 223.623 15.0427 223.629 14.9443ZM231.658 14.7222C231.233 14.8931 230.251 14.9222 229.623 14.9141C229.607 14.7076 231.256 14.784 231.658 14.7222ZM207.849 15.2001C207.818 15.1922 206.912 15.1467 207.039 15.2832C207.22 15.4833 208.107 15.2709 207.849 15.2001ZM65.7114 14.3184C66.1182 14.2288 65.189 13.9216 64.7498 14.1411C64.5227 14.2538 65.6516 14.3337 65.7114 14.3184ZM89.2925 14.7083C88.752 14.7799 90.0806 14.9444 90.2732 14.8019C90.0223 14.7865 89.4824 14.683 89.2925 14.7083ZM107.076 15.3298C105.466 14.7669 106.296 15.6069 106.594 15.5656C106.637 15.5597 107.116 15.3432 107.076 15.3298ZM11.1697 13.3863C10.929 13.4444 11.8268 13.6552 11.936 13.5166C12.0086 13.4298 11.3224 13.3493 11.1697 13.3863ZM132.83 17.248C132.758 17.2491 132.688 17.2503 132.619 17.2512C132.671 17.2446 132.739 17.2426 132.83 17.248ZM84.4171 14.0533C85.5964 14.6703 85.4813 14.2118 85.5843 14.2166C85.8066 14.2277 86.3287 14.3982 86.7486 14.3801C86.2679 14.4372 85.7745 14.4937 85.2953 14.55C85.6732 14.6026 88.9934 14.8821 89.0645 14.7858C89.1635 14.6511 88.1254 14.6763 88.0905 14.6634C88.0465 14.6455 87.8892 14.2634 87.7926 14.2472C87.6399 14.2226 84.857 14.1588 84.4171 14.0533ZM103.639 15.1096C103.901 15.1746 103.961 15.33 104.086 15.3036C104.128 15.2946 104.146 15.1522 104.291 15.1264C104.072 15.1203 103.859 15.115 103.639 15.1096ZM82.2675 14.5335C81.9348 14.3502 83.4472 14.4539 83.4954 14.4743C83.7529 14.5992 82.5398 14.6837 82.2675 14.5335ZM95.0807 14.7313C95.0297 14.7192 93.9094 14.6485 93.9163 14.7466C94.2129 14.8222 95.7073 14.8704 95.0807 14.7313ZM104.469 15.1306C104.859 15.1779 105.598 15.3846 105.529 15.1624C105.529 15.1623 105.528 15.1623 105.527 15.1622C105.177 15.1511 104.819 15.14 104.469 15.1306ZM67.1136 13.8818C66.3714 13.5283 66.7136 13.9674 67.3829 14.0867C67.5891 13.9349 67.2358 13.9393 67.1136 13.8818ZM64.6916 13.5904C64.4963 13.5264 62.3036 13.5536 62.6345 13.7413C62.7573 13.8089 64.0009 13.6682 64.0648 13.6816C64.1514 13.7017 63.7506 13.8962 64.4172 13.8676C64.3795 13.7988 64.7627 13.6122 64.6916 13.5904ZM66.4926 13.6535C65.7349 13.3816 65.566 13.8611 66.13 13.8705C66.3519 13.8745 66.6015 13.6927 66.4926 13.6535ZM69.5489 13.7304C69.4848 13.7182 69.3956 13.7044 69.2954 13.6932C68.9467 13.6591 68.4453 13.6462 68.0778 13.7624C68.4751 13.7752 68.8805 13.7879 69.2944 13.8003C69.529 13.808 69.7755 13.8171 70.0289 13.8271C70.1059 13.7377 69.7687 13.7734 69.5472 13.7304C69.5478 13.7304 69.5484 13.7304 69.5489 13.7304ZM236.14 13.3318C235.538 13.2178 236.913 13.1132 236.973 13.1441C237.15 13.2488 236.41 13.3829 236.14 13.3318ZM6.52736 9.00607C6.36715 8.95157 6.25304 8.77225 5.89117 8.8662C6.26001 8.99857 6.61684 9.13094 6.9912 9.26331C7.27265 8.96001 6.7071 9.06618 6.52736 9.00607ZM5.13536 7.89786C5.18728 7.89051 4.90349 7.42412 5.56899 7.73549C6.01527 7.94573 3.57311 8.15063 3.12548 7.94383C3.61593 7.84773 4.68717 7.95774 5.13536 7.89786ZM0.841183 5.87902C0.807943 5.84183 1.74721 5.78727 1.84976 5.81348C2.42042 5.9517 0.988227 6.07828 0.841183 5.87902ZM3.80948 5.96803C3.3812 5.87746 4.33238 5.81907 4.63202 5.87119C4.65478 5.95801 3.87592 5.98122 3.80948 5.96803ZM229.892 6.78162C229.412 6.47848 229.008 7.17258 229.731 7.01429C229.766 7.00682 229.912 6.79655 229.892 6.78162ZM1.74908 5.40854C2.18547 5.49911 1.22108 5.5575 0.930153 5.50538C0.90689 5.41866 1.68219 5.3953 1.74908 5.40854ZM229.538 6.03644C228.906 5.82634 229.148 6.5852 229.227 6.61385C229.554 6.72667 230.647 6.39381 230.871 6.31205C229.223 6.47642 229.836 6.13513 229.538 6.03644ZM226.666 6.57409C226.087 6.67055 227.575 6.78882 227.852 6.56759C227.564 6.58562 226.832 6.54633 226.666 6.57409ZM223.137 6.41213C222.825 6.39169 221.892 6.34595 221.74 6.46952C222.079 6.44073 223.01 6.53898 223.137 6.41213ZM222.421 6.06668C221.93 5.91348 221.823 6.39271 222.383 6.23872C222.404 6.23276 222.439 6.0754 222.421 6.06668ZM219.673 5.95067C219.349 5.76731 218.993 6.23606 219.512 6.2385C219.666 6.23835 219.708 5.97175 219.673 5.95067ZM228.733 5.23534C228.274 5.16659 227.693 5.51327 228.67 5.52278C228.33 5.58278 227.986 5.64267 227.645 5.70229C228.932 5.85318 228.822 5.39673 229.191 5.40543C229.705 5.41772 229.676 5.79709 229.576 5.9189C229.99 5.6754 231.778 5.61794 232.809 5.5389C231.898 5.4721 230.42 5.34892 229.523 5.31277C229.266 5.30231 229.02 5.41309 228.802 5.40757C228.452 5.39813 228.758 5.2401 228.734 5.23528C228.734 5.2353 228.733 5.23532 228.733 5.23534ZM216.064 6.01068C215.116 5.8125 215.72 6.26581 216.253 6.17362C216.276 6.16685 216.087 6.01551 216.064 6.01068ZM0.498502 3.99907C1.7582 4.19294 0.842045 4.44989 3.47866 4.05972C2.37232 4.33594 3.41795 4.25836 3.20282 4.36978C3.02697 4.45793 2.37916 4.38493 2.75581 4.56247C2.26055 4.36923 0.102117 4.42268 0.00929809 4.3913C0.0101992 4.3913 0.0113551 4.3913 0.0122033 4.3913C-0.0452846 4.37271 0.0963296 3.93742 0.498502 3.99907ZM223.105 5.19965C222.782 4.64384 222.675 5.53973 222.049 5.0865C221.242 5.78151 224.317 5.03758 224.703 5.59965C221.347 5.61054 226.932 6.11463 224.571 5.31314C226.507 5.57795 225.201 5.19204 225.496 5.07587C225.81 4.95213 226.903 5.05089 226.843 4.84262C226.842 4.84264 226.842 4.84265 226.841 4.84267C226.173 4.87449 225.51 4.9055 224.842 4.93596C225.505 5.37257 224.142 5.26931 223.669 4.91119C223.481 5.0074 223.293 5.10355 223.105 5.19965ZM226.891 5.53414C226.823 5.52579 225.377 5.62513 225.471 5.7134C225.666 5.76715 227.724 5.64509 226.891 5.53414ZM233.264 5.2467C232.744 5.26331 231.937 5.20115 231.659 5.38042C232.18 5.36525 232.987 5.42688 233.264 5.2467ZM206.396 5.79888C205.73 5.95112 207.787 5.9547 207.189 5.79995C207.158 5.79267 206.432 5.79163 206.396 5.79888ZM221.597 5.3171C220.916 5.15917 221.248 5.69991 221.745 5.54684C221.774 5.53783 221.628 5.3243 221.597 5.3171ZM1.51931 3.93256C1.56391 3.79844 3.39715 3.89265 3.7205 3.89148C3.53859 4.01615 1.46542 4.08632 1.51931 3.93256ZM234.161 4.71362C233.111 4.26843 231.727 4.87002 231.573 4.86253C231.42 4.85494 231.653 4.63668 231.618 4.63212C231.539 4.62322 229.908 4.69041 229.831 4.70693C229.775 4.72001 230.078 5.00755 229.745 5.11064C230.395 4.92501 233.379 4.93462 233.532 4.89503C233.65 4.86463 232.738 4.58507 234.159 4.71369C234.16 4.71367 234.16 4.71364 234.161 4.71362ZM231.187 4.81C231.598 4.92156 230.456 4.97237 230.178 4.9345C229.561 4.85027 231.134 4.7973 231.187 4.81ZM228.437 4.7758C228.306 4.75175 227.126 4.75786 227.031 4.89844C227.591 5.06357 228.735 4.83256 228.437 4.7758ZM215.308 5.07699C215.005 5.10003 214.153 5.00845 214.108 5.13002C214.414 5.10718 215.264 5.19861 215.308 5.07699ZM7.76151 2.87815C7.25466 2.77706 8.4398 2.73576 8.77796 2.78426C8.79852 2.86484 7.80006 2.88683 7.76151 2.87815ZM221.458 4.16458C221.274 4.13277 217.576 4.29615 217.056 4.36116C217.568 4.44424 221.235 4.38023 221.402 4.33108C221.45 4.31672 221.481 4.16987 221.458 4.16458ZM229.446 3.91375C229.78 3.72616 230.005 3.93295 230.048 3.93436C230.466 3.94941 231.334 3.88251 231.148 4.05964C230.407 4.0139 228.782 4.2862 229.446 3.91375ZM215.032 4.27669C213.771 4.36461 216.194 4.50993 215.874 4.32945C215.852 4.3186 215.161 4.26754 215.032 4.27669ZM221.87 4.10412C222.144 3.95597 225.846 3.99578 226.436 3.97924C225.911 4.25769 225.479 4.06693 224.765 4.09734C224.572 4.10584 224.626 4.21489 224.606 4.21555C224.273 4.22844 224.519 4.09526 224.314 4.0981C224.183 4.10106 221.484 4.31535 221.87 4.10412ZM229.635 3.78497C229.838 3.67797 232.139 3.56366 232.232 3.58686C232.932 3.76676 229.814 3.81693 229.635 3.78497ZM221.526 3.87553C221.914 3.55956 223.76 3.72566 222.504 3.90667C222.384 3.92326 221.872 3.80058 221.526 3.87553ZM215.161 3.98097C215.1 3.97302 213.782 3.9341 213.763 4.03245C213.95 4.06747 215.867 4.06837 215.161 3.98097ZM215.834 3.63753C215.803 3.64043 216.114 3.82384 215.498 3.81073C215.445 3.80938 215.351 3.5986 214.575 3.68982C214.418 3.70855 214.177 3.85325 214.195 3.86169C215.01 4.18139 217.423 3.49978 215.834 3.63753ZM229.673 3.61167C229.546 3.52562 229.837 3.25093 230.11 3.37768C230.228 3.43242 230.017 3.59856 229.673 3.61167ZM210.991 3.96601C211.754 3.79159 209.35 3.80193 209.228 3.8455C209.307 3.94463 210.914 3.98304 210.991 3.96601ZM8.95766 1.63204C8.95705 1.63204 8.95644 1.63204 8.95583 1.63204C9.60119 1.66864 9.20062 1.80291 9.23225 1.80713C10.6077 2.00445 10.2341 1.7003 10.4514 1.66442C10.9197 1.58685 10.831 1.9567 11.6155 1.8035C10.329 2.02972 11.4964 1.93499 11.5355 2.0666C11.6742 2.6036 9.83053 1.81487 9.19142 1.92744C9.10193 1.94302 9.75509 2.11444 9.52811 2.16318C8.78652 2.32111 6.4864 1.49214 8.95766 1.63204ZM230.318 3.34803C230.61 3.18242 232.857 3.26369 232.267 3.41251C232.172 3.43735 229.89 3.59136 230.318 3.34803ZM124.999 5.46219C125.512 5.33781 124.339 5.14947 124.128 5.24594C124.018 5.2957 124.774 5.51791 124.999 5.46219ZM116.759 4.18532C116.119 4.14542 115.363 4.63846 116.184 4.63607C116.277 4.6361 116.822 4.27142 116.759 4.18532ZM158.519 5.47391C157.844 5.26385 157.883 5.64221 158.377 5.64175C158.553 5.64165 158.54 5.48056 158.519 5.47391ZM132.714 5.26559C132.647 5.2521 131.86 5.27424 131.89 5.36125C132.18 5.41385 133.155 5.35753 132.714 5.26559ZM158.733 5.42221C158.335 5.48645 159.012 5.76649 159.509 5.504C159.258 5.52355 158.775 5.41566 158.733 5.42221ZM220.121 3.06858C219.788 3.23049 218.847 3.20179 218.302 3.23861C218.241 3.03876 219.732 3.11296 220.121 3.06858ZM119.474 4.70539C118.845 4.7803 120.147 5.03706 120.043 4.83748C120.029 4.82573 119.501 4.70218 119.474 4.70539ZM179.724 4.70159C179.291 4.85352 180.706 4.91173 180.305 4.72971C180.288 4.72232 179.746 4.69331 179.724 4.70159ZM185.87 4.31572C185.534 4.29996 184.093 4.41949 184.662 4.49459C184.751 4.50597 185.853 4.42712 185.87 4.31572ZM10.4896 1.51966C10.3097 1.31308 11.361 1.36239 11.5164 1.39854C11.5709 1.41356 10.736 1.78843 10.4896 1.51966ZM154.141 5.39672C153.791 5.41886 152.888 5.36004 152.726 5.46666C153.154 5.44887 154.253 5.61381 154.141 5.39672ZM122.063 4.9671C121.624 4.71018 120.867 4.65171 121.023 4.96286C121.874 5.02701 120.939 4.69719 122.063 4.9671ZM160.978 5.20163C160.697 5.18198 160.485 5.46169 160.515 5.47523C160.813 5.60421 161.258 5.3137 160.978 5.20163ZM139.972 5.21084C139.954 5.09027 139.062 5.13559 139.178 5.21428C139.218 5.2407 139.982 5.30834 139.972 5.21084ZM208.379 3.20781C207.964 3.1052 209.222 2.97572 209.596 3.09764C209.779 3.27927 208.433 3.21939 208.379 3.20781ZM168.436 5.21686C168.47 5.0379 167.12 5.18357 167.657 5.31408C167.793 5.34706 168.424 5.27728 168.436 5.21686ZM181.57 4.19987C180.648 4.48206 184.595 4.34006 183.541 4.1523C183.47 4.13866 181.65 4.17595 181.57 4.19987ZM188.023 3.85556C187.86 3.84392 187.892 3.23969 188.59 3.42109C188.682 3.44455 188.275 3.63314 188.351 3.66402C188.403 3.68081 189.861 3.66013 189.934 3.64106C190.004 3.62007 189.906 3.43422 189.977 3.4075C190.052 3.37793 190.978 3.4814 191.443 3.45058C192.328 3.39153 192.427 3.22441 192.494 3.21912C192.704 3.20349 193.065 3.29234 193.501 3.26225C194.41 3.19923 195.509 3.10071 196.633 3.0235C196.676 3.01765 196.809 3.01693 196.852 3.01244C198.424 2.95361 199.986 2.94876 201.005 3.12119C199.6 3.03249 198.256 3.17764 196.862 3.28027C196.82 3.28459 196.692 3.28528 196.65 3.29091C196.506 3.30608 196.362 3.32068 196.218 3.33443C196.639 2.97111 193.998 3.74138 195.54 3.25129C194.82 3.37908 188.558 3.88644 188.025 3.85543C188.024 3.85548 188.024 3.85552 188.023 3.85556ZM114.225 3.75092C114.644 3.58782 112.587 3.42311 112.395 3.64297C112.657 3.7019 114.169 3.76817 114.225 3.75092ZM123.25 4.14581C123.419 4.11801 123.58 3.73 124.462 3.96224C124.463 3.96226 124.464 3.96229 124.464 3.96231C124.724 4.02951 124.423 4.11809 124.47 4.15428C124.484 4.16964 125.308 4.39076 124.619 4.40434C123.581 4.42011 124.528 4.1043 123.983 4.08073C123.912 4.08009 122.894 4.24721 122.953 4.29605C122.958 4.30213 123.261 4.27279 123.311 4.29487C123.496 4.37847 123.398 4.49884 123.425 4.50611C123.503 4.53064 125.16 4.37191 125.416 4.55837C125.472 4.62999 122.759 4.67368 122.688 4.62103C122.626 4.59735 122.675 4.25259 122.612 4.21425C122.576 4.19789 121.556 4.24805 121.432 4.20018C121.395 4.18735 121.367 4.1746 121.347 4.16435C121.415 4.2233 121.238 4.23144 121.043 4.20843C120.787 4.17879 120.509 4.11626 120.533 4.05601C120.547 4.02856 120.828 4.05755 121.056 4.08759C121.176 4.10411 121.277 4.1206 121.286 4.12476C121.295 4.12925 121.303 4.13494 121.311 4.13907C121.186 4.00821 123.32 4.17297 122.873 3.94254C123.511 3.87189 122.765 4.22352 123.25 4.14581ZM126.496 4.02081C126.424 4.05654 126.35 4.09219 126.277 4.1278C127.506 4.05384 128.98 4.23114 130.469 4.23201C130.845 4.23249 130.411 4.00852 130.907 4.07029C131.307 4.11979 131.747 4.32782 131.53 4.37359C131.475 4.38496 130.667 4.24873 130.261 4.26203C129.069 4.30125 129.375 4.49307 129.304 4.49817C129.224 4.5035 128.483 4.36724 128.08 4.37144C127.075 4.38148 126.605 4.49939 125.291 4.32105C126.054 4.20896 125.638 3.92834 126.496 4.02081ZM174.151 4.38861C174.19 4.26566 175.024 4.32035 175.323 4.28283C175.283 4.40669 174.448 4.35284 174.151 4.38861ZM48.8546 0.884898C48.5871 1.07438 50.549 1.18351 50.0366 1.0031C49.9252 0.962965 49.1006 0.893454 48.8546 0.884898ZM57.5877 1.28061C57.8486 1.23348 56.8099 1.06086 56.8102 1.21385C56.8078 1.26299 57.5557 1.28691 57.5877 1.28061ZM143.207 4.32904C143.255 4.32336 143.975 4.37531 143.996 4.3856C144.469 4.60082 142.111 4.45366 143.207 4.32904ZM68.1027 1.2458C67.1991 1.36539 69.9039 1.45136 69.0774 1.27703C69.0323 1.26864 68.1416 1.24008 68.1027 1.2458ZM72.0135 1.27658C71.7968 1.27724 70.7931 1.18869 70.7799 1.24933C70.7577 1.34555 71.9011 1.4399 72.0135 1.27658ZM161.175 4.45606C161.074 4.23233 162.339 4.41215 162.783 4.38754C162.885 4.61149 161.612 4.43192 161.175 4.45606ZM153.142 4.21125C158.515 4.09223 157.323 4.55625 152.821 4.31637C152.816 4.17332 152.803 4.21867 153.142 4.21125ZM160.012 4.30755C159.822 4.44859 159.204 4.4004 158.798 4.38501C158.87 4.28645 159.721 4.33054 160.012 4.30755ZM46.5132 0.513968C46.86 0.341719 48.3682 0.606057 48.0964 0.67306C48.0343 0.686747 46.3812 0.609294 46.5132 0.513968ZM143.66 4.14325C143.539 3.92513 145.151 4.03127 145.273 4.08078C145.769 4.27988 143.791 4.09681 143.66 4.14325ZM168.449 4.20725C168.718 4.02783 169.498 4.08446 169.999 4.06399C169.777 4.21966 168.875 4.19531 168.449 4.20725ZM165.029 4.16219C165.044 4.1592 165.214 4.16208 165.387 4.16668L165.188 4.16804C165.381 4.1683 165.582 4.17016 165.599 4.17391C165.886 4.25066 165.536 4.28953 165.191 4.28864L165.386 4.2873C165.044 4.27775 164.694 4.22989 165.029 4.16219ZM8.06423 0.00149626C8.08996 -0.00397537 8.64048 0.00685613 8.65793 0.0132399C9.14876 0.176258 7.49726 0.142932 8.06423 0.00149626Z" fill="#FDD300" fill-opacity="0.6"/>
</svg>
