<svg width="50" height="50" viewBox="0 0 50 50" fill="none" xmlns="http://www.w3.org/2000/svg">
<path d="M40.8161 34.3771L40.2822 25.9221L42.8289 23.8551C43.4412 23.358 43.8245 22.6481 43.8945 21.8815C43.9644 21.1149 43.7153 20.3544 43.2019 19.7674L41.578 17.9114C41.1049 17.3706 40.4417 17.0163 39.7135 16.9152L39.6587 16.047C39.6425 15.7911 39.5213 15.5525 39.3219 15.3834L31.8782 9.07331C31.6788 8.90424 31.4175 8.81866 31.1516 8.83539L18.1195 9.65825C17.3219 9.70862 16.5762 10.0618 16.0464 10.6402C15.5167 11.2186 15.2463 11.9748 15.2948 12.7424L16.7568 35.8963C16.8052 36.6639 17.1686 37.38 17.7668 37.8872C18.3651 38.3944 19.1493 38.651 19.9469 38.6006L37.9914 37.4613C38.789 37.4109 39.5347 37.0577 40.0644 36.4793C40.5942 35.9009 40.8645 35.1447 40.8161 34.3771ZM18.7617 35.7697L17.2997 12.6158C17.2836 12.3599 17.3737 12.1079 17.5503 11.9151C17.7269 11.7223 17.9754 11.6045 18.2413 11.5877L30.271 10.8282L30.6064 16.141C30.6567 16.9369 31.368 17.5391 32.1941 17.4869L37.7147 17.1383L37.725 17.3023C37.5891 17.3806 37.4585 17.4706 37.3334 17.5721L34.8298 19.6044C34.7929 19.5067 34.724 19.4232 34.6336 19.3664C34.5431 19.3096 34.4359 19.2826 34.3278 19.2893L21.2957 20.1122C21.1628 20.1206 21.0385 20.1795 20.9502 20.2759C20.8619 20.3723 20.8169 20.4983 20.8249 20.6262C20.833 20.7542 20.8936 20.8735 20.9933 20.9581C21.093 21.0426 21.2237 21.0853 21.3566 21.077L33.9988 20.2787L31.411 22.3793L21.4785 23.0064C21.3455 23.0148 21.2212 23.0737 21.133 23.1701C21.0447 23.2665 20.9996 23.3925 21.0077 23.5205C21.0158 23.6484 21.0763 23.7678 21.176 23.8523C21.2757 23.9368 21.4064 23.9796 21.5394 23.9712L30.1175 23.4296L27.5297 25.5301L21.6612 25.9007C21.5283 25.9091 21.404 25.9679 21.3157 26.0643C21.2274 26.1607 21.1824 26.2868 21.1904 26.4147C21.1985 26.5426 21.2591 26.662 21.3588 26.7465C21.4585 26.8311 21.5892 26.8738 21.7221 26.8654L26.2363 26.5804L23.702 28.6369L23.6524 28.6807L21.844 28.7949C21.711 28.8033 21.5867 28.8622 21.4984 28.9586C21.4102 29.055 21.3651 29.181 21.3732 29.3089C21.3813 29.4369 21.4418 29.5562 21.5415 29.6408C21.6412 29.7253 21.7719 29.7681 21.9049 29.7597L23.2412 29.6753L22.0892 34.3043C22.0525 34.4514 22.0522 34.6045 22.0881 34.7514C22.124 34.8983 22.1953 35.0349 22.2961 35.1502C22.3969 35.2655 22.5246 35.3563 22.6687 35.4154C22.8129 35.4744 22.9696 35.5001 23.1262 35.4902L28.612 35.1477C28.8271 35.1344 29.0324 35.0549 29.1975 34.9209L38.3674 27.4765L38.8111 34.5037C38.8273 34.7596 38.7372 35.0117 38.5606 35.2045C38.384 35.3972 38.1355 35.515 37.8696 35.5318L19.8251 36.6711C19.5592 36.6879 19.2978 36.6024 19.0984 36.4333C18.899 36.2643 18.7779 36.0255 18.7617 35.7697ZM32.1331 16.5221C32.0682 16.5262 32.0032 16.518 31.9417 16.4979C31.8803 16.4778 31.8236 16.4462 31.7749 16.4049C31.7262 16.3636 31.6865 16.3135 31.658 16.2574C31.6295 16.2012 31.6128 16.1402 31.6089 16.0777L31.2987 11.1643L37.2387 16.1998L32.1331 16.5221ZM38.4419 24.8934L35.5329 21.5573L36.653 20.6477L39.5668 23.9797L38.4419 24.8934ZM25.9752 29.3157L34.7631 22.1822L37.6711 25.5184L28.976 32.5764L25.9752 29.3157ZM25.2313 29.9681L28.2053 33.2023L28.1603 33.2391L25.5398 33.4026L24.635 32.3671L25.2313 29.9681Z" fill="#3BAF75"/>
</svg>
