<svg width="237" height="19" viewBox="0 0 237 19" fill="none" xmlns="http://www.w3.org/2000/svg">
<path d="M18.3044 15.8764C18.4537 15.8562 19.0369 15.9062 19.2936 15.8979C19.0039 16.1122 17.7761 15.9495 18.3044 15.8764ZM44.6382 0.46286C44.424 0.511288 44.2076 0.559811 43.9888 0.608437C44.6039 0.655304 45.421 0.634798 45.9869 0.69917C46.0799 0.709911 45.8344 0.857566 46.0546 0.869837C46.2741 0.882102 46.2377 0.671131 46.5545 0.656747C46.9168 0.640828 48.5433 0.832371 49.1076 0.84645C51.2199 0.895827 53.3321 0.849447 55.404 1.00161C53.253 1.08845 55.4117 1.31598 56.0127 1.26673C56.1461 1.25463 56.1357 0.866527 58.2795 1.02502C59.6322 1.12319 58.3672 1.65023 60.6414 1.42598C58.9077 0.993359 60.6221 1.06435 61.9903 1.07979C62.2233 1.08307 64.1344 1.1787 64.9704 1.17389C65.261 1.17256 65.7045 0.974883 66.0832 0.974921C66.3434 0.975093 66.556 1.08986 66.9379 1.08918C67.7291 1.08856 68.5084 1.08961 69.3122 1.09534C70.4544 1.10484 71.4912 1.14022 72.5584 1.19101C71.4417 1.68543 73.4171 1.43913 73.492 1.46709C73.9299 1.62235 71.928 1.60537 72.7149 1.71715C73.8269 1.73258 74.9279 1.75023 76.0255 1.76699C75.1264 1.67533 77.2353 1.36087 77.6097 1.54364C77.4568 1.07689 82.5741 2.08783 83.3615 1.9477C83.5237 1.91837 82.4673 1.66555 84.9333 1.82651C85.2013 1.84405 85.0968 1.98186 85.2384 1.97187C85.3279 1.96596 85.8351 1.53161 86.3789 1.78862C86.5765 1.88182 85.299 2.15107 88.0843 2.08581C86.9872 1.61505 91.9451 1.90488 92.8539 2.02405C92.6741 1.96112 92.4917 1.89809 92.3089 1.83498C93.2099 2.01002 93.3724 1.85724 93.5775 1.86787C93.6245 1.87028 93.6726 1.8731 93.7216 1.87626C94.5657 1.92828 95.6621 2.08519 96.4238 2.09196C97.3686 2.10152 97.3815 1.81905 98.4825 1.96968C98.2226 1.89735 97.9627 1.8257 97.7025 1.75471C98.4653 1.79541 99.2296 1.84193 99.9916 1.89411C98.2075 2.18486 100.372 1.9283 100.513 1.93024C100.74 1.92856 100.408 2.06384 100.786 2.06498C100.825 2.06413 100.777 1.91672 101.358 1.93353C102.571 1.972 102.368 2.14297 102.875 2.17366C102.92 2.17609 102.771 2.03476 103.643 2.06504C106.417 2.17311 103.626 2.16095 103.515 2.17345C103.371 2.18907 104.291 2.78772 101.943 2.4438C102.735 2.55424 102.794 2.79982 102.884 2.81147C102.965 2.82055 104.328 2.88384 104.405 2.88252C105.08 2.85223 104.505 2.64427 104.637 2.62493C104.743 2.60778 106.365 2.95201 106.784 2.4953C107.527 3.01601 106.303 2.86458 104.985 2.83198C104.787 2.90915 106.22 3.11511 106.293 3.12213C108.138 3.27917 107.148 2.81992 107.574 2.61698C107.804 2.5117 108.52 2.8323 107.863 2.43684C109.539 2.55341 108.506 2.65477 108.612 2.69303C108.769 2.7497 109.359 2.70839 109.434 2.72835C109.539 2.75735 109.155 2.8376 109.574 2.91817C109.642 2.93054 110.336 2.79606 109.475 2.61845C110.638 2.75741 110.559 2.57999 110.921 2.95967C111.793 2.39338 111.463 3.39854 111.776 3.4662C112.611 3.64612 112.41 3.11417 112.459 3.09405C112.783 2.96562 115.075 3.37773 115.65 3.36515C115.396 3.70711 113.82 3.17829 113.455 3.21291C112.241 3.32648 115.121 3.56887 114.208 3.93846C114.578 3.84946 114.965 3.76241 115.338 3.67416C115.968 4.0385 115.017 4.06787 116.816 4.14907C117.134 3.92541 115.547 4.05567 115.88 3.88815C116.085 3.7907 117.113 3.87401 117.146 3.81488C117.171 3.74202 116.227 3.73142 116.387 3.63234C116.732 3.41744 120.137 4.02016 117.513 3.87657C118.235 3.94919 118.561 4.48254 119.204 4.39633C119.622 4.34057 117.403 3.41305 120.828 3.90834C120.868 4.14795 119.457 3.82996 119.408 3.84264C119.351 3.86267 119.56 4.41621 119.603 4.4471C119.657 4.48441 120.15 4.51968 120.815 4.56909C121.758 4.63812 123.132 4.66063 123.554 4.84392C123.284 4.5376 125.986 4.86091 126.321 4.76193C126.402 4.73717 126.101 4.5468 126.188 4.52799C126.727 4.41788 128.232 4.75878 128.945 4.76822C129.739 4.77954 129.643 4.61774 129.687 4.61815C130.036 4.62768 129.757 4.73674 129.971 4.73674C130.292 4.73638 132.545 4.76307 132.657 4.74126C132.69 4.73425 132.319 4.54856 132.816 4.51522C132.9 4.50974 132.846 4.72696 134.305 4.64018C136.065 4.53725 133.082 4.36125 133.815 4.13657C134.943 4.46862 134.915 4.14606 135.216 4.17342C135.304 4.18172 135.856 4.37517 136.538 4.43706C136.675 4.4499 136.818 4.45698 136.965 4.45543C136.821 4.4645 136.679 4.4736 136.538 4.48271C136.059 4.51218 135.592 4.54239 135.121 4.57315C135.477 4.60412 136.031 4.59939 136.537 4.60329C136.872 4.60583 137.191 4.61216 137.394 4.63645C137.632 4.66533 137.431 4.88901 137.955 4.88821C138.069 4.88688 138.51 4.34129 137.139 4.57435C137.033 4.37693 137.681 4.51123 137.986 4.4588C138.032 4.45062 138.217 4.12443 138.599 4.33223C138.69 4.38342 137.676 5.32954 140.282 4.66432C140.366 4.64288 140.077 4.51998 140.159 4.496C140.213 4.47974 140.882 4.53535 140.953 4.5191C141.028 4.50166 140.71 4.36743 140.799 4.34264C141.256 4.21486 141.852 4.74018 140.91 4.69053C141.222 4.75801 141.54 4.82557 141.854 4.8931C141.522 4.49842 142.349 4.78841 142.788 4.78115C145.586 4.73481 143.716 4.45998 144.198 4.33366C144.978 4.13094 144.374 4.79355 145.528 4.60518C145.633 4.58755 144.25 4.28815 146.957 4.4784C146.558 4.48505 146.156 4.49167 145.757 4.49833C145.983 4.87909 147.201 4.48836 147.295 4.48409C148.359 4.44393 147.639 4.57234 149.221 4.39501C149.362 4.37908 149.669 4.47581 149.971 4.43256C151.223 4.25449 148.322 4.29801 148.244 4.14397C148.207 4.06856 151.327 4.12179 151.433 4.1585C151.886 4.3214 150.019 4.21261 150.373 4.41256C150.502 4.48378 154.949 4.38888 155.839 4.474C156.867 4.5734 157.322 5.09074 157.336 4.51464C157.621 5.08315 157.88 4.69977 158.01 4.70495C159.598 4.7728 159.605 4.77855 160.966 4.73664C161.267 4.72753 161.515 4.90128 161.625 4.87324C161.687 4.85626 161.573 4.67164 161.877 4.61754C162.301 4.54415 164.817 4.75154 165.006 4.85348C165.196 4.95629 163.942 4.89069 164.166 5.05902C164.482 5.06723 164.817 5.06796 165.125 5.06626L164.949 5.06745C165.507 5.05029 166.057 5.02424 166.624 5.01951C166.994 5.01669 166.807 5.13891 166.967 5.13653C167.034 5.13701 168.301 4.99109 168.245 4.94911C168.116 4.86353 164.198 5.02988 165.226 4.79895C165.424 4.75566 166.133 5.00778 166.014 4.68312C169.511 4.6717 173.015 4.54935 176.597 4.37597C174.558 4.76214 172.256 4.68634 170.145 4.8064C169.855 4.82341 168.876 4.83297 169.002 4.99308C170.799 4.9645 173.035 4.75333 174.792 4.747C174.848 4.74697 174.653 4.90851 174.863 4.91856C175.258 4.93775 176.523 4.61206 176.741 4.65872C176.778 4.67075 176.065 4.91596 176.295 5.0251C176.882 5.30537 176.986 4.58838 177.472 4.5627C177.855 4.5437 180.433 4.69942 181.063 4.43524C181.726 4.15524 179.16 4.44132 179.337 4.23898C181.062 3.92332 182.841 3.99247 184.495 3.84605C184.524 3.84327 184.259 3.71488 184.628 3.66672C185.273 3.5828 185.449 3.77992 185.768 3.78989C186.109 3.80039 187.308 3.68227 187.466 3.74743C187.487 3.75595 187.263 3.98069 187.227 3.98915C186.707 4.11307 186.505 3.8576 186.457 3.85763C186.278 3.86053 186.117 3.97596 185.951 3.98203C185.68 3.99173 185.525 3.90737 185.175 3.92487C184.934 3.93654 185.179 4.10237 184.947 4.11114C184.857 4.11402 183.9 3.7649 183.848 4.19772C183.827 4.33187 191.429 3.94966 192.193 3.79379C191.525 3.78877 190.886 3.78216 190.22 3.77796C191.556 3.80817 193.119 3.35784 193.272 3.8543C194.301 3.79225 195.326 3.73186 196.37 3.67152C196.41 3.66622 196.529 3.66556 196.569 3.6615C200.518 3.55894 204.407 3.5213 208.291 3.48486C209.169 3.51269 208.693 3.84581 210.133 3.72663C209.762 3.62941 209.384 3.53234 209.01 3.43526C209.753 3.49487 213.021 3.58173 213.55 3.50549C213.619 3.49552 213.706 3.19996 214.523 3.16055C215.246 3.12569 215.365 3.34393 215.754 3.37927C216.081 3.40831 216.441 3.3441 216.538 3.3545C216.612 3.36291 216.644 3.4971 216.822 3.51736C217.385 3.57974 216.925 3.20873 217.488 3.63409C217.353 3.65319 217.219 3.67226 217.083 3.69136C217.76 3.74207 218.689 3.92232 217.693 4.03858C217.523 4.0586 217.667 3.92554 217.539 3.92813C212.527 4.0422 216.535 4.22512 218.287 3.98936C218.741 4.17452 221.264 4.0061 221.349 4.04185C221.466 4.09453 221.039 4.25792 221.606 4.3793C221.726 4.40614 225.096 4.22145 223.889 4.50573C223.637 4.5648 222.02 4.54498 221.63 4.56049C222.559 4.95092 224.692 4.31509 224.935 4.32378C225.913 4.36412 223.069 4.72334 225.269 4.71817C226.956 4.71281 225.366 4.47897 226.012 4.34611C226.376 4.27201 228.294 4.52196 228.23 4.13316C228.883 4.07329 228.506 4.29035 228.587 4.30295C228.667 4.314 229.951 4.16016 230.371 4.2293C230.422 4.23798 230.269 4.44542 230.322 4.46041C230.426 4.48594 231.664 4.40663 231.714 4.38759C231.746 4.37465 231.444 4.20677 231.564 4.15986C231.705 4.10597 232.899 4.10825 232.963 4.05505C233.053 3.97558 231.583 4.07476 231.821 3.86822C232.502 3.8964 233.604 3.72604 234.045 3.55024C233.937 3.59988 233.28 3.6295 233.051 3.62113C233.149 3.32734 234.56 3.28125 234.086 3.52827C234.388 3.3938 234.176 3.33583 234.345 3.21308C234.389 3.18197 234.825 3.15993 234.907 3.10649C234.918 3.09609 234.464 3.00304 234.552 2.94073C234.712 2.82851 236.031 2.80257 236.14 2.82592C236.448 2.89337 235.375 3.03104 235.29 3.15668C235.277 3.17614 236.203 3.38101 236.218 3.40149C236.28 3.62705 235.254 3.50233 235.378 3.70257C235.632 3.73631 235.886 3.76988 236.14 3.80328C235.175 4.04945 233.371 4.00681 232.913 4.25806C234.355 4.13922 235.865 4.08922 235.883 4.62054C235.891 4.84441 235.272 4.99931 235.298 5.05523C235.398 5.25551 236.256 5.00103 236.288 5.01038C236.315 5.02175 236.327 5.03336 236.328 5.04511C236.328 5.04512 236.328 5.04513 236.328 5.04513C236.332 5.16462 235.101 5.29771 235.041 5.35411C234.941 5.45469 235.505 5.83206 235.508 5.92004C235.49 5.9386 234.613 6.06542 234.916 6.20801C235.222 6.35222 235.993 6.32622 236.021 6.34119C236.171 6.42859 234.827 6.56428 234.788 6.62024C234.768 6.64881 235.498 6.79212 235.521 6.84016C235.541 6.88864 234.995 7.01646 234.783 7.1794C234.625 7.30054 235.101 7.37148 235.018 7.39258C234.959 7.40708 233.682 7.45094 233.621 7.47305C233.529 7.50626 233.832 7.6335 233.79 7.66943C233.73 7.72113 233.315 7.68574 233.371 7.7348C233.413 7.77182 235.028 8.18927 235.023 8.3159C235.013 8.53307 233.299 8.09679 234.908 8.89283C234.92 8.89805 235.301 8.82318 235.312 8.82801C235.555 8.97606 234.333 9.26378 235.837 9.16489C233.044 9.54169 235.5 9.50322 235.099 9.88258C234.944 10.0287 233.858 10.1254 233.854 10.1463C233.966 10.3202 234.307 10.1702 234.428 10.253C234.495 10.2995 233.529 10.5214 233.752 10.6356C233.867 10.6947 234.9 10.6352 234.944 10.6457C235.358 10.7462 234.86 10.8891 234.953 10.9679C235.015 11.0208 235.639 11.0019 235.656 11.0111C235.683 11.0308 234.843 11.2847 234.669 11.3691C234.537 11.4341 235.045 11.51 234.952 11.5396C234.392 11.7173 233.177 11.3594 234.354 11.8788C234.426 11.9107 234.864 11.8809 234.877 11.8873C235.154 12.0362 234.347 12.0794 234.208 12.2143C233.968 12.4472 235.124 12.2809 234.164 12.4729C234.893 12.5936 235.297 12.5728 236.143 12.4995C233.801 12.7018 232.991 13.3097 235.599 13.2004C234.77 13.2223 234.873 13.5459 234.625 13.5607C234.471 13.5697 233.257 13.2862 233.834 13.9972C233.907 14.0861 234.634 13.9442 234.411 14.139C232.654 14.153 234.378 14.2594 234.381 14.2838C234.374 14.7177 230.069 14.5057 229.335 14.5724C228.482 14.6538 227.732 15.0131 227.546 15.0184C226.935 15.0347 227.437 14.8492 227.299 14.7895C227.16 14.7308 225.43 15.1044 225.343 15.088C225.004 15.0234 225.341 14.8111 225.306 14.8017C224.884 14.6875 222.56 14.9002 221.905 14.866C221.926 14.998 223.24 14.9801 222.425 15.2104C221.476 15.4787 221.413 14.8961 221.386 14.871C217.022 14.9675 212.67 15.0408 208.334 15.1221C208.396 15.4312 211.224 15.1487 211.293 15.1885C211.673 15.4238 206.883 15.5014 206.297 15.404C206.742 15.4628 207.189 15.5217 207.638 15.5808C206.879 15.9511 205.189 15.5186 204.097 15.6988C203.742 15.7572 204.427 15.881 204.412 15.8907C204.02 16.0372 203.372 15.944 203.849 15.7479C202.881 15.9466 203.017 15.747 202.273 15.7489C202.235 15.7492 202.555 15.8859 201.972 15.959C201.691 15.9929 200.223 16.0299 200.033 16.1615C199.954 16.2166 200.71 16.7556 200.792 16.2727C202.392 16.4679 201.295 16.0412 201.919 16.0374C202.018 16.0379 201.796 16.3102 203.364 16.1498C203.078 16.6393 201.26 16.319 200.96 16.3858C200.327 16.5213 202.952 16.7083 203.428 16.3223C203.212 16.7047 203.614 16.3691 204.205 16.3726C204.844 16.3765 204.568 16.4946 204.916 16.4882C205.871 16.4724 205.465 16.2137 206.259 16.4391C205.476 15.7096 207.607 16.3159 208.222 16.5003C207.225 16.5556 206.216 16.6117 205.222 16.6688C205.281 16.7067 205.338 16.7447 205.395 16.7827C205.134 16.7822 204.866 16.7819 204.604 16.7816C204.645 16.7433 204.687 16.7051 204.728 16.6668C203.377 16.9373 203.046 16.6717 202.933 16.671C201.511 16.6702 199.873 16.713 198.451 16.7556C198.247 16.7621 198.377 16.9792 197.028 16.8768L197.242 16.866C197.179 16.8635 197.114 16.8604 197.045 16.8568C196.535 16.8298 196.998 16.6092 196.43 16.6755C195.758 17.2363 195.745 16.8259 195.531 16.8397C194.918 16.8811 194.564 17.0333 194.508 17.0384C193.753 17.11 192.653 17.1651 191.839 17.2416C191.823 17.2447 192.261 17.3724 191.725 17.3633C191.526 17.3605 189.805 16.806 188.342 17.1338C188.723 17.1517 189.119 17.1685 189.502 17.1865C189.042 17.1552 185.898 17.5573 186.682 17.6807C187.169 17.7555 188.297 17.2364 188.448 17.645C187.395 17.5947 181.575 18.2175 181.109 18.1532C181.045 18.144 181.421 17.9801 181.333 17.9692C181.267 17.961 179.927 18.0912 179.742 18.052C179.634 18.0288 180.223 17.9028 180.17 17.8575C180.13 17.8258 178.437 17.889 178.354 18.0649C178.765 17.9678 179.928 17.9439 179.33 18.1306C179.254 18.154 178.841 18.0735 178.746 18.1028C177.877 18.3738 180.512 18.1356 180.921 18.1062C179.28 18.4444 176.699 18.3726 174.755 18.6328C173.961 18.5401 175.907 18.3439 175.01 18.2823C173.149 18.1524 174.53 18.5081 174.475 18.5296C174.024 18.7015 172.413 18.0248 172.443 18.6058C171.765 18.5535 171.979 18.4698 171.03 18.5921C171.157 18.6265 171.285 18.6608 171.412 18.6949C170.368 19.0879 168.083 18.3206 168.252 18.2479C168.697 18.0595 169.876 18.2836 169.976 18.2721C170.123 18.2552 170.504 17.6514 172.139 18.0968C172.777 17.6692 169.575 17.9538 171.022 17.6138C170.04 17.7163 165.963 17.5737 165.382 17.7492C165.331 17.7666 165.493 17.9749 165.201 18.0202C165.171 18.0187 165.079 18.0235 165.049 18.0212C164.943 18.0357 164.774 18.0247 164.499 17.9673C164.028 17.8685 165.161 17.8711 164.945 17.7796C164.286 17.5052 155.377 17.5982 153.695 17.5924C153.585 17.5916 153.627 17.4694 153.519 17.4694C153.186 17.4693 151.981 17.6392 151.388 17.5763C152.613 17.8167 150.229 17.8084 149.625 17.7768C148.705 17.7286 148.765 17.5133 148.368 17.4631C146.838 17.2692 144.463 17.7554 143.278 17.2633C143.337 17.7395 141.224 17.0077 140.26 16.9934C139.506 16.9819 138.408 17.2852 139.422 17.4875C138.426 17.4603 137.389 17.4977 136.411 17.5246C136.107 17.5329 135.82 17.5404 135.534 17.5449C135.332 17.5482 135.61 17.4097 135.267 17.4198C135.236 17.4217 135.191 17.5591 134.901 17.5714C132.472 17.6772 133.658 17.392 133.202 17.3034C132.947 17.2541 132.765 17.2296 132.623 17.2212C134.037 17.1983 135.673 17.1568 136.103 17.1572C135.737 16.8478 132.969 17.1937 132.162 17.1114C132.135 17.1083 132.232 16.9409 132.203 16.9396C132.203 16.9396 132.202 16.9396 132.202 16.9396C131.896 16.9255 129.955 16.9844 130.355 17.185C130.46 17.2387 131.359 17.2395 132.413 17.2244C132.128 17.2611 132.34 17.4496 132.29 17.4575C131.678 17.5483 130.177 17.3629 129.639 17.3373C129.515 17.3317 129.524 17.4521 129.504 17.4524C129.017 17.4242 129.216 17.0809 128.714 17.4342C127.832 17.0041 130.371 17.3738 130.193 17.095C130.082 16.887 124.353 16.9721 124.308 17.2833C124.288 17.2467 124.208 17.1999 124.039 17.1441C123.673 17.0256 121.969 16.9847 121.66 17.0207C121.608 17.0297 121.607 17.3578 121.544 17.3567C121.435 17.3555 120.383 17.1621 119.467 17.0493C119.102 17.0049 118.769 16.986 118.546 17.022C118.843 17.0904 119.143 17.1592 119.447 17.2286C119.538 17.2481 119.629 17.2674 119.72 17.2863C119.624 17.2766 119.532 17.2672 119.444 17.258C117.394 17.0461 117.744 17.1787 118.475 17.3522C118.513 17.3572 118.549 17.3735 118.585 17.3788C118.851 17.4405 119.155 17.5058 119.411 17.5615C119.76 17.633 120.024 17.6847 120.03 17.6996C120.04 17.7243 119.782 17.7223 119.397 17.6951C118.343 17.6259 116.241 17.3765 116.835 17.2085C116.946 17.1784 118.748 17.5082 117.868 17.1955C117.712 17.1405 116.544 17.0776 116.484 17.0472C116.09 16.8451 118.662 16.9086 118.375 16.6509C117.727 16.7973 116.951 16.6002 116.237 16.5799C115.918 16.5712 115.817 16.7255 115.777 16.7244C115.175 16.7036 115.528 16.568 115.329 16.5513C115.227 16.5432 114.014 16.784 114.29 16.3051C110.404 16.2753 113.195 16.5613 115.551 16.7829C114.796 16.8876 113.325 16.6438 112.675 16.62C112.436 16.6109 112.557 16.7929 112.158 16.7857C111.334 16.7674 107.468 16.1933 106.475 16.0652C107.096 16.061 106.935 15.862 106.456 15.8321C105.977 15.8026 106.357 16.0822 106.261 16.1002C106.163 16.1166 103.942 15.8148 103.577 15.8222C105.25 15.8644 104.893 15.6514 103.474 15.5226C103.686 15.4857 103.89 15.4485 104.1 15.4121C103.262 15.4182 101.543 15.0207 101.059 15.077C100.983 15.0857 101.242 15.2558 101.2 15.2607C100.778 15.2982 99.3657 15.0659 99.296 15.1167C99.238 15.1574 99.8372 15.3167 99.6094 15.3688C99.562 15.3798 98.9884 15.1423 98.4107 15.1695C98.1967 15.1794 98.3191 15.3302 98.2651 15.3364C97.815 15.3887 98.0886 15.1527 97.2685 15.1632C96.6665 15.1725 96.2143 15.3986 95.3849 15.3013C98.1016 15.6771 95.8154 15.4829 94.6732 15.5585C94.4914 15.5707 94.641 15.8299 93.5804 15.6981C93.5692 15.6968 93.5579 15.6954 93.5465 15.694C93.5579 15.6919 93.5693 15.6898 93.5805 15.6877C94.9876 15.4152 94.3943 15.3815 93.5835 15.3938C93.0552 15.4018 92.4615 15.4263 92.2121 15.4213C92.1769 15.4192 92.1662 15.2448 91.852 15.2381C91.8256 15.2379 91.8617 15.3562 91.5709 15.3615C88.8047 15.4083 90.5733 15.2996 90.049 15.1761C89.8242 15.1235 88.4734 15.2683 88.116 15.2657C88.0319 15.2646 88.072 15.143 87.7479 15.1419C87.1793 15.1405 86.6617 15.2608 86.2876 15.2636C86.2437 15.2633 86.2477 15.0705 85.5298 15.1183C85.3291 15.1316 85.1046 15.1954 85.3864 15.2569C86.3304 15.4599 88.1265 15.1776 89.1952 15.3767C90.1673 15.559 87.0884 15.523 86.932 15.5194C86.8734 15.5189 87.4783 15.4345 86.8654 15.4039C86.3428 15.3781 85.39 15.6925 84.6112 15.6026C84.5514 15.5959 83.9421 15.2993 83.9688 15.2834C83.9999 15.2722 84.9448 15.2317 84.8109 15.1469C84.7931 15.1372 84.1915 15.1258 84.1143 15.063C84.0179 14.9866 83.7726 14.2529 83.6446 14.2317C83.316 14.1789 83.5264 14.3499 83.3144 14.3334C82.8495 14.2984 81.2736 14.0434 81.21 14.2938C81.4779 14.3158 81.7324 14.3373 81.9972 14.3589C80.5355 14.3476 81.1534 14.4706 80.9457 14.5126C80.7201 14.5579 80.7968 14.3381 80.2977 14.3039C80.1933 14.297 78.1239 14.2853 78.1654 14.3792C79.3043 14.2636 78.8802 14.5256 78.9315 14.532C79.1277 14.5554 79.3858 14.4088 79.657 14.4193C81.5421 14.4945 79.6311 14.6856 80.0754 14.76C80.2269 14.7851 80.5401 14.6622 80.6044 14.6706C80.8127 14.6979 80.812 14.8698 80.9529 14.8596C81.2832 14.836 80.9049 14.5828 80.9315 14.5709C81.2325 14.4267 82.3753 14.645 81.6535 14.8914C82.0788 14.9976 82.145 14.6775 82.4794 14.8144C83.149 15.0854 82.1391 14.9954 81.8583 15.0304C80.8675 15.1577 80.5741 15.0268 79.1755 15.0303C78.6724 15.0311 78.0754 15.1702 77.8369 15.1719C77.69 15.1731 76.3213 14.5889 76.2523 15.4377C75.7198 15.3394 74.8882 14.7534 74.3356 14.7624C73.8398 14.7709 73.9907 15.0765 73.9438 15.0867C73.8665 15.1027 73.2771 15.0613 73.068 15.0978C72.8286 15.141 72.9508 15.2594 72.5688 15.2952C71.6334 15.3847 71.6745 15.0792 71.5757 15.0565C70.4794 14.7972 70.9532 15.2469 70.7118 15.2759C70.6076 15.2882 69.9083 15.2443 69.1725 15.2137C68.1487 15.1756 66.9854 15.1372 66.612 15.1931C66.8882 15.1352 67.1683 15.0773 67.4524 15.0192C66.9459 14.8215 66.427 15.1269 66.4143 14.7832C66.2935 15.3364 65.2846 14.9512 64.9574 14.9601C64.8335 14.9641 64.8416 15.0587 64.6876 15.0603C64.1004 15.0679 62.7346 14.9676 62.4059 15.0087C60.9906 15.1876 64.6032 15.6006 64.8762 15.623C64.321 15.6103 61.0842 15.6714 62.5618 15.967C62.7931 16.0127 63.2027 15.7721 63.3288 15.7647C64.199 15.7163 63.5109 15.9265 63.5786 15.9489C63.6931 15.9852 64.2772 15.7802 64.4213 15.8081C64.4727 15.8171 64.1412 16.0133 64.9729 16.0309C64.5657 16.2209 62.2264 16.0193 61.9298 16.0579C61.822 16.0716 62.4896 16.5048 60.5035 16.0552C60.5259 16.0945 60.5483 16.1337 60.5708 16.173C59.463 16.1636 58.3463 16.1508 57.2355 16.1352C57.3575 16.0494 57.9856 15.8877 57.2013 15.9036C56.7527 15.9128 57.0791 16.121 57.0377 16.1256C56.6107 16.175 49.4976 15.8703 48.1598 15.8567C47.6966 15.8499 46.4102 15.9747 46.3086 15.9754C45.7263 15.975 43.6542 15.8245 43.2428 15.8404C42.9851 15.8499 43.2271 16.0207 42.9964 16.0086C42.781 15.997 43.0074 15.8406 42.9435 15.8327C42.534 15.7783 40.0079 15.8554 38.4534 15.8245C38.0268 15.8154 37.6476 15.7963 37.4459 15.7612C37.6127 15.7762 38.0153 15.7605 38.4543 15.7281C39.5198 15.6522 40.9178 15.4906 40.888 15.411C40.871 15.3951 40.1742 15.2633 40.0256 15.3212C39.7784 15.1788 38.9618 15.5927 38.5003 15.5052C38.4747 15.5003 38.5124 15.4402 38.4578 15.3745C38.4036 15.3074 38.261 15.2345 37.8491 15.209C37.5676 15.1917 36.8417 15.3706 36.1067 15.1579C35.0494 15.2473 29.4326 14.9138 29.0485 15.1691C29.0356 15.1825 29.8298 15.2732 29.2933 15.376C28.5822 15.5127 29.2229 15.046 28.395 15.0028C28.2686 14.996 25.9678 15.0369 25.8906 15.0659C25.1927 15.3273 27.2047 15.4392 27.1767 15.4698C27.1061 15.5465 25.434 15.5888 25.3661 15.5705C25.3015 15.5515 26.6661 15.2061 25.0267 15.3344C25.2146 15.3765 25.4023 15.4186 25.5899 15.4607C24.8188 15.54 24.7455 15.2987 24.559 15.2835C23.9784 15.2356 23.3495 15.6007 22.4195 15.1465C22.1735 15.026 22.5825 14.8933 22.5518 14.8753C22.2558 14.7131 21.8793 15.1449 21.4344 14.8217C21.4016 14.7976 22.4355 14.6059 20.6281 14.6027C20.7521 14.6338 20.8763 14.6649 21.0006 14.696C20.7478 14.7646 18.9125 14.8034 18.6682 14.7868C17.9489 14.7384 18.5758 14.517 17.8523 14.5429C18.3154 14.8475 16.1187 14.8853 16.2432 14.6236C15.9347 14.9522 14.0651 14.6974 13.187 14.6893C12.6332 14.6844 11.508 14.8277 11.3247 14.8109C11.1099 14.7903 11.1733 14.5659 10.7911 14.5159C10.6738 14.5016 9.52599 14.666 8.5111 14.4337C8.32437 14.3889 7.89524 14.0083 8.26861 13.9132C8.88514 13.7504 10.0799 14.0571 10.0591 13.8322C10.0411 13.5916 8.45079 13.7346 8.01901 13.7032C7.86865 13.6922 7.73892 13.6805 7.62637 13.6684C6.2121 13.5202 7.18334 13.2963 7.13329 13.2247C7.00932 13.0365 5.917 13.0423 5.87578 13.0254C5.686 12.9503 6.46223 12.8014 6.46642 12.6865C6.48725 12.537 5.44246 12.2672 5.67876 12.2168C6.00754 12.1452 6.97571 12.3701 7.03401 12.3594C7.81763 12.2143 6.74073 11.8689 6.44156 11.6992C6.35185 11.647 6.70913 11.5612 6.63498 11.5459C5.49267 11.3135 6.39015 12.0313 5.63508 11.9834C4.94635 11.9407 5.83794 11.7137 5.80306 11.7012C5.77297 11.6874 4.95692 11.675 4.82811 11.5947C4.77624 11.5545 6.87272 11.113 6.78993 10.915C6.12462 10.9586 5.43996 11.0022 4.76828 11.0459C4.71326 10.7877 5.68527 10.9777 5.7863 10.9511C5.98718 10.8977 5.42382 10.7671 5.44719 10.6855C5.46055 10.6336 6.12648 10.4484 5.52458 10.372C5.31746 10.3456 4.89369 10.5266 4.14606 10.3417C6.73244 10.1056 4.95272 9.96049 4.86317 9.86906C4.78862 9.77763 6.03346 9.56244 4.52466 9.60049C4.45826 9.09815 4.55809 9.4417 4.98401 9.35341C5.51813 9.24488 4.29219 9.07947 6.21426 9.20497C6.10054 8.96978 4.56432 8.98642 4.4823 8.96765C4.4112 8.95065 4.75733 8.83497 4.63528 8.79577C3.18414 8.34133 4.17873 8.54885 3.76292 8.25864C3.72308 8.23271 2.36052 8.12512 3.39888 8.08285C5.30224 8.00602 6.07567 8.3393 6.40175 7.62678C4.9995 7.31728 3.30104 7.77719 2.88221 7.78499C2.22674 7.79622 2.90162 7.65091 2.82331 7.61018C2.79265 7.59702 2.23098 7.60903 2.22821 7.59748C1.82295 7.05404 4.7281 7.58846 5.63879 7.49397C5.38532 7.41258 5.15563 7.3312 4.90202 7.24982C5.24249 7.24656 5.57025 7.2433 5.89807 7.24005C4.32087 7.07645 5.84243 7.17811 6.23926 6.73808C6.3244 6.63921 5.28503 6.80877 6.47175 6.53397C5.59613 6.47053 5.87405 6.38063 5.08733 6.50467C5.09922 6.32829 6.89223 6.12934 7.59169 6.03883C5.11175 5.84063 6.51927 6.48757 4.37668 6.14528C3.97973 6.36368 5.00282 6.32116 4.91925 6.3572C4.62756 6.48682 3.92447 6.28101 3.07075 6.73515C2.93297 6.80971 3.51595 7.03922 2.65328 7.02813C2.56455 7.02655 2.00493 6.83042 2.01534 6.81621C2.08762 6.6626 2.63872 6.72016 2.65506 6.65604C2.68009 6.59535 2.07071 6.63185 2.06637 6.61503C2.04972 6.42259 2.57279 6.54148 2.49906 6.48123C2.32894 6.35021 0.151564 5.93609 2.99917 6.05739C0.633634 6.27495 2.69457 6.26987 3.61971 6.1863C3.85382 6.16535 3.91468 6.0504 4.2488 6.01051C4.68358 5.95885 5.18909 6.01402 5.40652 5.99293C5.64773 5.96968 4.28008 5.69798 6.25875 5.77906C5.24688 5.50879 3.48112 5.79694 2.49532 5.60717C0.506755 5.22372 3.87817 5.14139 4.23288 5.10423C4.32538 5.09416 4.01502 4.93892 4.07589 4.92941C4.17433 4.91483 6.08914 4.98658 6.2848 4.85812C6.46927 4.72978 5.58855 4.86404 5.52 4.73019C5.47857 4.64008 7.80025 4.48024 6.53958 4.41865C5.68196 4.37643 4.08853 4.73861 3.82044 4.34931C5.08976 4.31712 6.34767 4.28492 7.62637 4.25272C7.62746 4.25269 7.62854 4.25266 7.62963 4.25263C7.62854 4.25239 7.62746 4.25215 7.62637 4.25192C6.92574 4.10404 6.23498 3.95616 5.54289 3.80828C6.27217 3.7842 6.94746 3.8164 7.62637 3.82495C8.25119 3.83309 8.90049 3.81984 9.54936 3.71652C6.30948 3.2418 10.606 3.33775 10.6548 3.28008C10.6678 3.24553 9.38529 2.86017 9.18595 2.78971C10.3126 2.64143 13.7651 2.5699 11.7493 2.09371C12.11 2.20118 13.0015 1.93632 12.9878 1.91631C12.8814 1.70607 10.9413 1.84191 11.2573 1.65218C11.6294 1.43199 12.1322 1.73091 12.6985 1.70722C15.5834 1.58397 14.7901 0.486357 17.685 0.662285C17.6277 0.623168 17.5705 0.584053 17.5134 0.544938C20.6559 0.609937 23.8041 0.676923 26.9509 0.747854C28.1818 0.415872 31.4669 0.223492 33.0778 0.269422C33.403 0.278104 35.0019 0.46322 35.1164 0.494979C35.3395 0.555406 34.1157 0.570446 34.669 0.684588C34.7789 0.707307 37.4847 0.800636 37.2993 0.612364C36.9879 0.587946 36.0432 0.675167 35.8891 0.630017C35.3948 0.484073 36.8432 0.466065 38.6033 0.485135C40.7611 0.506811 43.3651 0.59832 43.6023 0.534318C43.4183 0.469841 43.2324 0.405437 43.0445 0.341107C43.5805 0.380888 44.1082 0.421409 44.6382 0.46286ZM20.4237 15.3476C20.1087 15.5352 19.3242 15.393 18.8591 15.4453C18.218 15.5185 17.1279 16.2418 17.5969 15.5163C18.5387 15.4598 19.4816 15.4036 20.4237 15.3476ZM34.1755 15.6708C33.5511 15.5662 34.0334 15.1634 34.5548 15.3351C34.611 15.3546 35.0317 15.8118 34.1755 15.6708ZM27.5674 15.4504C27.5946 15.4451 28.1374 15.4575 28.1576 15.464C28.6461 15.6283 27.0031 15.59 27.5674 15.4504ZM59.4286 15.8361C58.726 15.8359 59.2212 16.2172 59.6686 16.0764C59.6966 16.0675 59.4749 15.8364 59.4286 15.8361ZM58.9303 15.8137C58.3839 15.4697 57.2745 16.1082 58.1476 16.0647C58.2291 16.0602 58.9584 15.8306 58.9303 15.8137ZM31.9321 15.498C32.0005 15.3718 32.6565 15.436 32.9309 15.4677C32.9258 15.5831 32.1996 15.4851 31.9321 15.498ZM48.2861 15.7002C48.3124 15.6005 46.0773 15.544 45.9254 15.6726C46.2775 15.6247 48.2535 15.7879 48.2861 15.7002ZM54.0807 15.7459C54.023 15.7269 53.2374 15.7276 53.257 15.8159C53.6393 15.9436 54.3374 15.832 54.0807 15.7459ZM65.7593 16.03C65.805 16.0085 65.2118 15.4422 66.6214 15.829C66.828 15.8856 66.0848 16.0215 66.1577 16.0425C66.3119 16.0837 66.436 16.1036 66.5346 16.1082C65.8621 16.1455 65.2086 16.1573 65.1315 16.1222C64.8246 15.9575 65.7418 16.0391 65.7593 16.03ZM71.7493 15.7099C71.8777 15.6221 72.7261 15.6949 72.9133 15.738C72.9467 15.7461 72.7934 15.981 73.1769 15.9744C73.4871 15.9688 73.0362 15.7102 73.6278 15.767C74.2359 15.8246 73.4162 15.9749 73.4716 15.989C73.5405 16.0074 74.4779 15.9255 74.4474 16.0672C74.4188 16.172 73.422 16.0705 73.1754 16.0858C72.8578 16.1053 73.2322 16.2923 72.7124 16.2393C72.3771 16.2059 72.5726 15.9021 72.5023 15.8844C72.4431 15.8698 71.2948 16.0163 71.751 15.7109C71.7505 15.7106 71.7499 15.7102 71.7493 15.7099ZM66.7084 16.0968C66.6598 16.1066 66.603 16.1114 66.5346 16.1082C66.5927 16.1048 66.6508 16.1007 66.7084 16.0968ZM22.2489 15.2146C22.5767 15.3106 21.6035 15.4313 21.2332 15.3058C21.2273 15.2049 22.1967 15.1996 22.2489 15.2146ZM67.3147 15.8525C68.3007 15.9418 67.5607 16.0401 66.7084 16.0968C66.9797 16.0421 66.9881 15.8226 67.3147 15.8525ZM40.0256 15.3212C40.0654 15.3447 40.0903 15.381 40.0928 15.4402C39.9884 15.3742 39.9792 15.3394 40.0256 15.3212ZM42.2338 15.4595C42.9939 15.2926 41.4471 15.2733 41.4614 15.4029C41.4601 15.4514 42.2058 15.4661 42.2338 15.4595ZM60.3324 15.8754C60.2629 15.8561 61.3778 15.3385 59.7684 15.7086C60.6163 15.793 59.7234 15.8309 59.73 15.8786C59.7609 16.0167 61.2031 15.9185 61.5198 15.9839C61.7724 15.7445 60.5714 15.9394 60.3342 15.8754C60.3336 15.8754 60.333 15.8754 60.3324 15.8754ZM82.6976 16.1522C82.5029 16.291 81.8814 16.2295 81.471 16.2105C81.6637 16.0719 82.2876 16.1338 82.6976 16.1522ZM191.204 17.4462C188.413 17.7792 188.002 17.224 190.591 17.2687C190.639 17.2701 191.37 17.3751 191.204 17.4462ZM166.677 18.8412C166.395 18.5939 167.305 18.5292 167.905 18.6142C168.042 18.6335 168.553 18.8742 167.981 18.9439C167.988 18.6352 167.101 18.5454 166.677 18.8412ZM67.871 15.6961C68.0931 15.5627 68.6899 15.6197 69.168 15.663C69.2676 15.6736 69.3652 15.6836 69.4508 15.6899C69.3844 15.7242 69.2817 15.7452 69.1671 15.7569C68.759 15.7912 68.1664 15.7393 67.871 15.6961ZM181.939 17.8217C181.64 17.8244 181.451 18.0605 181.505 18.075C181.746 18.1421 182.285 17.9225 181.939 17.8217ZM65.0585 15.6317C65.0292 15.53 66.1666 15.4491 66.251 15.701C65.9967 15.6795 65.0954 15.6961 65.0585 15.6317ZM81.9153 16.0567C81.7386 16.0006 82.6646 15.9313 82.9443 15.9891C82.9169 16.0966 82.0347 16.0933 81.9153 16.0567ZM177.117 18.2424C176.843 18.2419 176.171 18.2807 176.099 18.375C176.015 18.4929 177.002 18.3892 177.117 18.2424ZM226.428 16.0038C226.462 16.0433 225.432 16.3591 224.967 16.2966C224.086 16.1773 226.391 15.977 226.428 16.0038ZM184.746 17.4983C185.597 17.6463 184.658 17.5116 184.707 17.7304C185.267 17.6966 186.679 17.6029 185.694 17.4572C185.5 17.4293 185.012 17.4929 184.746 17.4983ZM183.967 17.482C183.888 17.5599 183.289 17.8317 183.817 17.7761C184.056 17.7505 184.424 17.4705 183.967 17.482ZM219.997 16.2462C219.238 16.0653 222.709 16.0999 222.813 16.1309C222.866 16.1479 222.901 16.1643 222.921 16.1784C223.047 16.1134 223.703 16.0875 223.783 16.2431C223.585 16.2346 223.048 16.2605 222.986 16.2443C222.959 16.2375 222.939 16.231 222.925 16.2242C222.695 16.3667 220.141 16.2811 219.997 16.2462ZM214.246 16.1492C215.108 15.8445 215.267 16.3344 215.193 16.3516C214.256 16.5696 214.863 16.1956 214.835 16.1791C214.767 16.152 214.101 16.3321 214.248 16.1492C214.247 16.1492 214.246 16.1492 214.246 16.1492ZM218.817 16.188C218.852 16.181 219.578 16.1822 219.609 16.1893C220.208 16.3434 218.151 16.3406 218.817 16.188ZM76.3121 15.5001C76.8363 15.5647 76.3112 15.7304 75.9734 15.655C75.9464 15.6478 75.8556 15.4431 76.3121 15.5001ZM183.556 17.5615C183.435 17.5366 180.352 17.6351 180.55 17.8944C180.813 17.8437 184.317 17.7246 183.556 17.5615ZM160.045 18.4775C160.587 18.4845 159.996 18.7374 159.702 18.6384C159.594 18.6016 159.908 18.4758 160.045 18.4775ZM63.5049 15.3713C62.9372 15.5028 63.0617 15.0292 63.5499 15.2012C63.5692 15.2079 63.5273 15.3662 63.5049 15.3713ZM164.394 18.661C162.612 18.7968 162.926 18.0707 165.048 18.2452C165.079 18.2475 165.174 18.2426 165.206 18.2441C165.324 18.2505 165.448 18.2592 165.577 18.2706C165.499 18.3088 165.421 18.3468 165.343 18.3849C167.854 18.4325 166.17 18.4404 165.21 18.4778C165.178 18.4762 165.079 18.4813 165.046 18.4789C164.904 18.481 164.775 18.4844 164.682 18.49C164.416 18.5057 164.639 18.6438 164.396 18.662C164.396 18.6616 164.395 18.6613 164.394 18.661ZM157.184 18.4343C155.387 17.8351 158.823 18.2483 159.818 18.1814C158.858 18.4124 157.607 18.3639 159.305 18.6259C156.82 18.6495 157.858 18.4279 157.757 18.4077C157.642 18.385 157.262 18.46 157.184 18.4343ZM161.95 18.4746C162.051 18.4586 162.839 18.5832 163.127 18.5661C162.727 18.7617 161.258 18.5841 161.95 18.4746ZM208.243 16.3866C208.304 16.23 208.469 16.1125 209.084 16.16C208.896 16.2414 208.501 16.3155 208.243 16.3866ZM19.8292 14.5284C19.4046 14.5167 18.5534 14.4572 18.8141 14.621C18.8416 14.6349 19.8292 14.6202 19.8292 14.5284ZM174.547 18.0673C174.454 18.0563 172.055 18.1789 172.893 18.3036C173.147 18.3436 175.326 18.19 174.547 18.0673ZM186.749 17.2175C186.549 17.2307 185.769 17.3178 185.749 17.3562C185.71 17.4866 186.668 17.3455 186.749 17.2175ZM17.6788 14.3669C17.6261 14.3507 16.3188 14.3782 16.4646 14.4538C16.732 14.5966 17.8729 14.4226 17.6788 14.3669ZM78.219 15.1917C78.3272 15.189 78.4667 15.362 78.5046 15.365C78.5997 15.3705 80.5979 15.3605 79.8298 15.5564C79.6969 15.59 76.8186 15.424 76.4467 15.3908C76.3116 15.1548 77.5326 15.4117 77.8313 15.3964C77.8837 15.3934 77.9264 15.2006 78.2181 15.1926C78.2184 15.1923 78.2187 15.192 78.219 15.1917ZM211.464 16.1672C211.547 16.0184 213.895 15.8809 213.869 16.06C213.066 16.0959 212.265 16.1315 211.464 16.1672ZM210.273 16.163C209.773 16.0673 210.941 16.0128 211.289 16.053C211.297 16.152 210.344 16.1771 210.273 16.163ZM182.276 16.9976C182.042 17.0511 182.785 17.2117 182.626 17.2654C182.522 17.2992 181.99 17.2578 181.83 17.3371C181.784 17.362 182.332 17.5242 182.488 17.5038C182.709 17.4757 182.482 17.333 182.724 17.3139C183.518 17.2515 184.234 17.3119 184.983 17.2535C185.05 17.248 184.525 17.1744 185.093 17.1337C185.177 17.1275 185.738 17.2536 186.412 17.1788C187.89 16.5499 189.042 16.9754 190.947 16.6519C190.878 16.6077 189.421 16.5812 189.344 16.5821C187.728 16.6131 184.849 16.8179 183.154 16.9431C182.723 16.9748 182.941 17.0685 182.755 17.0864C182.606 17.1004 182.767 16.8848 182.276 16.9976ZM20.0555 14.4164C19.8536 14.2132 19.1386 14.3408 18.6849 14.3298C18.8432 14.513 19.6127 14.3708 20.0555 14.4164ZM199.811 16.2192C199.582 16.2331 198.889 16.1918 198.831 16.2547C198.762 16.3363 199.763 16.3582 199.811 16.2192ZM89.5387 15.5062C89.5602 15.5011 90.1156 15.5204 90.1374 15.5271C90.6315 15.6975 88.9665 15.6386 89.5387 15.5062ZM102.341 15.9411C102.742 15.9436 103.153 15.9103 103.275 16.0846C103.023 16.04 102.285 16.0519 102.341 15.9411ZM120.257 17.6687C120.18 17.4492 121.587 17.7014 121.848 17.7311C121.75 17.8258 120.317 17.835 120.257 17.6687ZM208.141 15.7115C208.909 15.7108 208.74 15.3872 209.228 15.5265C209.308 15.5501 209.573 16.2256 208.732 15.9854C208.58 15.9423 209.17 15.7703 208.141 15.7115ZM165.985 18.2684C166.183 18.1213 166.811 18.1478 167.238 18.1464C167.144 18.2556 166.288 18.2517 165.985 18.2684ZM15.3274 14.202C14.9645 14.0004 13.307 14.1491 13.7174 14.2823C13.7746 14.2996 15.0913 14.1943 15.3274 14.202ZM69.7897 15.0682C70.2679 14.9616 69.671 14.8913 69.1753 14.9241C68.9672 14.936 68.772 14.9609 68.6493 15.0015C68.7345 14.9982 68.9476 15.0106 69.1743 15.0254C69.4493 15.0458 69.7636 15.0738 69.7897 15.0682ZM115.839 17.0836C115.875 17.0809 116.582 17.1716 116.616 17.1831C117.186 17.4104 115.162 17.1521 115.839 17.0836ZM98.2136 15.4506C98.4689 15.3279 100.109 15.5124 100.47 15.6665C100.104 15.8319 97.8979 15.5979 98.2136 15.4506ZM205.001 15.8624C205.547 15.8449 206.062 15.8754 206.564 15.9226C206.461 16.0342 205.064 15.9431 205.001 15.8624ZM118.475 17.3522C118.513 17.3572 118.549 17.3735 118.585 17.3788C118.548 17.37 118.511 17.3607 118.475 17.3522ZM193.069 16.2596C192.606 16.2484 192.716 16.4426 192.744 16.4467C193.101 16.4872 193.579 16.2733 193.069 16.2596ZM19.5339 14.1169C19.3726 13.935 18.6068 14.0751 18.1605 14.0314C18.2915 14.175 19.1737 14.1355 19.5339 14.1169ZM155.255 18.0424C154.681 17.8395 157.026 17.635 157.522 17.7667C157.556 17.8889 155.34 18.0704 155.255 18.0424ZM67.7056 14.7712C67.6558 14.6284 66.6638 14.7877 66.8738 14.8576C67.0028 14.9022 67.7309 14.86 67.7056 14.7712ZM158.7 17.8612C158.922 17.8199 159.436 17.9653 159.254 18.0492C159.021 18.1567 158.642 17.8731 158.7 17.8612ZM178.9 17.1167C178.799 17.1025 177.508 17.3393 178.057 17.4464C178.436 17.5211 178.481 17.3115 178.569 17.3047C178.673 17.2984 180.771 17.4 178.9 17.1167ZM142.129 17.7753C142.622 17.7259 143.208 17.7958 143.719 17.7975C143.511 17.8832 142.338 17.8944 142.129 17.7753ZM71.4121 14.7942C71.274 14.7271 68.2088 14.6387 69.9437 14.8453C70.0398 14.855 71.7578 14.9769 71.4121 14.7942ZM208.141 15.7115C208.045 15.7116 207.933 15.7068 207.805 15.695C207.932 15.6983 208.044 15.706 208.141 15.7115ZM199.495 15.8752C199.665 15.7668 198.794 15.7636 198.532 15.8269C198.458 15.9555 199.471 15.8901 199.495 15.8752ZM143.759 17.6534C144.054 17.5973 144.589 17.6665 144.953 17.6636C144.89 17.7592 143.885 17.7526 143.759 17.6534ZM122.895 17.3403C123.531 17.4263 124.301 17.4197 124.314 17.3021C124.326 17.3208 124.356 17.3411 124.405 17.362C124.456 17.3832 125.122 17.3429 125.402 17.387C127.177 17.7032 118.598 17.2722 123.604 17.1509C123.37 17.2152 123.132 17.2784 122.895 17.3403ZM95.9938 15.1004C95.6766 14.9482 94.7767 15.1107 95.0082 15.1717C95.1716 15.2123 96.3095 15.2523 95.9938 15.1004ZM108.346 15.8164C108.249 15.7812 107.355 15.7989 107.323 15.8721C107.822 15.9974 108.777 15.9768 108.346 15.8164ZM93.5272 14.89C93.3156 14.8662 93.045 15.0946 93.0696 15.1049C93.1996 15.158 93.4741 15.1153 93.5871 15.0438C93.6434 15.0066 93.6576 14.9617 93.5884 14.9184C93.5724 14.9089 93.5521 14.8994 93.5272 14.89ZM206.548 15.117C206.237 15.0564 205.258 15.2425 205.046 15.3995C205.005 15.3708 204.896 15.3344 204.698 15.2921C204.699 15.2921 204.699 15.2921 204.7 15.2921C204.425 15.2273 196.519 15.3567 201.829 15.5188C201.996 15.5244 201.766 15.3924 202.441 15.4013C202.486 15.402 202.51 15.5134 202.649 15.5158C202.972 15.52 204.662 15.5554 205.005 15.4589C205.008 15.4796 205.031 15.4989 205.079 15.5161C205.498 15.6692 206.79 15.1636 206.548 15.117ZM110.115 15.9672C109.941 15.9082 109.363 15.8913 109.298 15.9843C109.572 16.0593 110.522 16.1047 110.115 15.9672ZM71.3251 14.3865C70.956 14.2951 70.0478 14.4272 70.3195 14.5139C70.4793 14.566 71.7428 14.4905 71.3251 14.3865ZM104.448 15.5053C106.509 15.7924 104.944 15.5364 105.273 15.4182C105.001 15.447 104.719 15.4755 104.448 15.5053ZM216.426 15.3198C216.086 15.2926 216.479 14.9997 216.857 15.148C216.976 15.1951 216.616 15.3346 216.426 15.3198ZM231.863 14.8652C231.562 14.6214 232.996 14.7238 232.445 14.9157C232.42 14.9225 231.884 14.8742 231.863 14.8652ZM221.064 15.0388C220.835 15.2161 220.684 15.2398 220.032 15.2101C220.996 15.1421 220.097 15.0076 221.064 15.0388ZM124.308 17.2833C124.311 17.2904 124.315 17.2956 124.314 17.3021C124.31 17.2956 124.308 17.2895 124.308 17.2833ZM91.5044 14.9113C91.2393 14.7618 90.4806 14.7619 90.7043 14.9122C90.7236 14.9261 91.3972 15.018 91.5044 14.9113ZM205.046 15.3995C205.082 15.425 205.064 15.4423 205.005 15.4589C205.002 15.4394 205.017 15.4207 205.046 15.3995ZM95.4806 14.8462C95.4515 14.9538 96.5492 15.0235 96.5933 15.013C97.228 14.8426 95.9357 14.8478 95.4806 14.8462ZM63.8403 14.1182C63.7787 14.1285 64.1664 14.4169 64.3947 14.3103C64.5745 14.2277 64.0707 14.079 63.8403 14.1182ZM223.281 14.921C223.643 14.9132 224.156 14.9012 224.252 15.0328C224.009 15.0179 223.275 15.0194 223.281 14.921ZM231.298 14.6993C230.874 14.87 229.894 14.899 229.266 14.8909C229.25 14.6847 230.897 14.761 231.298 14.6993ZM207.526 15.1764C207.494 15.1685 206.591 15.1232 206.717 15.2595C206.898 15.4593 207.783 15.2472 207.526 15.1764ZM65.6092 14.2961C66.0154 14.2067 65.0876 13.8999 64.6491 14.1191C64.4224 14.2316 65.5496 14.3115 65.6092 14.2961ZM89.1537 14.6855C88.614 14.7569 89.9405 14.9212 90.1329 14.7789C89.8824 14.7635 89.3433 14.6602 89.1537 14.6855ZM106.91 15.306C105.302 14.7439 106.131 15.5826 106.428 15.5414C106.471 15.5355 106.949 15.3193 106.91 15.306ZM11.1523 13.3655C10.912 13.4235 11.8084 13.6339 11.9175 13.4955C11.9899 13.4089 11.3048 13.3285 11.1523 13.3655ZM132.623 17.2212C132.552 17.2223 132.482 17.2234 132.413 17.2244C132.465 17.2178 132.533 17.2158 132.623 17.2212ZM84.2859 14.0314C85.4633 14.6475 85.3484 14.1897 85.4513 14.1945C85.6732 14.2055 86.1945 14.3758 86.6137 14.3578C86.1338 14.4148 85.6411 14.4711 85.1627 14.5273C85.5401 14.5799 88.855 14.859 88.926 14.7628C89.0249 14.6284 87.9884 14.6534 87.9535 14.6406C87.9097 14.6228 87.7526 14.2412 87.6561 14.225C87.5037 14.2004 84.7251 14.1368 84.2859 14.0314ZM103.478 15.0861C103.739 15.151 103.799 15.3061 103.924 15.2798C103.966 15.2708 103.984 15.1286 104.129 15.1028C103.91 15.0968 103.698 15.0915 103.478 15.0861ZM82.1396 14.5109C81.8074 14.3279 83.3175 14.4314 83.3656 14.4518C83.6227 14.5765 82.4115 14.6609 82.1396 14.5109ZM94.9329 14.7084C94.882 14.6963 93.7634 14.6257 93.7704 14.7236C94.0664 14.7991 95.5585 14.8473 94.9329 14.7084ZM104.306 15.107C104.696 15.1544 105.434 15.3607 105.365 15.1388C105.365 15.1388 105.364 15.1387 105.363 15.1387C105.014 15.1275 104.656 15.1165 104.306 15.107ZM67.0093 13.8602C66.2682 13.5073 66.6099 13.9457 67.2782 14.0648C67.484 13.9132 67.1313 13.9176 67.0093 13.8602ZM64.591 13.5693C64.396 13.5053 62.2067 13.5325 62.5371 13.7199C62.6598 13.7874 63.9015 13.647 63.9653 13.6603C64.0517 13.6804 63.6515 13.8746 64.3171 13.846C64.2794 13.7774 64.662 13.5911 64.591 13.5693ZM66.3893 13.6323C65.6327 13.3608 65.4641 13.8395 66.0272 13.849C66.2488 13.853 66.498 13.6714 66.3893 13.6323ZM69.4408 13.7091C69.3768 13.6968 69.2877 13.6831 69.1877 13.6719C68.8395 13.6379 68.3389 13.6249 67.972 13.741C68.3687 13.7538 68.7734 13.7665 69.1867 13.7789C69.4209 13.7866 69.6671 13.7956 69.9201 13.8056C69.9969 13.7163 69.6603 13.752 69.4391 13.709C69.4397 13.709 69.4403 13.709 69.4408 13.7091ZM235.773 13.3111C235.171 13.1973 236.544 13.0928 236.604 13.1237C236.782 13.2282 236.042 13.362 235.773 13.3111ZM6.51722 8.99207C6.35725 8.93765 6.24332 8.75861 5.88201 8.85242C6.25028 8.98458 6.60655 9.11675 6.98033 9.24891C7.26134 8.94608 6.69667 9.05209 6.51722 8.99207ZM5.12737 7.88558C5.17921 7.87825 4.89587 7.41258 5.56033 7.72347C6.00592 7.93338 3.56755 8.13796 3.12062 7.93148C3.61031 7.83553 4.67988 7.94537 5.12737 7.88558ZM0.839875 5.86988C0.806688 5.83275 1.74449 5.77827 1.84688 5.80445C2.41666 5.94245 0.986691 6.06884 0.839875 5.86988ZM3.80356 5.95875C3.37594 5.86832 4.32565 5.81003 4.62482 5.86207C4.64755 5.94874 3.86989 5.97192 3.80356 5.95875ZM229.534 6.77107C229.055 6.46841 228.652 7.16144 229.374 7.00339C229.408 6.99593 229.555 6.78599 229.534 6.77107ZM1.74636 5.40014C2.18207 5.49057 1.21919 5.54886 0.928707 5.49682C0.905481 5.41024 1.67957 5.38691 1.74636 5.40014ZM229.181 6.02706C228.55 5.81728 228.792 6.57497 228.871 6.60357C229.197 6.71621 230.288 6.38387 230.512 6.30224C228.866 6.46635 229.479 6.12559 229.181 6.02706ZM226.314 6.56387C225.736 6.66019 227.222 6.77827 227.498 6.55738C227.21 6.57538 226.479 6.53615 226.314 6.56387ZM222.79 6.40216C222.478 6.38175 221.547 6.33608 221.396 6.45946C221.733 6.43072 222.663 6.52882 222.79 6.40216ZM222.076 6.05725C221.585 5.90429 221.478 6.38278 222.037 6.22903C222.059 6.22307 222.094 6.06595 222.076 6.05725ZM219.332 5.94142C219.008 5.75834 218.653 6.22636 219.171 6.2288C219.325 6.22865 219.366 5.96246 219.332 5.94142ZM228.377 5.2272C227.919 5.15856 227.339 5.5047 228.315 5.5142C227.975 5.57411 227.632 5.6339 227.291 5.69343C228.576 5.84408 228.467 5.38834 228.835 5.39703C229.348 5.4093 229.319 5.78807 229.219 5.9097C229.633 5.66657 231.418 5.6092 232.448 5.53029C231.538 5.4636 230.062 5.34061 229.166 5.30452C228.91 5.29407 228.664 5.40468 228.446 5.39916C228.097 5.38973 228.403 5.23196 228.379 5.22715C228.378 5.22716 228.378 5.22718 228.377 5.2272ZM215.728 6.00134C214.782 5.80346 215.385 6.25607 215.917 6.16402C215.94 6.15726 215.751 6.00616 215.728 6.00134ZM0.497728 3.99286C1.75547 4.18643 0.840736 4.44298 3.47325 4.05341C2.36863 4.3292 3.41263 4.25174 3.19784 4.36299C3.02226 4.451 2.37546 4.37811 2.75152 4.55538C2.25704 4.36244 0.101958 4.4158 0.00928364 4.38447C0.0101833 4.38447 0.0113374 4.38447 0.0121843 4.38447C-0.0452142 4.36591 0.0961798 3.9313 0.497728 3.99286ZM222.759 5.19157C222.435 4.63662 222.328 5.53112 221.704 5.0786C220.898 5.77252 223.968 5.02975 224.354 5.59095C221.003 5.60182 226.579 6.10513 224.222 5.30488C226.155 5.56928 224.85 5.18397 225.145 5.06798C225.459 4.94444 226.55 5.04304 226.49 4.83509C226.49 4.83511 226.489 4.83512 226.489 4.83514C225.822 4.86692 225.159 4.89787 224.493 4.92828C225.154 5.36422 223.793 5.26112 223.321 4.90356C223.133 4.99961 222.946 5.09562 222.759 5.19157ZM226.538 5.52553C226.47 5.5172 225.026 5.61638 225.121 5.70452C225.315 5.75818 227.37 5.63631 226.538 5.52553ZM232.901 5.23854C232.383 5.25513 231.577 5.19306 231.299 5.37206C231.819 5.35691 232.625 5.41845 232.901 5.23854ZM206.075 5.78986C205.41 5.94187 207.464 5.94544 206.867 5.79093C206.836 5.78367 206.111 5.78263 206.075 5.78986ZM221.252 5.30884C220.572 5.15115 220.904 5.69105 221.401 5.53822C221.429 5.52922 221.283 5.31602 221.252 5.30884ZM1.51695 3.92645C1.56148 3.79253 3.39187 3.88659 3.71471 3.88543C3.53309 4.00991 1.46314 4.07997 1.51695 3.92645ZM233.797 4.7063C232.749 4.26179 231.367 4.86245 231.213 4.85497C231.06 4.8474 231.293 4.62947 231.258 4.62492C231.179 4.61604 229.551 4.68312 229.474 4.69961C229.418 4.71268 229.72 4.99977 229.388 5.10269C230.037 4.91736 233.016 4.92695 233.169 4.88742C233.287 4.85706 232.376 4.57794 233.795 4.70636C233.796 4.70634 233.796 4.70632 233.797 4.7063ZM230.827 4.80252C231.238 4.91391 230.097 4.96465 229.82 4.92683C229.204 4.84273 230.775 4.78984 230.827 4.80252ZM228.082 4.76837C227.951 4.74436 226.773 4.75047 226.678 4.89082C227.237 5.0557 228.38 4.82505 228.082 4.76837ZM214.974 5.06909C214.67 5.0921 213.82 5.00066 213.776 5.12205C214.081 5.09925 214.93 5.19053 214.974 5.06909ZM7.74945 2.87367C7.24338 2.77274 8.42668 2.73151 8.76432 2.77993C8.78484 2.86039 7.78793 2.88234 7.74945 2.87367ZM221.114 4.1581C220.93 4.12635 217.238 4.28947 216.718 4.35438C217.229 4.43733 220.891 4.37342 221.058 4.32435C221.106 4.31001 221.137 4.16339 221.114 4.1581ZM229.089 3.90766C229.423 3.72037 229.647 3.92683 229.69 3.92825C230.108 3.94327 230.974 3.87648 230.789 4.05332C230.049 4.00766 228.426 4.27954 229.089 3.90766ZM214.698 4.27004C213.438 4.35783 215.858 4.50292 215.538 4.32272C215.517 4.31188 214.826 4.2609 214.698 4.27004ZM221.525 4.09774C221.799 3.94982 225.495 3.98957 226.084 3.97306C225.56 4.25107 225.128 4.06061 224.415 4.09097C224.223 4.09945 224.277 4.20834 224.256 4.209C223.924 4.22186 224.17 4.0889 223.965 4.09173C223.834 4.09469 221.14 4.30864 221.525 4.09774ZM229.278 3.77909C229.481 3.67225 231.778 3.55812 231.871 3.58128C232.57 3.76091 229.457 3.81099 229.278 3.77909ZM221.182 3.86951C221.569 3.55403 223.412 3.71987 222.158 3.9006C222.038 3.91716 221.527 3.79467 221.182 3.86951ZM214.826 3.97478C214.765 3.96685 213.45 3.92799 213.431 4.02619C213.618 4.06115 215.532 4.06205 214.826 3.97478ZM215.499 3.63187C215.467 3.63477 215.778 3.8179 215.163 3.8048C215.111 3.80346 215.017 3.59301 214.241 3.68408C214.084 3.70279 213.844 3.84726 213.862 3.85568C214.676 4.17489 217.085 3.49434 215.499 3.63187ZM229.316 3.60605C229.189 3.52014 229.48 3.24588 229.753 3.37243C229.87 3.42708 229.659 3.59296 229.316 3.60605ZM210.663 3.95985C211.425 3.78569 209.025 3.79602 208.903 3.83952C208.982 3.9385 210.586 3.97685 210.663 3.95985ZM8.94374 1.6295C8.94313 1.6295 8.94252 1.6295 8.94191 1.6295C9.58626 1.66604 9.18632 1.80011 9.2179 1.80432C10.5913 2.00134 10.2182 1.69765 10.4352 1.66183C10.9028 1.58438 10.8141 1.95366 11.5974 1.80069C10.313 2.02657 11.4786 1.93198 11.5176 2.06338C11.6561 2.59955 9.81525 1.81205 9.17713 1.92444C9.08778 1.94 9.73993 2.11115 9.51329 2.15982C8.77287 2.3175 6.47632 1.48982 8.94374 1.6295ZM229.96 3.34282C230.251 3.17747 232.495 3.25862 231.906 3.4072C231.811 3.43201 229.533 3.58578 229.96 3.34282ZM124.805 5.4537C125.316 5.32951 124.146 5.14146 123.935 5.23779C123.826 5.28747 124.58 5.50933 124.805 5.4537ZM116.577 4.17882C115.938 4.13897 115.183 4.63125 116.004 4.62886C116.096 4.62889 116.64 4.26478 116.577 4.17882ZM158.272 5.46541C157.599 5.25566 157.637 5.63344 158.131 5.63298C158.306 5.63288 158.293 5.47204 158.272 5.46541ZM132.508 5.25741C132.441 5.24394 131.655 5.26604 131.685 5.35291C131.974 5.40544 132.948 5.34921 132.508 5.25741ZM158.487 5.41378C158.089 5.47792 158.765 5.75752 159.261 5.49545C159.011 5.51497 158.528 5.40724 158.487 5.41378ZM219.779 3.06381C219.446 3.22547 218.507 3.19682 217.963 3.23358C217.902 3.03404 219.39 3.10812 219.779 3.06381ZM119.288 4.69808C118.66 4.77286 119.961 5.02923 119.856 4.82996C119.842 4.81823 119.315 4.69487 119.288 4.69808ZM179.445 4.69428C179.012 4.84597 180.425 4.90409 180.024 4.72236C180.008 4.71498 179.467 4.68602 179.445 4.69428ZM185.581 4.30901C185.245 4.29328 183.807 4.41262 184.375 4.4876C184.464 4.49896 185.564 4.42024 185.581 4.30901ZM10.4733 1.5173C10.2937 1.31103 11.3434 1.36027 11.4985 1.39636C11.5529 1.41136 10.7193 1.78565 10.4733 1.5173ZM153.901 5.38833C153.552 5.41044 152.65 5.35171 152.489 5.45816C152.916 5.4404 154.013 5.60508 153.901 5.38833ZM121.873 4.95938C121.435 4.70286 120.679 4.64448 120.835 4.95514C121.685 5.0192 120.751 4.68988 121.873 4.95938ZM160.728 5.19354C160.447 5.17393 160.236 5.4532 160.266 5.46672C160.563 5.59549 161.007 5.30544 160.728 5.19354ZM139.755 5.20274C139.737 5.08236 138.846 5.12761 138.962 5.20618C139.002 5.23255 139.765 5.30009 139.755 5.20274ZM208.055 3.20282C207.641 3.10037 208.897 2.97109 209.27 3.09282C209.453 3.27418 208.109 3.21438 208.055 3.20282ZM168.174 5.20875C168.208 5.03007 166.86 5.17551 167.397 5.30582C167.532 5.33875 168.162 5.26907 168.174 5.20875ZM181.287 4.19335C180.367 4.47509 184.308 4.33331 183.256 4.14584C183.185 4.13222 181.368 4.16946 181.287 4.19335ZM187.731 3.84957C187.568 3.83794 187.6 3.23465 188.297 3.41577C188.388 3.43919 187.982 3.62749 188.058 3.65833C188.11 3.67509 189.566 3.65444 189.639 3.6354C189.709 3.61444 189.611 3.42888 189.682 3.4022C189.757 3.37268 190.681 3.47598 191.145 3.44522C192.029 3.38625 192.128 3.21939 192.195 3.21412C192.404 3.19851 192.765 3.28722 193.2 3.25718C194.107 3.19426 195.205 3.09589 196.327 3.0188C196.371 3.01296 196.503 3.01224 196.546 3.00776C198.115 2.94902 199.675 2.94418 200.692 3.11633C199.29 3.02777 197.948 3.1727 196.556 3.27517C196.514 3.27948 196.387 3.28017 196.345 3.28579C196.201 3.30094 196.057 3.31552 195.913 3.32925C196.333 2.96649 193.697 3.73556 195.236 3.24624C194.517 3.37383 188.265 3.8804 187.733 3.84944C187.732 3.84948 187.731 3.84953 187.731 3.84957ZM114.047 3.74509C114.466 3.58224 112.412 3.41779 112.22 3.6373C112.482 3.69615 113.992 3.76231 114.047 3.74509ZM123.058 4.13936C123.227 4.11161 123.388 3.72421 124.269 3.95608C124.269 3.9561 124.27 3.95613 124.271 3.95615C124.53 4.02324 124.23 4.11169 124.276 4.14782C124.291 4.16316 125.113 4.38393 124.426 4.39749C123.389 4.41324 124.335 4.09792 123.79 4.07439C123.719 4.07375 122.703 4.24061 122.762 4.28938C122.767 4.29545 123.069 4.26615 123.119 4.28819C123.304 4.37167 123.206 4.49185 123.233 4.4991C123.311 4.5236 124.966 4.36512 125.221 4.55128C125.277 4.62279 122.568 4.66641 122.498 4.61384C122.435 4.5902 122.485 4.24598 122.422 4.2077C122.386 4.19137 121.367 4.24145 121.243 4.19365C121.206 4.18084 121.179 4.16811 121.159 4.15788C121.226 4.21674 121.05 4.22486 120.855 4.20189C120.599 4.1723 120.321 4.10986 120.345 4.0497C120.36 4.0223 120.64 4.05124 120.868 4.08124C120.988 4.09773 121.089 4.11419 121.097 4.11835C121.107 4.12283 121.114 4.12851 121.122 4.13263C120.997 4.00198 123.128 4.16648 122.682 3.93641C123.319 3.86587 122.574 4.21696 123.058 4.13936ZM126.3 4.01456C126.228 4.05023 126.154 4.08583 126.081 4.12138C127.307 4.04753 128.779 4.22456 130.267 4.22543C130.642 4.22591 130.208 4.00229 130.704 4.06396C131.103 4.11339 131.542 4.3211 131.325 4.36679C131.271 4.37814 130.464 4.24213 130.059 4.25541C128.868 4.29456 129.174 4.48609 129.103 4.49118C129.023 4.4965 128.284 4.36045 127.881 4.36464C126.878 4.37467 126.408 4.4924 125.096 4.31433C125.858 4.20242 125.443 3.92223 126.3 4.01456ZM173.88 4.38178C173.919 4.25903 174.752 4.31363 175.05 4.27617C175.011 4.39984 174.177 4.34608 173.88 4.38178ZM48.7787 0.883522C48.5116 1.07271 50.4704 1.18167 49.9588 1.00154C49.8475 0.961468 49.0243 0.892065 48.7787 0.883522ZM57.4982 1.27862C57.7587 1.23156 56.7216 1.05921 56.7218 1.21197C56.7195 1.26103 57.4662 1.28491 57.4982 1.27862ZM142.984 4.32231C143.032 4.31664 143.752 4.36851 143.772 4.37879C144.244 4.59367 141.89 4.44673 142.984 4.32231ZM67.9968 1.24386C67.0947 1.36327 69.7952 1.4491 68.97 1.27504C68.925 1.26666 68.0357 1.23815 67.9968 1.24386ZM71.9016 1.27459C71.6852 1.27525 70.6831 1.18684 70.6699 1.24738C70.6477 1.34346 71.7893 1.43766 71.9016 1.27459ZM160.924 4.44914C160.823 4.22575 162.086 4.4053 162.53 4.38072C162.632 4.60432 161.361 4.42503 160.924 4.44914ZM152.904 4.2047C158.268 4.08586 157.078 4.54917 152.583 4.30966C152.578 4.16683 152.566 4.21211 152.904 4.2047ZM159.763 4.30086C159.573 4.44167 158.956 4.39356 158.552 4.37819C158.623 4.27979 159.473 4.32381 159.763 4.30086ZM46.4409 0.513169C46.7871 0.341188 48.293 0.605114 48.0217 0.672013C47.9596 0.685679 46.3091 0.608346 46.4409 0.513169ZM143.436 4.13681C143.316 3.91903 144.925 4.025 145.048 4.07444C145.543 4.27323 143.568 4.09045 143.436 4.13681ZM168.187 4.20071C168.455 4.02157 169.234 4.07811 169.734 4.05767C169.513 4.2131 168.612 4.18879 168.187 4.20071ZM164.772 4.15572C164.788 4.15273 164.957 4.15561 165.13 4.1602L164.931 4.16156C165.124 4.16182 165.325 4.16367 165.341 4.16742C165.628 4.24405 165.279 4.28286 164.934 4.28197L165.129 4.28064C164.787 4.2711 164.438 4.22331 164.772 4.15572ZM8.05169 0.00149393C8.07739 -0.00396919 8.62705 0.00684547 8.64447 0.0132194C9.13454 0.175984 7.48561 0.14271 8.05169 0.00149393Z" fill="#FDD300" fill-opacity="0.6"/>
</svg>
