<svg width="100" height="94" viewBox="0 0 100 94" fill="none" xmlns="http://www.w3.org/2000/svg">
<path d="M64.25 24.25C66.1065 24.25 67.887 23.5125 69.1997 22.1997C70.5125 20.887 71.25 19.1065 71.25 17.25C71.25 15.3935 70.5125 13.613 69.1997 12.3003C67.887 10.9875 66.1065 10.25 64.25 10.25C62.3935 10.25 60.613 10.9875 59.3003 12.3003C57.9875 13.613 57.25 15.3935 57.25 17.25C57.25 19.1065 57.9875 20.887 59.3003 22.1997C60.613 23.5125 62.3935 24.25 64.25 24.25ZM51.65 72.9L55.15 57.5L62.5 64.5V85.5H69.5V59.25L62.15 52.25L64.25 41.75C66.6482 44.498 69.607 46.7006 72.9273 48.2099C76.2477 49.7191 79.8527 50.5 83.5 50.5V43.5C77.34 43.605 71.6 40.385 68.45 35.1L64.95 29.5C63.69 27.4 61.45 26 59 26C57.95 26 57.25 26.35 56.2 26.35L38 34.05V50.5H45V38.6L51.3 36.15L45.7 64.5L28.55 61L27.15 68L51.65 72.9ZM20.5 36.5C19.5717 36.5 18.6815 36.1313 18.0251 35.4749C17.3687 34.8185 17 33.9283 17 33C17 32.0717 17.3687 31.1815 18.0251 30.5251C18.6815 29.8687 19.5717 29.5 20.5 29.5H31V36.5H20.5ZM24 22.5C23.0717 22.5 22.1815 22.1313 21.5251 21.4749C20.8687 20.8185 20.5 19.9283 20.5 19C20.5 18.0717 20.8687 17.1815 21.5251 16.5251C22.1815 15.8687 23.0717 15.5 24 15.5H41.5V22.5H24ZM17 50.5C16.0717 50.5 15.1815 50.1312 14.5251 49.4749C13.8687 48.8185 13.5 47.9283 13.5 47C13.5 46.0717 13.8687 45.1815 14.5251 44.5251C15.1815 43.8688 16.0717 43.5 17 43.5H31V50.5H17Z" fill="#3BAF75"/>
</svg>
