<svg width="100" height="94" viewBox="0 0 100 94" fill="none" xmlns="http://www.w3.org/2000/svg">
<path fill-rule="evenodd" clip-rule="evenodd" d="M38.606 11.42C41.108 8.91803 44.588 7.81403 48.5 7.81403C52.412 7.81403 55.892 8.91803 58.394 11.42C60.89 13.922 62 17.402 62 21.314C62 25.226 60.89 28.7 58.4 31.202C55.898 33.704 52.418 34.814 48.506 34.814C44.594 34.814 41.114 33.704 38.612 31.202C36.116 28.706 35.006 25.226 35.006 21.314C35.006 17.402 36.116 13.922 38.612 11.42M48.512 47.348C45.47 44.468 41.594 41.45 37.436 39.872C35.096 38.984 32.6 38.528 30.092 38.858C27.566 39.194 25.118 40.322 22.886 42.446C19.118 46.022 18.17 50.516 19.004 55.094C19.826 59.606 22.376 64.226 25.628 68.39C28.8923 72.526 32.7031 76.1996 36.956 79.31C40.922 82.19 44.984 84.29 48.266 84.83C48.4253 84.8515 48.5867 84.8515 48.746 84.83C52.028 84.29 56.096 82.19 60.056 79.31C64.311 76.2 68.1239 72.5264 71.39 68.39C74.642 64.226 77.186 59.606 78.008 55.094C78.848 50.516 77.9 46.022 74.132 42.446C71.894 40.322 69.452 39.194 66.92 38.858C64.418 38.528 61.922 38.978 59.576 39.878C55.424 41.45 51.548 44.468 48.512 47.348Z" fill="#3BAF75"/>
</svg>
