<svg width="100" height="94" viewBox="0 0 100 94" fill="none" xmlns="http://www.w3.org/2000/svg">
<path d="M12.52 39.825C12.52 40.9511 12.7418 42.0661 13.1728 43.1065C13.6037 44.1469 14.2353 45.0922 15.0316 45.8884C15.8278 46.6847 16.7731 47.3163 17.8135 47.7473C18.8539 48.1782 19.9689 48.4 21.095 48.4C22.2211 48.4 23.3362 48.1782 24.3765 47.7473C25.4169 47.3163 26.3622 46.6847 27.1585 45.8884C27.9547 45.0922 28.5864 44.1469 29.0173 43.1065C29.4482 42.0661 29.67 40.9511 29.67 39.825C29.67 38.6989 29.4482 37.5839 29.0173 36.5435C28.5864 35.5031 27.9547 34.5578 27.1585 33.7616C26.3622 32.9653 25.4169 32.3337 24.3765 31.9027C23.3362 31.4718 22.2211 31.25 21.095 31.25C19.9689 31.25 18.8539 31.4718 17.8135 31.9027C16.7731 32.3337 15.8278 32.9653 15.0316 33.7616C14.2353 34.5578 13.6037 35.5031 13.1728 36.5435C12.7418 37.5839 12.52 38.6989 12.52 39.825ZM67.33 39.825C67.33 42.0992 68.2335 44.2803 69.8416 45.8884C71.4497 47.4966 73.6308 48.4 75.905 48.4C78.1792 48.4 80.3603 47.4966 81.9685 45.8884C83.5766 44.2803 84.48 42.0992 84.48 39.825C84.48 38.6989 84.2582 37.5839 83.8273 36.5435C83.3963 35.5031 82.7647 34.5578 81.9685 33.7616C81.1722 32.9653 80.2269 32.3337 79.1865 31.9027C78.1462 31.4718 77.0311 31.25 75.905 31.25C74.7789 31.25 73.6639 31.4718 72.6235 31.9027C71.5831 32.3337 70.6378 32.9653 69.8416 33.7616C69.0453 34.5578 68.4137 35.5031 67.9827 36.5435C67.5518 37.5839 67.33 38.6989 67.33 39.825ZM46.75 20.75C45.8218 20.75 44.9315 20.3813 44.2751 19.7249C43.6188 19.0685 43.25 18.1783 43.25 17.25V10.25C43.25 9.32174 43.6188 8.4315 44.2751 7.77513C44.9315 7.11875 45.8218 6.75 46.75 6.75C47.6783 6.75 48.5685 7.11875 49.2249 7.77513C49.8813 8.4315 50.25 9.32174 50.25 10.25V17.25C50.25 18.1783 49.8813 19.0685 49.2249 19.7249C48.5685 20.3813 47.6783 20.75 46.75 20.75ZM67.295 15.08C66.6392 14.4281 65.7522 14.0622 64.8275 14.0622C63.9029 14.0622 63.0158 14.4281 62.36 15.08L57.39 20.015C57.062 20.3404 56.8016 20.7275 56.6239 21.154C56.4462 21.5805 56.3547 22.038 56.3547 22.5C56.3547 22.962 56.4462 23.4195 56.6239 23.846C56.8016 24.2725 57.062 24.6596 57.39 24.985C57.7154 25.3131 58.1025 25.5734 58.529 25.7511C58.9555 25.9288 59.413 26.0203 59.875 26.0203C60.3371 26.0203 60.7945 25.9288 61.221 25.7511C61.6475 25.5734 62.0346 25.3131 62.36 24.985L67.295 20.015C67.9469 19.3592 68.3128 18.4722 68.3128 17.5475C68.3128 16.6229 67.9469 15.7358 67.295 15.08ZM33.625 26C33.1411 26.0217 32.6579 25.9427 32.206 25.768C31.7542 25.5933 31.3435 25.3266 31 24.985L26.205 20.015C25.7338 19.3479 25.5107 18.5371 25.5743 17.7229C25.6379 16.9087 25.9843 16.1423 26.5535 15.5566C27.1226 14.9708 27.8786 14.6025 28.6907 14.5155C29.5028 14.4285 30.3197 14.6282 31 15.08L36.11 20.015C36.4381 20.3404 36.6984 20.7275 36.8761 21.154C37.0538 21.5805 37.1453 22.038 37.1453 22.5C37.1453 22.962 37.0538 23.4195 36.8761 23.846C36.6984 24.2725 36.4381 24.6596 36.11 24.985C35.783 25.3094 35.3951 25.566 34.9687 25.7402C34.5423 25.9144 34.0856 26.0027 33.625 26Z" fill="#3BAF75"/>
<path d="M63.9001 87.25V63.695C59.6256 63.2708 55.5656 61.6169 52.2113 58.9335C48.8571 56.2501 46.3523 52.6521 45.0001 48.575L42.0601 39.72C41.8155 39.0194 41.7264 38.274 41.799 37.5355C41.8716 36.797 42.1042 36.0831 42.4806 35.4436C42.857 34.8041 43.3681 34.2542 43.9785 33.8322C44.5889 33.4102 45.2839 33.1262 46.0151 33C47.2562 32.8386 48.5144 33.1229 49.5655 33.8023C50.6167 34.4817 51.3926 35.5121 51.7551 36.71L54.6251 45.285C55.409 47.6819 56.932 49.7689 58.9756 51.2466C61.0192 52.7242 63.4783 53.5166 66.0001 53.51H81.0501C82.9066 53.51 84.6871 54.2475 85.9999 55.5603C87.3126 56.873 88.0501 58.6535 88.0501 60.51V87.25H63.9001ZM39.8901 50.22V49.765C38.7518 50.9752 37.3727 51.9337 35.8416 52.5787C34.3105 53.2237 32.6613 53.541 31.0001 53.51H15.9851C14.1286 53.51 12.3481 54.2475 11.0354 55.5603C9.72261 56.873 8.98511 58.6535 8.98511 60.51V87.25H33.1001V63.695C37.3507 63.2914 41.396 61.6757 44.7551 59.04C42.6004 56.4272 40.9507 53.4363 39.8901 50.22Z" fill="#3BAF75"/>
</svg>
