<svg width="100" height="94" viewBox="0 0 100 94" fill="none" xmlns="http://www.w3.org/2000/svg">
<path fill-rule="evenodd" clip-rule="evenodd" d="M18.7745 23.7985C22.36 19.0415 27.0023 15.1832 32.3349 12.5282C37.6674 9.87316 43.5441 8.49414 49.501 8.49999C62.0555 8.49999 73.203 14.513 80.2275 23.7985L84.4695 29.409H14.5325L18.7745 23.7985ZM14.529 64.591H84.4695L80.2275 70.2015C76.6416 74.9589 71.9987 78.8175 66.6656 81.4726C61.3324 84.1276 55.455 85.5064 49.4975 85.5C43.5412 85.5053 37.6652 84.126 32.3333 81.471C27.0014 78.816 22.3597 74.958 18.7745 70.2015L14.529 64.591ZM15.25 35.562H12.625V58.4345H17.875V48.8935H25.5295V43.6435H17.875V40.812H26.9995V35.562H15.25ZM52.0315 35.562H66.4025V40.812H57.285V43.64H64.9395V48.89H57.285V53.1845H66.406V58.4345H52.035L52.0315 35.562ZM70.8755 35.562H85.25V40.812H76.1255V43.64H83.78V48.89H76.1255V53.1845H85.25V58.4345H70.8755V35.562ZM34.0975 35.562H31.4725V58.4345H36.7225V51.095H40.009L43.761 56.9085L45.1855 59.1135L49.5955 56.268L48.171 54.063L45.826 50.43C47.401 49.5375 48.4685 47.8435 48.4685 45.901V40.763C48.4685 37.893 46.1445 35.5655 43.2745 35.5655L34.0975 35.562ZM43.2185 45.845H36.7225V40.812H43.2185V45.845Z" fill="#3BAF75"/>
</svg>
