<svg width="24" height="25" viewBox="0 0 24 25" fill="none" xmlns="http://www.w3.org/2000/svg">
<path d="M21.1964 21.2107L20.7531 14.19L22.8678 12.4736C23.3763 12.0609 23.6945 11.4714 23.7526 10.8348C23.8107 10.1983 23.6038 9.5668 23.1775 9.07932L21.8291 7.5382C21.4363 7.08917 20.8855 6.79493 20.2809 6.71103L20.2354 5.99005C20.2219 5.77761 20.1213 5.57942 19.9557 5.43908L13.7748 0.19938C13.6092 0.0589909 13.3922 -0.0120724 13.1714 0.00182074L2.35003 0.685095C1.68772 0.726914 1.06852 1.02022 0.628654 1.50049C0.188788 1.98076 -0.0357173 2.60865 0.00452791 3.24604L1.21849 22.4722C1.25873 23.1096 1.56043 23.7042 2.05721 24.1254C2.55399 24.5465 3.20516 24.7596 3.86748 24.7178L18.8509 23.7717C19.5133 23.7299 20.1325 23.4366 20.5723 22.9563C21.0122 22.476 21.2367 21.8481 21.1964 21.2107ZM2.88332 22.367L1.66936 3.14092C1.65594 2.92846 1.73078 2.71916 1.8774 2.55907C2.02402 2.39898 2.23042 2.30121 2.45119 2.28727L12.4402 1.65656L12.7187 6.06815C12.7605 6.72905 13.3511 7.22902 14.037 7.18571L18.6211 6.89626L18.6297 7.03245C18.5168 7.09748 18.4085 7.17215 18.3046 7.25646L16.2257 8.94401C16.195 8.86285 16.1378 8.79354 16.0627 8.74639C15.9876 8.69925 15.8986 8.67681 15.8089 8.6824L4.98746 9.36567C4.87708 9.37264 4.77388 9.42152 4.70057 9.50157C4.62726 9.58161 4.58984 9.68626 4.59655 9.7925C4.60325 9.89873 4.65354 9.99784 4.73633 10.068C4.81913 10.1382 4.92766 10.1737 5.03804 10.1668L15.5356 9.50393L13.3868 11.2482L5.13921 11.7689C5.02882 11.7759 4.92562 11.8248 4.85231 11.9048C4.779 11.9849 4.74158 12.0895 4.74829 12.1958C4.755 12.302 4.80528 12.4011 4.88808 12.4713C4.97088 12.5415 5.0794 12.577 5.18979 12.57L12.3128 12.1203L10.1639 13.8645L5.29095 14.1722C5.18057 14.1792 5.07737 14.2281 5.00406 14.3081C4.93075 14.3881 4.89333 14.4928 4.90004 14.599C4.90674 14.7053 4.95703 14.8044 5.03982 14.8746C5.12262 14.9447 5.23115 14.9803 5.34153 14.9733L9.0899 14.7366L6.98553 16.4443L6.94437 16.4807L5.4427 16.5755C5.33231 16.5824 5.22911 16.6313 5.1558 16.7114C5.08249 16.7914 5.04507 16.8961 5.05178 17.0023C5.05849 17.1085 5.10877 17.2076 5.19157 17.2778C5.27436 17.348 5.38289 17.3835 5.49328 17.3766L6.60289 17.3065L5.64631 21.1502C5.61588 21.2724 5.61558 21.3995 5.64542 21.5215C5.67527 21.6435 5.73442 21.7569 5.81815 21.8526C5.90188 21.9484 6.00784 22.0238 6.12755 22.0728C6.24725 22.1219 6.37736 22.1432 6.50745 22.135L11.0626 21.8506C11.2412 21.8396 11.4117 21.7735 11.5488 21.6623L19.1632 15.4807L19.5316 21.3159C19.545 21.5283 19.4702 21.7376 19.3236 21.8977C19.1769 22.0578 18.9706 22.1556 18.7498 22.1695L3.76631 23.1156C3.54554 23.1295 3.32848 23.0585 3.16289 22.9181C2.9973 22.7777 2.89673 22.5795 2.88332 22.367ZM13.9865 6.38462C13.9326 6.38802 13.8786 6.38118 13.8275 6.36447C13.7765 6.34777 13.7294 6.32153 13.689 6.28727C13.6485 6.253 13.6156 6.21137 13.5919 6.16476C13.5683 6.11814 13.5544 6.06746 13.5511 6.01559L13.2935 1.93565L18.2259 6.11693L13.9865 6.38462ZM19.225 13.3358L16.8095 10.5656L17.7396 9.81034L20.1591 12.5771L19.225 13.3358ZM8.87311 17.0079L16.1703 11.0845L18.585 13.8548L11.3649 19.7154L8.87311 17.0079ZM8.25544 17.5496L10.7249 20.2352L10.6876 20.2657L8.51156 20.4015L7.76027 19.5417L8.25544 17.5496Z" fill="#3BAF75"/>
</svg>
