<svg width="186" height="14" viewBox="0 0 186 14" fill="none" xmlns="http://www.w3.org/2000/svg">
<path d="M14.3166 11.9068C14.4334 11.8916 14.8897 11.9291 15.0904 11.9228C14.8639 12.0836 13.9033 11.9617 14.3166 11.9068ZM34.8808 0.325951C34.714 0.362833 34.5454 0.399776 34.375 0.436782C34.8548 0.470438 35.4915 0.452827 35.9325 0.499412C36.0051 0.507193 35.8143 0.618661 35.9861 0.627213C36.1572 0.635755 36.1279 0.47764 36.3749 0.465878C36.6569 0.452889 37.9259 0.591099 38.3665 0.599555C40.0145 0.628964 41.6656 0.585482 43.2897 0.692045C41.6057 0.765189 43.2972 0.927727 43.7682 0.88869C43.8726 0.879212 43.8621 0.58784 45.5438 0.69974C46.6052 0.769236 45.6157 1.16813 47.3981 0.99353C46.0363 0.673925 47.3813 0.722131 48.4546 0.730436C48.6381 0.732265 50.1361 0.799703 50.7921 0.794665C51.0196 0.793119 51.3677 0.64409 51.6642 0.643489C51.8683 0.643191 52.0344 0.728912 52.3348 0.727836C52.9589 0.726159 53.5745 0.725936 54.2087 0.72938C55.0785 0.734901 55.883 0.757792 56.7097 0.792143C55.8425 1.16675 57.3805 0.97533 57.4397 0.995981C57.7826 1.11093 56.2191 1.10507 56.8347 1.18623C57.7015 1.19397 58.5635 1.20323 59.4218 1.21189C58.7179 1.14634 60.3668 0.903028 60.6604 1.03883C60.5377 0.689016 64.5515 1.43066 65.1675 1.32382C65.2944 1.30143 64.4661 1.11453 66.3988 1.22874C66.6088 1.24121 66.5275 1.34484 66.6384 1.33699C66.7084 1.33233 67.1043 1.0053 67.5318 1.19679C67.6861 1.26629 66.6871 1.47093 68.8691 1.41592C68.0074 1.06487 71.8952 1.27277 72.6075 1.36151C72.4667 1.31455 72.3229 1.26752 72.1798 1.22045C72.8868 1.35049 73.0134 1.23575 73.1743 1.24347C73.2164 1.24547 73.2596 1.24787 73.3037 1.2506C73.956 1.28953 74.7961 1.40275 75.3805 1.40522C76.1118 1.40908 76.1202 1.19729 76.9725 1.30505C76.771 1.25209 76.5697 1.19955 76.368 1.14743C76.9581 1.17467 77.5493 1.20554 78.1389 1.23996C76.7616 1.46852 78.4334 1.26352 78.5429 1.26373C78.7178 1.26096 78.4622 1.36465 78.7547 1.36296C78.7847 1.36203 78.7469 1.25191 79.1959 1.26035C80.1352 1.28017 79.9803 1.40971 80.3725 1.42862C80.4076 1.43003 80.2907 1.32546 80.9666 1.34057C83.1184 1.39615 80.9542 1.41294 80.8683 1.42301C80.7576 1.43574 81.4774 1.87775 79.6542 1.63869C80.2689 1.71538 80.3171 1.89889 80.387 1.90692C80.4505 1.91322 81.5079 1.94866 81.5672 1.94682C82.0914 1.91781 81.6421 1.76721 81.7446 1.75145C81.8259 1.73774 83.0904 1.98003 83.4094 1.63288C83.9949 2.01562 83.0401 1.91526 82.0171 1.90344C81.8643 1.96332 82.9796 2.1037 83.0372 2.10812C84.4734 2.20673 83.6971 1.87249 84.0246 1.7158C84.2013 1.63435 84.7634 1.86704 84.2471 1.57757C85.5514 1.64657 84.7509 1.73401 84.8329 1.76149C84.9566 1.80233 85.4146 1.76465 85.4728 1.77877C85.5557 1.79933 85.2576 1.86386 85.5853 1.91958C85.6382 1.92809 86.177 1.8193 85.5032 1.69587C86.4107 1.78685 86.3472 1.65457 86.6348 1.93515C87.3052 1.50017 87.0644 2.25798 87.3099 2.30503C87.9645 2.43007 87.7983 2.03339 87.8362 2.01772C88.0853 1.91758 89.8808 2.19876 90.3297 2.18213C90.1377 2.44184 88.8981 2.06448 88.6144 2.09487C87.6697 2.19482 89.9204 2.34157 89.2151 2.62994C89.5023 2.55865 89.802 2.48857 90.0919 2.41779C90.5902 2.68327 89.848 2.71714 91.2538 2.75567C91.4987 2.58394 90.262 2.70139 90.5184 2.57159C90.6769 2.49594 91.4811 2.54564 91.5056 2.50085C91.5241 2.44589 90.7865 2.44973 90.91 2.3734C91.1748 2.20796 93.8455 2.6173 91.7938 2.54253C92.3585 2.58796 92.6227 2.98395 93.1237 2.91118C93.4489 2.86406 91.6985 2.19634 94.3832 2.52459C94.4187 2.70383 93.3108 2.48313 93.2724 2.49326C93.2289 2.509 93.4018 2.9216 93.4363 2.94422C93.4793 2.97149 93.8643 2.99171 94.3836 3.02031C95.1553 3.06247 96.2698 3.07188 96.6083 3.2079C96.3929 2.97833 98.5498 3.21307 98.8091 3.13939C98.8735 3.12072 98.6347 2.97832 98.7036 2.96411C99.1304 2.88066 100.314 3.13549 100.872 3.14248C101.494 3.15079 101.418 3.02948 101.453 3.02978C101.726 3.03686 101.507 3.1187 101.675 3.11867C101.927 3.11838 103.686 3.13789 103.773 3.1214C103.8 3.11614 103.51 2.97702 103.898 2.95182C103.963 2.94763 103.921 3.11073 105.059 3.04473C106.432 2.96625 104.105 2.83636 104.677 2.66733C105.556 2.91565 105.534 2.67366 105.769 2.69394C105.838 2.70009 106.268 2.84454 106.8 2.89025C106.907 2.89977 107.019 2.90495 107.134 2.90361C107.022 2.91061 106.91 2.91761 106.799 2.92463C106.426 2.94727 106.062 2.97037 105.696 2.99382C105.973 3.01673 106.404 3.01268 106.799 3.015C107.062 3.01651 107.311 3.02088 107.47 3.03888C107.656 3.06026 107.499 3.22826 107.909 3.22703C107.998 3.22589 108.342 2.81619 107.271 2.9926C107.187 2.84466 107.694 2.94462 107.932 2.90493C107.969 2.89874 108.112 2.65388 108.411 2.80927C108.482 2.84754 107.691 3.55841 109.728 3.05625C109.793 3.04007 109.567 2.94825 109.631 2.93017C109.673 2.91791 110.197 2.95877 110.252 2.9465C110.31 2.93332 110.062 2.83305 110.131 2.81434C110.488 2.71793 110.955 3.11117 110.219 3.07513C110.463 3.12534 110.712 3.1756 110.958 3.22585C110.697 2.93027 111.344 3.1467 111.688 3.14069C113.875 3.10232 112.412 2.89861 112.789 2.80325C113.398 2.65019 112.928 3.14794 113.83 3.00516C113.912 2.9918 112.829 2.76905 114.947 2.9082C114.635 2.91371 114.321 2.91921 114.008 2.92472C114.186 3.21 115.138 2.91536 115.211 2.91203C116.044 2.88052 115.481 2.97777 116.717 2.84271C116.828 2.83058 117.068 2.90273 117.304 2.8699C118.283 2.73472 116.014 2.77113 115.953 2.6557C115.924 2.59919 118.364 2.63506 118.447 2.66247C118.802 2.78405 117.341 2.70487 117.618 2.85438C117.72 2.9076 121.197 2.83076 121.894 2.89356C122.698 2.96686 123.055 3.35434 123.065 2.92225C123.29 3.34829 123.491 3.06046 123.593 3.06419C124.836 3.11325 124.841 3.11756 125.906 3.08469C126.142 3.07755 126.336 3.20761 126.422 3.18647C126.471 3.17367 126.381 3.03532 126.619 2.99445C126.951 2.93892 128.92 3.0923 129.07 3.16871C129.218 3.24566 128.236 3.19741 128.412 3.3235C128.661 3.32944 128.925 3.3297 129.168 3.32818L129.061 3.32877C129.5 3.31713 129.932 3.2992 130.377 3.29748C130.669 3.29658 130.521 3.38764 130.647 3.38638C130.7 3.38685 131.7 3.28229 131.656 3.25067C131.555 3.18482 128.464 3.29835 129.276 3.12815C129.433 3.09611 129.99 3.28716 129.898 3.04334C132.657 3.0445 135.42 2.97485 138.231 2.87348C136.628 3.14684 134.818 3.07357 133.154 3.15262C132.926 3.16376 132.154 3.16627 132.252 3.28698C133.669 3.27365 135.431 3.12946 136.81 3.13788C136.854 3.13827 136.699 3.25799 136.864 3.26709C137.174 3.28435 138.171 3.04992 138.341 3.08671C138.37 3.09601 137.807 3.2743 137.986 3.35798C138.443 3.57284 138.534 3.03592 138.915 3.0206C139.215 3.00932 141.232 3.14798 141.728 2.95539C142.251 2.75108 140.239 2.94355 140.38 2.79335C141.735 2.57125 143.125 2.6388 144.42 2.54343C144.443 2.5416 144.237 2.44298 144.526 2.41009C145.031 2.35279 145.166 2.50216 145.415 2.51243C145.682 2.52328 146.62 2.44508 146.743 2.4953C146.759 2.50187 146.58 2.6685 146.553 2.67454C146.145 2.76299 145.99 2.56962 145.953 2.56922C145.813 2.56985 145.686 2.65503 145.556 2.65814C145.344 2.66306 145.224 2.59843 144.95 2.60849C144.761 2.61514 144.951 2.74167 144.77 2.74622C144.699 2.74759 143.956 2.47736 143.91 2.80155C143.892 2.90225 149.836 2.68119 150.434 2.56997C149.912 2.56069 149.413 2.55041 148.893 2.54167C149.936 2.5756 151.162 2.25058 151.275 2.62418C152.078 2.58611 152.877 2.54907 153.692 2.51207C153.716 2.50922 153.788 2.5094 153.812 2.50716C156.889 2.44652 159.929 2.42659 162.967 2.40744C163.653 2.43013 163.28 2.679 164.406 2.59252C164.116 2.51887 163.821 2.4453 163.529 2.37172C164.11 2.41798 166.664 2.48961 167.079 2.43352C167.133 2.42618 167.202 2.20468 167.841 2.17678C168.407 2.15211 168.499 2.31605 168.803 2.34336C169.059 2.36582 169.341 2.31842 169.417 2.32643C169.475 2.33289 169.499 2.43361 169.639 2.44918C170.08 2.49718 169.721 2.21792 170.16 2.53816C170.054 2.5522 169.949 2.56621 169.842 2.58024C170.372 2.61973 171.099 2.75698 170.319 2.84198C170.185 2.85662 170.299 2.75714 170.199 2.7588C166.276 2.83379 169.412 2.97928 170.784 2.80637C171.139 2.94619 173.114 2.8258 173.18 2.85288C173.272 2.89268 172.936 3.01417 173.38 3.10661C173.474 3.1269 176.113 2.99735 175.166 3.20734C174.969 3.25093 173.704 3.23186 173.398 3.24256C174.124 3.53762 175.796 3.06651 175.987 3.07377C176.752 3.10678 174.524 3.36821 176.246 3.37051C177.567 3.3714 176.323 3.19138 176.829 3.09363C177.115 3.03906 178.615 3.23253 178.567 2.94077C179.079 2.898 178.783 3.05957 178.846 3.06929C178.909 3.07781 179.915 2.96676 180.244 3.02015C180.284 3.02684 180.163 3.18188 180.204 3.19331C180.285 3.21279 181.256 3.15785 181.295 3.14378C181.319 3.1342 181.084 3.00715 181.179 2.97242C181.289 2.9325 182.224 2.93882 182.275 2.89921C182.346 2.83992 181.194 2.90863 181.382 2.75465C181.915 2.77834 182.779 2.65499 183.126 2.52499C183.041 2.56177 182.526 2.58129 182.346 2.57411C182.425 2.35411 183.531 2.32538 183.158 2.50869C183.395 2.4091 183.23 2.36473 183.363 2.27338C183.398 2.25022 183.739 2.23555 183.804 2.19583C183.813 2.18808 183.457 2.11634 183.527 2.06998C183.653 1.98646 184.687 1.97282 184.773 1.99087C185.013 2.04285 184.171 2.14126 184.104 2.23514C184.094 2.24967 184.818 2.40746 184.829 2.42291C184.876 2.59235 184.073 2.49421 184.169 2.64496C184.368 2.67138 184.567 2.6977 184.766 2.72391C184.007 2.90406 182.595 2.86458 182.234 3.05127C183.365 2.96781 184.548 2.93711 184.559 3.33571C184.563 3.50364 184.078 3.61706 184.098 3.65913C184.174 3.80976 184.848 3.62276 184.873 3.62994C184.894 3.63859 184.904 3.64735 184.904 3.65617C184.904 3.65617 184.904 3.65618 184.904 3.65618C184.907 3.74579 183.941 3.8401 183.895 3.88217C183.815 3.95717 184.255 4.24267 184.256 4.30868C184.242 4.3225 183.555 4.41381 183.791 4.52207C184.029 4.63153 184.633 4.61548 184.655 4.62685C184.772 4.69305 183.719 4.78885 183.688 4.83069C183.672 4.85202 184.243 4.9627 184.26 4.99884C184.275 5.03529 183.848 5.12875 183.68 5.25005C183.556 5.34023 183.928 5.39549 183.863 5.41096C183.817 5.42154 182.817 5.44905 182.769 5.46542C182.697 5.48994 182.933 5.58662 182.9 5.6134C182.853 5.65192 182.529 5.62369 182.572 5.66071C182.605 5.6886 183.866 6.00848 183.861 6.10349C183.851 6.26629 182.514 5.93179 183.767 6.53569C183.776 6.53965 184.075 6.48517 184.084 6.48884C184.273 6.60096 183.315 6.81134 184.492 6.74385C182.305 7.01421 184.226 6.99608 183.91 7.27886C183.788 7.38774 182.938 7.45565 182.935 7.47137C183.021 7.60222 183.289 7.49118 183.383 7.55378C183.435 7.58889 182.678 7.75136 182.852 7.83789C182.942 7.88265 183.75 7.84246 183.784 7.85053C184.107 7.92767 183.716 8.03273 183.789 8.0922C183.837 8.13213 184.325 8.1207 184.338 8.1277C184.359 8.14261 183.701 8.32933 183.564 8.39191C183.461 8.44011 183.857 8.49918 183.784 8.521C183.346 8.65182 182.399 8.37834 183.315 8.77286C183.371 8.79706 183.714 8.77663 183.724 8.78145C183.939 8.89436 183.308 8.92321 183.199 9.02388C183.01 9.19755 183.914 9.07768 183.163 9.21762C183.732 9.31125 184.048 9.29737 184.709 9.24623C182.878 9.3875 182.242 9.84021 184.279 9.76946C183.631 9.78221 183.71 10.0254 183.517 10.0354C183.396 10.0415 182.45 9.82382 182.896 10.3595C182.952 10.4264 183.521 10.3231 183.346 10.4683C181.974 10.4714 183.319 10.5584 183.321 10.5767C183.313 10.9018 179.953 10.726 179.38 10.774C178.713 10.8321 178.126 11.0992 177.98 11.1026C177.503 11.1129 177.896 10.9754 177.789 10.9302C177.681 10.8857 176.327 11.1607 176.26 11.1482C175.995 11.0987 176.259 10.9405 176.232 10.9333C175.903 10.8464 174.087 10.9996 173.575 10.9724C173.591 11.0715 174.618 11.0614 173.98 11.2321C173.238 11.4309 173.19 10.9938 173.17 10.9749C169.759 11.0365 166.357 11.0835 162.964 11.1355C163.012 11.3675 165.225 11.1613 165.279 11.1913C165.575 11.3686 161.828 11.4171 161.369 11.3426C161.717 11.3877 162.067 11.4328 162.418 11.4781C161.823 11.7543 160.502 11.4262 159.646 11.5587C159.368 11.6016 159.904 11.6961 159.892 11.7034C159.585 11.8123 159.077 11.7408 159.451 11.5949C158.692 11.7416 158.8 11.5922 158.217 11.5917C158.187 11.5917 158.437 11.6951 157.98 11.7484C157.76 11.7731 156.609 11.7966 156.459 11.8947C156.397 11.9357 156.987 12.3423 157.054 11.9804C158.308 12.1314 157.449 11.8082 157.939 11.8071C158.016 11.8077 157.841 12.0114 159.07 11.8951C158.845 12.2616 157.421 12.0165 157.185 12.0657C156.688 12.1656 158.745 12.3132 159.12 12.0247C158.949 12.3109 159.265 12.0603 159.728 12.0643C160.229 12.0687 160.012 12.1566 160.285 12.1527C161.033 12.143 160.716 11.9481 161.337 12.1188C160.726 11.57 162.392 12.0294 162.872 12.1689C162.092 12.2083 161.302 12.2483 160.524 12.2888C160.57 12.3174 160.614 12.346 160.659 12.3746C160.454 12.3737 160.244 12.3728 160.039 12.372C160.072 12.3434 160.104 12.3148 160.137 12.2862C159.077 12.4859 158.819 12.2857 158.73 12.2849C157.616 12.2807 156.332 12.3081 155.215 12.335C155.054 12.3392 155.156 12.5032 154.09 12.4202L154.22 12.4149C154.173 12.4126 154.123 12.4099 154.072 12.4067C153.673 12.3825 154.038 12.2206 153.593 12.266C153.06 12.6813 153.055 12.3734 152.886 12.382C152.406 12.4083 152.127 12.5196 152.083 12.523C151.491 12.5706 150.629 12.603 149.992 12.6537C149.979 12.6559 150.32 12.7553 149.9 12.7441C149.745 12.7403 148.405 12.3101 147.256 12.5435C147.553 12.5601 147.864 12.5761 148.163 12.5928C147.803 12.5656 145.338 12.8401 145.95 12.9394C146.33 12.9997 147.219 12.6201 147.332 12.9278C146.508 12.8813 141.949 13.2974 141.587 13.2451C141.537 13.2377 141.833 13.118 141.765 13.1091C141.713 13.1023 140.665 13.1884 140.521 13.1575C140.437 13.1391 140.898 13.0496 140.858 13.0153C140.827 12.9911 139.505 13.024 139.438 13.1553C139.759 13.0859 140.668 13.0779 140.199 13.2129C140.139 13.2298 139.818 13.1659 139.743 13.1871C139.062 13.383 141.12 13.2267 141.441 13.2083C140.155 13.4477 138.142 13.3718 136.628 13.5526C136.011 13.4771 137.527 13.3446 136.83 13.2917C135.383 13.1805 136.454 13.4574 136.411 13.4732C136.058 13.5986 134.812 13.0801 134.83 13.5162C134.304 13.4726 134.471 13.411 133.732 13.4972C133.831 13.5237 133.93 13.5502 134.028 13.5765C133.214 13.8646 131.446 13.2785 131.577 13.225C131.924 13.0855 132.839 13.2594 132.916 13.2514C133.031 13.2396 133.331 12.7881 134.598 13.1324C135.098 12.8154 132.607 13.0099 133.734 12.7634C132.97 12.8332 129.803 12.7098 129.35 12.8413C129.311 12.8541 129.434 13.0084 129.214 13.0433C129.196 13.0424 129.14 13.0451 129.122 13.0438C129.039 13.0557 128.907 13.0482 128.687 13.0044C128.319 12.9307 129.204 12.9318 129.035 12.8634C128.522 12.6573 121.557 12.7369 120.241 12.735C120.156 12.7346 120.188 12.6429 120.104 12.643C119.843 12.6433 118.901 12.7723 118.438 12.7259C119.396 12.9046 117.532 12.9015 117.059 12.8785C116.34 12.8436 116.386 12.6821 116.076 12.6449C114.879 12.5015 113.022 12.8692 112.095 12.5017C112.142 12.8588 110.488 12.3126 109.733 12.3031C109.144 12.2955 108.285 12.5243 109.079 12.6747C108.299 12.6556 107.488 12.6849 106.723 12.7062C106.484 12.7127 106.259 12.7187 106.036 12.7223C105.877 12.7249 106.095 12.6208 105.826 12.6287C105.802 12.6302 105.767 12.7333 105.54 12.7427C103.636 12.8237 104.565 12.6089 104.208 12.5428C104.008 12.506 103.865 12.4876 103.754 12.4814C104.861 12.4637 106.144 12.4311 106.481 12.4309C106.194 12.1995 104.025 12.4609 103.393 12.3992C103.372 12.3969 103.447 12.2713 103.425 12.2703C103.425 12.2703 103.424 12.2703 103.424 12.2703C103.184 12.2599 101.666 12.3044 101.979 12.4548C102.061 12.4951 102.764 12.4955 103.589 12.4839C103.367 12.5115 103.533 12.6528 103.493 12.6587C103.014 12.7271 101.839 12.5882 101.419 12.5692C101.322 12.565 101.329 12.6553 101.313 12.6555C100.932 12.6344 101.088 12.3769 100.696 12.642C100.007 12.3196 101.99 12.5963 101.852 12.3873C101.76 12.2306 97.2984 12.298 97.2736 12.5348C97.2583 12.5074 97.1963 12.4726 97.0658 12.4313C96.7822 12.3431 95.474 12.3224 95.2384 12.3529C95.1994 12.36 95.2022 12.6061 95.1536 12.6058C95.0699 12.6058 94.2641 12.4701 93.5647 12.3991C93.2796 12.3706 93.0197 12.3607 92.8465 12.3904C93.0787 12.4379 93.3142 12.4857 93.5529 12.5338C93.623 12.5472 93.6931 12.5605 93.7632 12.5736C93.6894 12.5675 93.6187 12.5617 93.551 12.5561C91.946 12.4231 92.2222 12.5181 92.7968 12.639C92.8267 12.6423 92.855 12.6541 92.8836 12.6576C93.0918 12.7004 93.3302 12.7455 93.5311 12.784C93.7983 12.8327 94.0002 12.8683 94.005 12.8794C94.0129 12.8979 93.8163 12.8995 93.5223 12.8846C92.6967 12.8459 91.0506 12.6851 91.5114 12.5518C91.5976 12.5278 93.0135 12.7527 92.3191 12.5291C92.1964 12.4898 91.2818 12.4572 91.2337 12.4352C90.9222 12.2885 92.9349 12.304 92.7055 12.1142C92.2015 12.2322 91.5912 12.0941 91.0323 12.0877C90.7827 12.0851 90.7057 12.2021 90.6748 12.2018C90.2032 12.1936 90.4775 12.0875 90.3216 12.0774C90.2415 12.0727 89.2966 12.2681 89.5033 11.9055C86.4611 11.93 88.6514 12.1113 90.4992 12.2485C89.9108 12.3364 88.7548 12.1714 88.2449 12.1612C88.0579 12.1573 88.1564 12.2924 87.8433 12.2918C87.1984 12.2882 84.1579 11.9014 83.3749 11.8147C83.8626 11.8052 83.7328 11.6576 83.3559 11.64C82.9795 11.6228 83.2819 11.8286 83.2072 11.8431C83.1315 11.8567 81.3795 11.6516 81.0919 11.6599C82.4099 11.6766 82.1248 11.5201 81.0068 11.436C81.1729 11.4065 81.3332 11.3768 81.4983 11.3476C80.8386 11.36 79.4802 11.0753 79.0989 11.1205C79.0395 11.1276 79.2456 11.2534 79.2122 11.2574C78.8797 11.2887 77.7636 11.123 77.7092 11.1613C77.6637 11.1922 78.1382 11.3082 77.9588 11.3487C77.9213 11.3571 77.4667 11.1824 77.011 11.2055C76.8422 11.2139 76.94 11.3265 76.8974 11.3314C76.5425 11.3727 76.7566 11.1946 76.1095 11.2058C75.6347 11.215 75.2786 11.3862 74.6239 11.3153C76.7698 11.589 74.9638 11.451 74.0634 11.5097C73.9209 11.5191 74.0371 11.7111 73.2182 11.618C73.204 11.6164 73.1896 11.6148 73.1749 11.6131C73.1896 11.6105 73.204 11.6079 73.2183 11.6053C74.2968 11.4035 73.8477 11.3781 73.2201 11.3877C72.8039 11.394 72.3305 11.4138 72.1328 11.4103C72.1054 11.4088 72.0966 11.278 71.8514 11.2735C71.8308 11.2734 71.8593 11.362 71.6324 11.3664C69.4728 11.4061 70.8532 11.3217 70.4437 11.2299C70.2682 11.1908 69.2142 11.302 68.9348 11.3008C68.8692 11.3002 68.9001 11.2089 68.6472 11.2088C68.2036 11.2089 67.7994 11.3003 67.5077 11.3033C67.4736 11.3032 67.4753 11.1585 66.9155 11.1961C66.7589 11.2066 66.5839 11.255 66.804 11.3005C67.5419 11.4503 68.943 11.2346 69.7779 11.3819C70.5372 11.5167 68.1338 11.4958 68.0114 11.4937C67.9653 11.4934 68.4383 11.4288 67.9591 11.4072C67.5512 11.3891 66.8087 11.6271 66.2001 11.5617C66.1536 11.5569 65.6762 11.336 65.6972 11.324C65.7212 11.3155 66.4592 11.2827 66.3542 11.2194C66.3401 11.2122 65.8712 11.2052 65.8099 11.1583C65.7344 11.1013 65.54 10.5517 65.44 10.5361C65.1832 10.4974 65.3482 10.6251 65.1826 10.6133C64.8189 10.5883 63.588 10.4018 63.5386 10.5898C63.7476 10.6054 63.9473 10.6208 64.1538 10.6362C63.012 10.6322 63.4954 10.7226 63.3334 10.7547C63.1576 10.7894 63.2157 10.6243 62.8261 10.6002C62.7451 10.5953 61.1277 10.5934 61.161 10.6638C62.0493 10.5732 61.7208 10.7711 61.76 10.7757C61.914 10.7926 62.1143 10.6818 62.3261 10.6889C63.7989 10.7392 62.3075 10.8886 62.6547 10.943C62.7733 10.9614 63.0165 10.8682 63.0676 10.8743C63.2304 10.8941 63.2306 11.023 63.3406 11.0149C63.5983 10.9962 63.3018 10.8075 63.3225 10.7984C63.5566 10.6894 64.4504 10.8497 63.8879 11.0367C64.2205 11.115 64.2701 10.8748 64.5326 10.9764C65.0565 11.1778 64.2672 11.1132 64.0484 11.1403C63.2749 11.2387 63.0457 11.1414 61.9532 11.1486C61.5599 11.1509 61.0942 11.2573 60.9082 11.2594C60.794 11.2608 59.7204 10.8274 59.6714 11.4643C59.2541 11.3925 58.6019 10.9559 58.1691 10.9646C57.7817 10.9727 57.9016 11.2014 57.8643 11.2092C57.8039 11.2215 57.342 11.1925 57.1789 11.2206C56.9917 11.2539 57.0887 11.3423 56.7888 11.3704C56.0562 11.4407 56.086 11.2113 56.0087 11.1946C55.1462 11.0034 55.5216 11.3393 55.3305 11.3617C55.2493 11.3711 54.7069 11.3407 54.1239 11.3187C53.3217 11.2911 52.405 11.2635 52.1124 11.3063C52.3278 11.2625 52.5461 11.2186 52.7677 11.1746C52.3724 11.027 51.9672 11.257 51.9568 10.9992C51.8641 11.4143 51.0751 11.127 50.8202 11.1344C50.7236 11.1376 50.7302 11.2086 50.6101 11.2101C50.1518 11.2168 49.0856 11.1446 48.8296 11.1762C47.7262 11.3136 50.5464 11.6151 50.7587 11.6317C50.3248 11.623 47.8015 11.6763 48.9544 11.8946C49.1346 11.9283 49.4541 11.747 49.5521 11.7411C50.2304 11.703 49.6946 11.8621 49.7474 11.8787C49.8366 11.9057 50.2924 11.7507 50.4046 11.7714C50.4446 11.778 50.1868 11.9259 50.8352 11.9374C50.5188 12.0806 48.6926 11.9344 48.4621 11.9643C48.3782 11.9749 48.8998 12.2978 47.3495 11.9659C47.3672 11.9953 47.3848 12.0247 47.4025 12.0541C46.5383 12.0501 45.6683 12.0439 44.8015 12.0359C44.8962 11.9711 45.3851 11.8478 44.7737 11.8624C44.4232 11.8708 44.6796 12.0258 44.6473 12.0294C44.3166 12.0671 38.7572 11.8669 37.7039 11.8608C37.3409 11.8573 36.332 11.955 36.2522 11.9558C35.7953 11.9574 34.1678 11.8499 33.8453 11.8626C33.6429 11.8703 33.8335 11.9979 33.6523 11.9893C33.4831 11.9811 33.6603 11.8633 33.6101 11.8575C33.2895 11.8179 31.315 11.88 30.0949 11.8589C29.7566 11.8526 29.4564 11.8387 29.2968 11.8123C29.4288 11.8235 29.7477 11.811 30.0955 11.7858C30.9304 11.7275 32.019 11.6046 31.9957 11.5451C31.9821 11.5333 31.4355 11.4356 31.3189 11.4791C31.1244 11.3728 30.4851 11.6843 30.1226 11.6192C30.104 11.6158 30.1277 11.577 30.0975 11.5323C30.0624 11.4792 29.9584 11.4178 29.6117 11.3978C29.3915 11.3851 28.8229 11.52 28.2468 11.3611C27.4185 11.4294 23.0223 11.1822 22.7222 11.3737C22.7119 11.3837 23.3336 11.4514 22.9138 11.5288C22.3576 11.6316 22.8586 11.2813 22.2107 11.2492C22.1118 11.2442 20.3115 11.2757 20.2513 11.2974C19.7053 11.4937 21.2796 11.577 21.2577 11.5999C21.2025 11.6575 19.8942 11.6897 19.8411 11.676C19.7906 11.6618 20.8581 11.4023 19.5754 11.499C19.7225 11.5305 19.8694 11.5621 20.0161 11.5936C19.4129 11.6533 19.3555 11.4723 19.2095 11.461C18.7553 11.4252 18.2634 11.6992 17.5357 11.3588C17.3432 11.2684 17.6631 11.1688 17.639 11.1553C17.4074 11.0337 17.1131 11.3576 16.7649 11.1153C16.7392 11.0972 17.548 10.9533 16.1341 10.9512C16.2311 10.9745 16.3283 10.9978 16.4255 11.0211C16.2278 11.0726 14.7921 11.102 14.601 11.0896C14.0383 11.0534 14.5287 10.8872 13.9627 10.9067C14.325 11.1351 12.6068 11.1637 12.7041 10.9674C12.4629 11.2139 11.0003 11.0229 10.3135 11.0169C9.88048 11.0133 9.00012 11.1207 8.85688 11.1081C8.68888 11.0927 8.73843 10.9244 8.43954 10.8869C8.34763 10.8762 7.45007 10.9995 6.65627 10.8253C6.51004 10.7917 6.17463 10.5062 6.46655 10.4349C6.94883 10.3128 7.88305 10.5428 7.86703 10.3741C7.85273 10.1937 6.60919 10.3009 6.27138 10.2774C6.15454 10.2692 6.05363 10.2605 5.96601 10.2515C4.85755 10.1403 5.6179 9.97225 5.57871 9.91849C5.48162 9.77738 4.62747 9.78176 4.59525 9.76907C4.44682 9.71271 5.05395 9.60103 5.05718 9.51491C5.07349 9.40277 4.25648 9.2004 4.44112 9.1626C4.69836 9.10892 5.45531 9.2776 5.50108 9.26954C6.11386 9.16075 5.27161 8.90168 5.03774 8.7744C4.96759 8.73525 5.24695 8.67089 5.18898 8.65941C4.29556 8.48515 4.99758 9.0235 4.40696 8.98755C3.86846 8.9555 4.56549 8.78525 4.5384 8.77587C4.51473 8.76555 3.8766 8.75627 3.7759 8.69603C3.7352 8.66587 5.37502 8.33472 5.31014 8.18625C4.78975 8.21896 4.25447 8.25168 3.72912 8.28439C3.68608 8.0908 4.44615 8.23331 4.52529 8.21335C4.68241 8.17329 4.24173 8.07533 4.26005 8.01412C4.27041 7.97519 4.79142 7.83627 4.32056 7.779C4.15863 7.75922 3.82722 7.89496 3.24252 7.7563C5.26515 7.57919 3.87345 7.47037 3.80331 7.40179C3.74492 7.33322 4.71868 7.17183 3.53855 7.20037C3.48659 6.82361 3.56481 7.08128 3.8978 7.01506C4.31542 6.93366 3.35688 6.8096 4.85992 6.90373C4.77107 6.72733 3.56963 6.73981 3.50543 6.72574C3.4498 6.71298 3.7206 6.62622 3.62512 6.59683C2.49015 6.25599 3.26804 6.41164 2.94287 6.19398C2.91163 6.17453 1.84611 6.09384 2.65815 6.06214C4.1468 6.00451 4.75147 6.25447 5.00661 5.72009C3.90992 5.48796 2.58168 5.8329 2.25405 5.83874C1.74153 5.84716 2.26922 5.73818 2.20799 5.70764C2.18405 5.69777 1.74476 5.70677 1.74262 5.69811C1.42557 5.29053 3.69781 5.69135 4.40986 5.62047C4.21172 5.55944 4.03195 5.4984 3.83369 5.43736C4.10011 5.43492 4.35615 5.43248 4.61268 5.43004C3.37922 5.30734 4.56926 5.38358 4.87946 5.05356C4.94607 4.9794 4.13323 5.10657 5.06135 4.90048C4.37651 4.8529 4.59389 4.78547 3.97859 4.8785C3.98799 4.74622 5.39009 4.597 5.93714 4.52912C3.99788 4.38047 5.09843 4.86568 3.42284 4.60896C3.11243 4.77276 3.91255 4.74087 3.84717 4.7679C3.61918 4.86511 3.06907 4.71076 2.40152 5.05136C2.29378 5.10728 2.74969 5.27941 2.07505 5.2711C2.00558 5.26992 1.56798 5.12282 1.57613 5.11215C1.6326 4.99695 2.06371 5.04012 2.07644 4.99203C2.09606 4.94651 1.61937 4.97389 1.61603 4.96127C1.60299 4.81694 2.01208 4.90611 1.9544 4.86092C1.82138 4.76266 0.118555 4.45207 2.34555 4.54304C0.495574 4.70621 2.1073 4.70241 2.83082 4.63972C3.01404 4.62401 3.06143 4.5378 3.32285 4.50788C3.66273 4.46914 4.05832 4.51052 4.22825 4.4947C4.41688 4.47726 3.34737 4.27348 4.8947 4.33429C4.10344 4.1316 2.7225 4.3477 1.95148 4.20538C0.396313 3.91779 3.03294 3.85604 3.3104 3.82817C3.38277 3.82062 3.13995 3.70419 3.18759 3.69706C3.26457 3.68612 4.7622 3.73994 4.91507 3.64359C5.05936 3.54733 4.37053 3.64803 4.31698 3.54764C4.28472 3.48006 6.10014 3.36018 5.11439 3.31399C4.44371 3.28233 3.19751 3.55396 2.98784 3.26199C3.9811 3.23782 4.96541 3.21366 5.96601 3.1895C5.96631 3.18949 5.96661 3.18948 5.96691 3.18947C5.96661 3.18941 5.96631 3.18935 5.96601 3.18928C5.41752 3.07826 4.87672 2.96723 4.33488 2.85621C4.90585 2.83813 5.43452 2.86235 5.96601 2.86873C6.45409 2.87479 6.96124 2.86479 7.46816 2.78738C4.93429 2.43135 8.29464 2.50331 8.33257 2.46005C8.3428 2.43413 7.33981 2.14512 7.184 2.09228C8.06501 1.98108 10.7647 1.92733 9.18848 1.57024C9.47051 1.65084 10.1677 1.45216 10.157 1.43715C10.0738 1.27948 8.55654 1.38141 8.80375 1.23911C9.09462 1.07395 9.48787 1.29813 9.93076 1.28035C12.1864 1.18777 11.5661 0.364623 13.8297 0.496293C13.7849 0.466962 13.7401 0.437632 13.6954 0.408301C16.1525 0.456716 18.6139 0.506384 21.0738 0.558543C22.0358 0.309195 24.6032 0.163526 25.862 0.196917C26.1159 0.203254 27.3654 0.340983 27.4549 0.364691C27.6293 0.409851 26.673 0.422026 27.1055 0.50723C27.1915 0.524272 29.3046 0.59194 29.1596 0.450836C28.9163 0.432844 28.1787 0.499097 28.0586 0.465354C27.6714 0.356043 28.8085 0.341699 30.1858 0.354086C31.8669 0.368138 33.889 0.43071 34.0738 0.382128C33.9301 0.334205 33.785 0.286326 33.6383 0.238495C34.0564 0.267146 34.4673 0.296248 34.8808 0.325951ZM15.9743 11.5099C15.7281 11.6507 15.1143 11.5441 14.7505 11.5834C14.2489 11.6384 13.3964 12.181 13.7631 11.6368C14.4998 11.5944 15.2375 11.5521 15.9743 11.5099ZM26.7352 11.7472C26.2467 11.6692 26.6232 11.3668 27.0319 11.4952C27.0759 11.5098 27.4059 11.8524 26.7352 11.7472ZM21.5634 11.5853C21.5846 11.5813 22.0095 11.5904 22.0252 11.5952C22.4075 11.7182 21.1219 11.6901 21.5634 11.5853ZM46.5105 11.8046C45.9628 11.8066 46.3505 12.0911 46.6986 11.9842C46.7203 11.9774 46.5465 11.8047 46.5105 11.8046ZM46.1219 11.7894C45.6939 11.533 44.8313 12.0155 45.5125 11.98C45.5762 11.9764 46.1431 11.8019 46.1219 11.7894ZM24.9791 11.619C25.0326 11.5243 25.5458 11.5721 25.7609 11.5957C25.757 11.6823 25.1881 11.6092 24.9791 11.619ZM37.8021 11.7429C37.8224 11.6682 36.0687 11.633 35.9502 11.7297C36.2262 11.693 37.777 11.8089 37.8021 11.7429ZM42.3372 11.7554C42.2921 11.7414 41.6782 11.7449 41.694 11.8111C41.9934 11.9054 42.5381 11.819 42.3372 11.7554ZM51.4489 11.9354C51.4847 11.9192 51.0199 11.4954 52.1213 11.7832C52.2828 11.8254 51.7024 11.9285 51.7596 11.9441C51.8801 11.9747 51.9763 11.9895 52.054 11.9927C51.5292 12.0218 51.0191 12.0318 50.9591 12.0056C50.7191 11.8827 51.4356 11.9422 51.4489 11.9354ZM56.1486 11.6841C56.2487 11.6179 56.9137 11.6696 57.0612 11.7014C57.0873 11.7073 56.9687 11.884 57.2686 11.8777C57.5108 11.8724 57.1582 11.68 57.6207 11.7206C58.0963 11.7617 57.4563 11.8772 57.4997 11.8877C57.5534 11.9012 58.2869 11.8364 58.2634 11.9428C58.2418 12.0215 57.4618 11.949 57.2681 11.9612C57.0195 11.977 57.3143 12.1159 56.906 12.078C56.6434 12.0541 56.7948 11.8255 56.7398 11.8125C56.6942 11.8018 55.7927 11.9154 56.1499 11.6849C56.1495 11.6846 56.149 11.6844 56.1486 11.6841ZM52.1897 11.9839C52.1518 11.9914 52.1078 11.9951 52.054 11.9927C52.0997 11.9901 52.1447 11.9869 52.1897 11.9839ZM17.4022 11.4098C17.6587 11.4818 16.8974 11.5725 16.6077 11.4784C16.603 11.4028 17.3614 11.3986 17.4022 11.4098ZM52.662 11.7998C53.4312 11.8653 52.8543 11.9401 52.1897 11.9839C52.4012 11.9425 52.4073 11.7779 52.662 11.7998ZM31.3189 11.4791C31.3502 11.4968 31.3698 11.524 31.3719 11.5683C31.2898 11.519 31.2825 11.4929 31.3189 11.4791ZM33.052 11.5791C33.6483 11.4523 32.4334 11.441 32.4458 11.5381C32.445 11.5745 33.0299 11.5841 33.052 11.5791ZM47.2155 11.8315C47.161 11.8172 48.0287 11.4259 46.7748 11.708C47.4367 11.7689 46.7409 11.7999 46.7455 11.8357C46.7709 11.9391 47.8948 11.8615 48.1418 11.9098C48.3381 11.7296 47.4017 11.8788 47.2169 11.8316C47.2165 11.8316 47.216 11.8315 47.2155 11.8315ZM64.7085 11.9792C64.5574 12.0839 64.0715 12.0395 63.7514 12.0265C63.9009 11.922 64.3887 11.9666 64.7085 11.9792ZM149.492 12.8019C147.303 13.0283 146.989 12.6083 149.014 12.6637C149.052 12.6651 149.622 12.7499 149.492 12.8019ZM130.351 13.664C130.133 13.4777 130.841 13.432 131.306 13.4983C131.412 13.5133 131.807 13.696 131.363 13.7459C131.37 13.5143 130.682 13.4435 130.351 13.664ZM53.0962 11.6817C53.2712 11.5801 53.7461 11.6244 54.1212 11.6564C54.1967 11.6638 54.2702 11.6707 54.3348 11.675C54.2844 11.6998 54.2074 11.7154 54.1207 11.7245C53.8022 11.7529 53.3299 11.7142 53.0962 11.6817ZM142.239 13.0037C142.006 13.0032 141.856 13.1786 141.897 13.19C142.084 13.2424 142.509 13.0824 142.239 13.0037ZM50.9009 11.6379C50.8774 11.5616 51.7655 11.499 51.8315 11.6878C51.6334 11.6721 50.9295 11.6861 50.9009 11.6379ZM64.0973 11.9098C63.959 11.8683 64.682 11.8136 64.9003 11.8562C64.8796 11.9369 64.1904 11.9369 64.0973 11.9098ZM138.472 13.2783C138.258 13.2757 137.734 13.2994 137.677 13.3696C137.61 13.4574 138.38 13.3874 138.472 13.2783ZM177.103 11.8382C177.13 11.8679 176.324 12.1017 175.961 12.0536C175.274 11.9616 177.074 11.8179 177.103 11.8382ZM144.438 12.7857C145.102 12.9042 144.369 12.7949 144.405 12.9595C144.843 12.9391 145.949 12.881 145.18 12.7632C145.028 12.7406 144.646 12.784 144.438 12.7857ZM143.829 12.7667C143.766 12.8244 143.294 13.0231 143.708 12.986C143.895 12.9688 144.187 12.7621 143.829 12.7667ZM172.079 12.0029C171.487 11.8655 174.198 11.8998 174.28 11.9235C174.321 11.9364 174.348 11.9487 174.364 11.9593C174.462 11.9109 174.975 11.8932 175.037 12.0102C174.882 12.0033 174.463 12.0212 174.414 12.009C174.393 12.0038 174.377 11.9988 174.366 11.9937C174.186 12.0999 172.192 12.0294 172.079 12.0029ZM167.585 11.9178C168.26 11.691 168.382 12.0588 168.325 12.0715C167.592 12.233 168.067 11.9538 168.045 11.9414C167.993 11.9209 167.471 12.0546 167.587 11.9177C167.586 11.9177 167.585 11.9178 167.585 11.9178ZM171.157 11.9566C171.185 11.9514 171.752 11.954 171.776 11.9594C172.244 12.0763 170.636 12.0696 171.157 11.9566ZM59.7184 11.5109C60.1281 11.5575 59.719 11.6836 59.4547 11.6283C59.4336 11.6229 59.3616 11.4698 59.7184 11.5109ZM143.507 12.8227C143.412 12.8029 141.002 12.85 141.154 13.0462C141.359 13.0104 144.099 12.9517 143.507 12.8227ZM125.208 13.3913C125.631 13.396 125.169 13.5863 124.94 13.5124C124.855 13.4849 125.101 13.3902 125.208 13.3913ZM49.6882 11.4457C49.246 11.5456 49.3416 11.1901 49.7228 11.318C49.7378 11.323 49.7057 11.4418 49.6882 11.4457ZM128.606 13.5248C127.213 13.6282 127.459 13.0821 129.121 13.2128C129.14 13.2142 129.198 13.2114 129.217 13.2123C129.307 13.2174 129.402 13.2241 129.5 13.2329C129.44 13.2613 129.379 13.2896 129.318 13.318C131.263 13.3608 129.966 13.3616 129.22 13.3872C129.2 13.3862 129.14 13.3891 129.12 13.3877C129.007 13.3893 128.905 13.392 128.83 13.3963C128.623 13.4083 128.797 13.5117 128.608 13.5255C128.607 13.5253 128.607 13.525 128.606 13.5248ZM122.971 13.3622C121.565 12.9149 124.253 13.2207 125.029 13.1695C124.28 13.3438 123.302 13.3089 124.629 13.5034C122.687 13.5239 123.498 13.3566 123.419 13.3416C123.329 13.3247 123.032 13.3814 122.971 13.3622ZM126.697 13.3872C126.775 13.375 127.392 13.4678 127.617 13.4547C127.304 13.6017 126.156 13.47 126.697 13.3872ZM162.889 12.0837C162.938 11.9664 163.067 11.8786 163.548 11.9155C163.4 11.9761 163.091 12.0309 162.889 12.0837ZM15.5092 10.8956C15.1769 10.8869 14.5112 10.8424 14.7151 10.9652C14.7366 10.9756 15.5092 10.9644 15.5092 10.8956ZM136.472 13.127C136.399 13.1177 134.532 13.1932 135.183 13.2925C135.379 13.324 137.077 13.2246 136.472 13.127ZM146.009 12.5926C145.852 12.6007 145.24 12.6593 145.224 12.6879C145.192 12.7854 145.944 12.6878 146.009 12.5926ZM13.827 10.7748C13.7857 10.7626 12.7632 10.7834 12.8772 10.84C13.0864 10.9472 13.9788 10.8165 13.827 10.7748ZM61.207 11.2729C61.2914 11.2706 61.4012 11.3998 61.4308 11.4019C61.5046 11.4057 63.0659 11.3917 62.4669 11.5411C62.3631 11.5666 60.1141 11.4519 59.8229 11.4284C59.7157 11.2519 60.6724 11.4403 60.9049 11.4278C60.946 11.4253 60.9776 11.2806 61.2062 11.2736C61.2065 11.2734 61.2067 11.2732 61.207 11.2729ZM165.41 11.9257C165.475 11.8142 167.312 11.7158 167.291 11.8501C166.663 11.8754 166.036 11.9005 165.41 11.9257ZM164.478 11.9202C164.087 11.8473 165.001 11.8088 165.273 11.8397C165.279 11.914 164.534 11.9308 164.478 11.9202ZM142.514 12.3886C142.331 12.4266 142.909 12.5536 142.783 12.5925C142.702 12.617 142.287 12.5813 142.161 12.6393C142.125 12.6576 142.55 12.784 142.673 12.7701C142.846 12.751 142.67 12.6419 142.86 12.6297C143.481 12.5899 144.04 12.6414 144.627 12.6042C144.679 12.6006 144.269 12.5408 144.714 12.5153C144.78 12.5113 145.217 12.6108 145.745 12.5606C146.91 12.1016 147.805 12.4307 149.301 12.204C149.247 12.1703 148.107 12.1381 148.047 12.1382C146.782 12.1478 144.527 12.2763 143.201 12.3554C142.863 12.3753 143.033 12.4476 142.887 12.4593C142.771 12.4686 142.899 12.3082 142.514 12.3886ZM15.6862 10.8116C15.5282 10.6592 14.9689 10.755 14.614 10.7468C14.7378 10.8842 15.3398 10.7775 15.6862 10.8116ZM156.285 11.9373C156.105 11.947 155.562 11.9137 155.516 11.9607C155.461 12.0217 156.247 12.0414 156.285 11.9373ZM70.0463 11.4784C70.0631 11.4745 70.4965 11.488 70.5135 11.493C70.8995 11.6199 69.6002 11.5787 70.0463 11.4784ZM80.1199 11.7593C80.4361 11.758 80.7596 11.7296 80.8581 11.8592C80.6588 11.828 80.077 11.8428 80.1199 11.7593ZM94.1772 12.8533C94.1153 12.6891 95.1898 12.8632 95.3894 12.8841C95.3147 12.9553 94.2246 12.9766 94.1772 12.8533ZM162.812 11.5772C163.412 11.5782 163.281 11.3351 163.662 11.4407C163.725 11.4585 163.93 11.9657 163.273 11.7838C163.154 11.7511 163.617 11.6234 162.812 11.5772ZM129.817 13.2323C129.971 13.1225 130.459 13.1444 130.79 13.1449C130.717 13.2264 130.052 13.2206 129.817 13.2323ZM11.9876 10.6513C11.7038 10.5001 10.4073 10.6117 10.7283 10.7116C10.773 10.7246 11.803 10.6455 11.9876 10.6513ZM54.6021 11.2081C54.9767 11.1279 54.5187 11.0769 54.1257 11.1003C53.9584 11.1092 53.8003 11.1283 53.702 11.1597C53.7701 11.1571 53.9432 11.1667 54.1251 11.1779C54.3413 11.1927 54.5821 11.2123 54.6021 11.2081ZM90.7297 12.4704C90.7586 12.468 91.3126 12.5272 91.3398 12.5355C91.7901 12.6989 90.2021 12.5302 90.7297 12.4704ZM76.8576 11.4173C77.0583 11.3243 78.3547 11.4537 78.6412 11.5667C78.3542 11.6936 76.6093 11.5295 76.8576 11.4173ZM160.353 11.6835C160.78 11.6717 161.184 11.6957 161.577 11.7321C161.496 11.8156 160.402 11.7442 160.353 11.6835ZM92.7968 12.639C92.8267 12.6423 92.855 12.6541 92.8836 12.6576C92.854 12.6515 92.825 12.645 92.7968 12.639ZM150.966 11.9273C150.605 11.915 150.688 12.0616 150.71 12.0649C150.989 12.0982 151.365 11.9417 150.966 11.9273ZM15.278 10.587C15.1518 10.4507 14.5529 10.5558 14.2037 10.5231C14.3062 10.6308 14.9963 10.601 15.278 10.587ZM121.462 13.0706C121.013 12.9192 122.846 12.7629 123.235 12.8611C123.261 12.9526 121.529 13.0915 121.462 13.0706ZM52.9647 10.9883C52.9255 10.8812 52.1519 11.0022 52.3159 11.0543C52.4166 11.0875 52.9846 11.0548 52.9647 10.9883ZM124.156 12.9306C124.329 12.8994 124.731 13.0078 124.589 13.0709C124.407 13.1519 124.11 12.9396 124.156 12.9306ZM139.876 12.4488C139.797 12.4372 138.787 12.6041 139.214 12.689C139.508 12.7481 139.547 12.5913 139.615 12.587C139.696 12.5831 141.333 12.6772 139.876 12.4488ZM111.197 12.8871C111.582 12.8495 112.041 12.9012 112.441 12.9018C112.278 12.9663 111.36 12.9762 111.197 12.8871ZM55.8793 10.9984C55.7752 10.9492 53.3481 10.8891 54.7236 11.0407C54.7994 11.048 56.1527 11.1345 55.8793 10.9984ZM162.812 11.5772C162.736 11.577 162.649 11.5732 162.548 11.5641C162.648 11.5668 162.736 11.5728 162.812 11.5772ZM156.039 11.6783C156.172 11.5975 155.489 11.5922 155.283 11.6388C155.224 11.735 156.02 11.6894 156.039 11.6783ZM112.472 12.7936C112.702 12.7512 113.121 12.8024 113.405 12.7997C113.357 12.8716 112.57 12.8679 112.472 12.7936ZM96.187 12.5838C96.6752 12.6445 97.2692 12.6371 97.2785 12.5488C97.2881 12.5628 97.311 12.578 97.3492 12.5935C97.3883 12.6092 97.9025 12.5771 98.1197 12.6097C99.4827 12.8367 92.8887 12.5569 96.731 12.4382C96.5513 12.4875 96.3685 12.536 96.187 12.5838ZM75.1033 11.163C74.8523 11.0498 74.1436 11.1738 74.3263 11.219C74.4553 11.2492 75.3531 11.276 75.1033 11.163ZM84.8394 11.6083C84.7618 11.5829 84.0619 11.6059 84.0373 11.661C84.4316 11.7499 85.1796 11.7239 84.8394 11.6083ZM73.1584 11.0102C72.9932 10.9926 72.7824 11.1642 72.8017 11.1719C72.9105 11.2144 73.1488 11.1741 73.2223 11.1135C73.2481 11.0915 73.2528 11.0669 73.2229 11.0426C73.209 11.0316 73.188 11.0207 73.1584 11.0102ZM161.567 11.1279C161.324 11.0818 160.557 11.2192 160.39 11.3364C160.358 11.3148 160.273 11.2872 160.118 11.2551C160.119 11.2551 160.119 11.255 160.12 11.255C159.906 11.2068 153.709 11.2809 157.87 11.4179C158.001 11.4225 157.821 11.3229 158.35 11.3314C158.385 11.332 158.404 11.4157 158.512 11.4178C158.765 11.4218 160.089 11.4525 160.358 11.3809C160.36 11.3964 160.378 11.4109 160.415 11.4239C160.743 11.5397 161.756 11.1634 161.567 11.1279ZM86.2288 11.7016C86.0908 11.6594 85.6384 11.6532 85.5887 11.7237C85.8045 11.7769 86.5497 11.8001 86.2288 11.7016ZM55.8092 10.6929C55.5191 10.6255 54.8041 10.7269 55.0191 10.7912C55.1446 10.83 56.1379 10.7696 55.8092 10.6929ZM81.7734 11.4144C83.3979 11.6103 82.1633 11.4331 82.4204 11.3413C82.2063 11.3655 81.9862 11.3895 81.7734 11.4144ZM169.292 11.3002C169.026 11.2791 169.334 11.0603 169.63 11.1723C169.722 11.2079 169.44 11.3117 169.292 11.3002ZM181.352 11.0027C181.119 10.8187 182.238 10.901 181.806 11.0428C181.786 11.0478 181.369 11.0095 181.352 11.0027ZM172.917 11.1C172.738 11.2324 172.62 11.2497 172.11 11.2259C172.864 11.1773 172.162 11.0743 172.917 11.1ZM97.2736 12.5348C97.2766 12.5401 97.2791 12.544 97.2785 12.5488C97.2752 12.544 97.2738 12.5395 97.2736 12.5348ZM71.5794 11.0289C71.3715 10.9171 70.7798 10.9185 70.9547 11.0308C70.9699 11.0413 71.4954 11.1091 71.5794 11.0289ZM160.39 11.3364C160.418 11.3556 160.404 11.3686 160.358 11.3809C160.355 11.3663 160.367 11.3523 160.39 11.3364ZM74.6976 10.9737C74.6752 11.0546 75.5409 11.1037 75.5758 11.0956C76.0756 10.9655 75.0562 10.974 74.6976 10.9737ZM49.9459 10.5052C49.8977 10.513 50.202 10.7285 50.3795 10.6481C50.5198 10.5858 50.1253 10.4752 49.9459 10.5052ZM174.65 11.0173C174.932 11.0123 175.333 11.0048 175.408 11.1037C175.218 11.0919 174.645 11.091 174.65 11.0173ZM180.912 10.8761C180.58 11.0025 179.814 11.0208 179.324 11.0126C179.313 10.8579 180.598 10.9209 180.912 10.8761ZM162.332 11.1746C162.307 11.1686 161.6 11.1327 161.699 11.2351C161.84 11.3854 162.533 11.2282 162.332 11.1746ZM51.3275 10.6352C51.6445 10.5674 50.9187 10.339 50.5775 10.5042C50.4006 10.589 51.2813 10.6468 51.3275 10.6352ZM69.7433 10.8636C69.3221 10.9182 70.3585 11.0389 70.5081 10.9318C70.3124 10.9208 69.8919 10.8443 69.7433 10.8636ZM83.7039 11.2407C82.4331 10.8356 83.0967 11.4562 83.3294 11.4223C83.3631 11.4174 83.7353 11.2503 83.7039 11.2407ZM8.72201 10.0241C8.53401 10.0676 9.23524 10.2254 9.32049 10.1216C9.37719 10.0566 8.84119 9.99637 8.72201 10.0241ZM103.754 12.4814C103.699 12.4822 103.644 12.4831 103.589 12.4839C103.63 12.4789 103.684 12.4773 103.754 12.4814ZM65.9401 10.3842C66.8614 10.8432 66.7707 10.5002 66.8508 10.5035C67.0239 10.5112 67.4322 10.6377 67.7591 10.6232C67.3849 10.6671 66.9998 10.7105 66.6268 10.7539C66.921 10.7921 69.5113 10.9941 69.5658 10.922C69.6427 10.821 68.8335 10.8419 68.8061 10.8324C68.7718 10.8191 68.648 10.5332 68.5727 10.5213C68.4541 10.503 66.2829 10.4619 65.9401 10.3842ZM81.0038 11.1086C81.2104 11.155 81.26 11.2708 81.3577 11.25C81.3909 11.2429 81.4027 11.136 81.5164 11.1154C81.3445 11.1128 81.1768 11.1107 81.0038 11.1086ZM64.2656 10.7499C64.0055 10.6135 65.1849 10.6868 65.2231 10.702C65.4243 10.7948 64.4791 10.8615 64.2656 10.7499ZM74.2655 10.8716C74.2251 10.8628 73.344 10.8117 73.3497 10.8851C73.5832 10.9415 74.7585 10.9745 74.2655 10.8716ZM81.6557 11.1169C81.9635 11.1489 82.5462 11.2967 82.4886 11.1308C82.4881 11.1308 82.4877 11.1308 82.4872 11.1308C82.2119 11.1257 81.9314 11.1209 81.6557 11.1169ZM52.4195 10.306C51.8403 10.0425 52.108 10.3707 52.6297 10.4591C52.79 10.3451 52.5148 10.3489 52.4195 10.306ZM50.5306 10.092C50.3774 10.0442 48.669 10.0694 48.9276 10.2093C49.0232 10.2596 49.9925 10.1516 50.0421 10.1615C50.1097 10.1764 49.7973 10.3228 50.3176 10.3001C50.288 10.2486 50.586 10.1082 50.5306 10.092ZM51.9345 10.136C51.3434 9.93366 51.2131 10.293 51.6525 10.2991C51.8254 10.3018 52.0194 10.1652 51.9345 10.136ZM54.3217 10.1894C54.2736 10.1808 54.2076 10.1712 54.1332 10.1632C53.861 10.1371 53.4619 10.1263 53.1711 10.2152C53.485 10.2245 53.8053 10.2335 54.1325 10.2425C54.3149 10.2479 54.5052 10.2541 54.7013 10.2609C54.7597 10.1938 54.4972 10.2213 54.3203 10.1894C54.3207 10.1894 54.3212 10.1894 54.3217 10.1894ZM184.414 9.85327C183.945 9.76522 185.018 9.69305 185.065 9.71651C185.202 9.79572 184.624 9.89269 184.414 9.85327ZM5.0969 6.74405C4.97187 6.70324 4.88259 6.56896 4.60013 6.63931C4.88806 6.73844 5.16669 6.83756 5.45911 6.93669C5.67889 6.70956 5.23716 6.78907 5.0969 6.74405ZM4.0099 5.91419C4.05039 5.90869 3.82901 5.55943 4.34851 5.7926C4.69701 5.95004 2.79012 6.10347 2.44052 5.94861C2.82343 5.87665 3.66009 5.95902 4.0099 5.91419ZM0.656824 4.40241C0.630888 4.37456 1.36427 4.3337 1.44437 4.35334C1.89004 4.45684 0.771637 4.55163 0.656824 4.40241ZM2.97464 4.46906C2.64027 4.40124 3.3829 4.35752 3.61694 4.39655C3.63459 4.46156 3.02649 4.47894 2.97464 4.46906ZM179.575 4.92359C179.202 4.69495 178.883 5.21338 179.448 5.09728C179.475 5.0918 179.591 4.93484 179.575 4.92359ZM1.36577 4.0501C1.70648 4.11793 0.953519 4.16164 0.726308 4.12261C0.708181 4.05768 1.31349 4.04018 1.36577 4.0501ZM179.303 4.36436C178.81 4.20491 178.995 4.774 179.057 4.79571C179.312 4.88126 180.167 4.63578 180.343 4.57538C179.054 4.69267 179.535 4.4393 179.303 4.36436ZM177.056 4.75786C176.603 4.82837 177.765 4.92139 177.983 4.75663C177.757 4.76921 177.185 4.73756 177.056 4.75786ZM174.299 4.62677C174.055 4.61064 173.327 4.57405 173.208 4.66622C173.472 4.64548 174.199 4.72142 174.299 4.62677ZM173.741 4.36625C173.358 4.2503 173.273 4.6089 173.71 4.49499C173.727 4.49057 173.755 4.37283 173.741 4.36625ZM171.595 4.27279C171.342 4.13473 171.063 4.48495 171.468 4.48795C171.588 4.48819 171.622 4.28865 171.595 4.27279ZM178.677 3.76179C178.319 3.70882 177.863 3.96658 178.627 3.97684C178.361 4.02067 178.092 4.06442 177.824 4.10801C178.83 4.22505 178.746 3.88296 179.035 3.89068C179.437 3.9016 179.412 4.1856 179.333 4.27647C179.658 4.09548 181.056 4.05874 181.862 4.00363C181.151 3.95004 179.995 3.85246 179.294 3.8224C179.094 3.8137 178.901 3.89584 178.731 3.89099C178.457 3.88278 178.697 3.76545 178.679 3.76176C178.678 3.76177 178.678 3.76178 178.677 3.76179ZM168.775 4.30986C168.036 4.1595 168.506 4.5002 168.923 4.43228C168.94 4.42725 168.793 4.31353 168.775 4.30986ZM0.389256 2.99464C1.37288 3.13982 0.65751 3.33223 2.71631 3.04005C1.85246 3.2469 2.66887 3.18881 2.5009 3.27224C2.36364 3.33825 1.85778 3.28358 2.15186 3.41653C1.76513 3.27183 0.0797424 3.31185 0.00726027 3.28835C0.00796411 3.28835 0.00886522 3.28835 0.00952935 3.28835C-0.03536 3.27443 0.0752165 2.94847 0.389256 2.99464ZM174.279 3.71873C174.028 3.30169 173.941 3.97228 173.454 3.63132C172.821 4.14972 175.227 3.60043 175.526 4.02253C172.903 4.02161 177.266 4.41427 175.424 3.80761C176.936 4.01132 175.917 3.71869 176.148 3.63252C176.394 3.54074 177.248 3.61792 177.202 3.46179C177.201 3.4618 177.201 3.46181 177.2 3.46182C176.678 3.48365 176.16 3.50495 175.637 3.52591C176.154 3.85471 175.089 3.77359 174.721 3.5042C174.573 3.57574 174.426 3.64725 174.279 3.71873ZM177.236 3.97977C177.183 3.97329 176.052 4.04346 176.126 4.10986C176.278 4.1506 177.887 4.06536 177.236 3.97977ZM182.219 3.7866C181.813 3.79697 181.182 3.74737 180.964 3.8806C181.371 3.87115 182.002 3.92042 182.219 3.7866ZM161.228 4.13148C160.707 4.24403 162.312 4.25119 161.846 4.13401C161.822 4.1285 161.256 4.12614 161.228 4.13148ZM173.1 3.80289C172.568 3.68297 172.826 4.0887 173.215 3.9753C173.238 3.96862 173.124 3.80836 173.1 3.80289ZM1.18635 2.94484C1.22119 2.8444 2.65257 2.91495 2.90517 2.91407C2.76315 3.00743 1.14424 3.05998 1.18635 2.94484ZM182.924 3.39103C182.106 3.05328 181.02 3.49862 180.9 3.49246C180.78 3.48621 180.963 3.32363 180.936 3.32008C180.874 3.31308 179.599 3.35761 179.538 3.36976C179.495 3.37937 179.73 3.59572 179.469 3.67178C179.979 3.53479 182.311 3.55318 182.431 3.52432C182.524 3.50204 181.812 3.28899 182.923 3.39107C182.923 3.39106 182.924 3.39104 182.924 3.39103ZM180.598 3.45171C180.919 3.53673 180.025 3.57067 179.809 3.54137C179.327 3.47615 180.557 3.44197 180.598 3.45171ZM178.448 3.41671C178.346 3.39825 177.424 3.39916 177.349 3.50416C177.786 3.62949 178.681 3.46018 178.448 3.41671ZM168.188 3.60912C167.951 3.62575 167.286 3.55544 167.25 3.64639C167.489 3.62991 168.153 3.7001 168.188 3.60912ZM6.0606 2.15525C6.00175 2.14386 5.97268 2.13349 5.96601 2.1242C5.96387 2.12138 5.96393 2.11866 5.96601 2.11604C5.9945 2.07001 6.64241 2.05576 6.85423 2.08495C6.87034 2.14529 6.09064 2.16175 6.0606 2.15525ZM172.996 2.9395C172.852 2.91511 169.962 3.02904 169.555 3.07673C169.955 3.13992 172.821 3.10032 172.951 3.06405C172.989 3.05341 173.014 2.94352 172.996 2.9395ZM179.241 2.77449C179.504 2.63513 179.679 2.79076 179.712 2.79197C180.039 2.80466 180.718 2.75769 180.572 2.88967C179.993 2.85268 178.72 3.05117 179.241 2.77449ZM167.974 3.00926C166.989 3.07253 168.882 3.1863 168.632 3.0505C168.615 3.04233 168.075 3.00267 167.974 3.00926ZM173.318 2.89524C173.532 2.78481 176.426 2.82447 176.888 2.81405C176.476 3.02101 176.139 2.87692 175.581 2.89771C175.43 2.90354 175.472 2.98536 175.456 2.9858C175.195 2.99453 175.388 2.89548 175.228 2.89704C175.126 2.89882 173.015 3.0524 173.318 2.89524ZM179.39 2.67869C179.549 2.59915 181.349 2.52181 181.422 2.53963C181.968 2.6769 179.53 2.70304 179.39 2.67869ZM173.05 2.72322C173.354 2.48751 174.797 2.61662 173.814 2.74896C173.72 2.76108 173.321 2.66793 173.05 2.72322ZM168.076 2.78808C168.028 2.78199 166.999 2.75018 166.984 2.8238C167.13 2.85038 168.628 2.85497 168.076 2.78808ZM168.603 2.53228C168.578 2.53439 168.821 2.67238 168.34 2.66129C168.299 2.66017 168.226 2.50213 167.619 2.56886C167.496 2.58257 167.308 2.69044 167.322 2.69679C167.958 2.93782 169.844 2.43245 168.603 2.53228ZM179.42 2.54904C179.322 2.48418 179.551 2.27946 179.764 2.37532C179.855 2.41672 179.689 2.54039 179.42 2.54904ZM164.82 2.7685C165.416 2.63942 163.539 2.64234 163.444 2.6747C163.505 2.74911 164.759 2.78111 164.82 2.7685ZM6.99451 1.22212C6.99404 1.22212 6.99356 1.22212 6.99308 1.22212C7.49711 1.24953 7.18426 1.35008 7.20898 1.35324C8.28299 1.50099 7.99115 1.27323 8.16082 1.24636C8.52637 1.18827 8.45729 1.46522 9.06964 1.35048C8.06539 1.51992 8.97674 1.44896 9.00726 1.5475C9.11567 1.94963 7.67593 1.35903 7.1771 1.44333C7.10724 1.455 7.61715 1.58336 7.43995 1.61986C6.8609 1.73813 5.065 1.11736 6.99451 1.22212ZM179.926 2.35383C180.156 2.23073 181.913 2.29996 181.451 2.40921C181.376 2.42735 179.59 2.5345 179.926 2.35383ZM97.6109 3.66102C98.0169 3.56655 97.0852 3.42854 96.9166 3.5018C96.8297 3.53941 97.4325 3.70322 97.6109 3.66102ZM91.0684 2.78096C90.5685 2.75901 89.9885 3.13765 90.6286 3.12567C90.7008 3.12454 91.1194 2.84466 91.0684 2.78096ZM123.799 3.63423C123.273 3.4777 123.303 3.76099 123.689 3.76007C123.827 3.7598 123.816 3.63918 123.799 3.63423ZM103.658 3.50857C103.605 3.49851 102.991 3.51532 103.015 3.58046C103.241 3.61979 104.001 3.57726 103.658 3.50857ZM123.967 3.59527C123.656 3.64383 124.186 3.85275 124.573 3.65564C124.377 3.67056 124 3.59031 123.967 3.59527ZM171.955 2.11559C171.693 2.23606 170.959 2.21243 170.532 2.23882C170.485 2.08901 171.65 2.1479 171.955 2.11559ZM93.195 3.13646C92.7058 3.20049 93.7265 3.37639 93.6414 3.22822C93.6302 3.21959 93.2158 3.13372 93.195 3.13646ZM140.458 3.13578C140.118 3.24586 141.223 3.30153 140.912 3.16179C140.899 3.15611 140.476 3.12976 140.458 3.13578ZM145.263 2.90017C145 2.88545 143.875 2.96238 144.317 3.02359C144.387 3.03289 145.248 2.98345 145.263 2.90017ZM8.19065 1.13796C8.05013 0.983264 8.87107 1.02018 8.99232 1.04724C9.03492 1.05848 8.38293 1.33922 8.19065 1.13796ZM120.38 3.58171C120.107 3.59872 119.401 3.55582 119.275 3.63586C119.609 3.622 120.468 3.74413 120.38 3.58171ZM95.2528 3.30418C94.894 3.11477 94.2761 3.07823 94.4099 3.3099C95.1014 3.35019 94.3372 3.11102 95.2528 3.30418ZM125.721 3.42762C125.501 3.4132 125.336 3.62288 125.359 3.633C125.592 3.72925 125.939 3.51125 125.721 3.42762ZM109.316 3.46073C109.302 3.37047 108.606 3.40551 108.696 3.46429C108.728 3.48402 109.324 3.53373 109.316 3.46073ZM162.783 2.19542C162.46 2.11773 163.442 2.02338 163.733 2.11542C163.875 2.25182 162.825 2.20422 162.783 2.19542ZM131.598 3.44511C131.626 3.31112 130.562 3.41515 130.985 3.51488C131.091 3.54004 131.588 3.49028 131.598 3.44511ZM141.907 2.7759C141.184 2.97919 144.268 2.90725 143.447 2.75745C143.392 2.7466 141.971 2.75867 141.907 2.7759ZM146.948 2.57419C146.821 2.56406 146.853 2.11184 147.396 2.25367C147.467 2.27202 147.147 2.40977 147.206 2.43355C147.246 2.44659 148.384 2.44351 148.441 2.42983C148.496 2.41471 148.422 2.2747 148.477 2.25529C148.536 2.23379 149.257 2.31904 149.62 2.29984C150.311 2.26296 150.39 2.13859 150.442 2.1352C150.606 2.12522 150.887 2.19472 151.227 2.17573C151.934 2.13601 152.791 2.07123 153.665 2.02223C153.692 2.01909 153.772 2.01928 153.799 2.01681C155.021 1.97921 156.24 1.98036 157.034 2.1127C155.939 2.04198 154.89 2.1466 153.804 2.21761C153.779 2.21998 153.702 2.2198 153.676 2.22282C153.565 2.23286 153.455 2.2425 153.344 2.25151C153.676 1.98278 151.609 2.53865 152.816 2.1839C152.254 2.27438 147.365 2.60231 146.949 2.5741C146.949 2.57413 146.948 2.57416 146.948 2.57419ZM89.0858 2.48684C89.4097 2.35961 87.8043 2.26121 87.6593 2.42809C87.8641 2.46913 89.0429 2.50049 89.0858 2.48684ZM96.2023 2.68175C96.3378 2.66016 96.4668 2.36839 97.175 2.53933C97.1757 2.53934 97.1763 2.53936 97.177 2.53938C97.385 2.58888 97.1448 2.65616 97.1825 2.68312C97.1945 2.69451 97.8522 2.85778 97.3033 2.86991C96.4737 2.8852 97.2291 2.64543 96.7917 2.62976C96.7354 2.62934 95.9166 2.75939 95.9639 2.79584C95.9682 2.80034 96.2127 2.77677 96.2532 2.79307C96.403 2.85479 96.3255 2.94541 96.3468 2.95072C96.4116 2.96823 97.7362 2.84368 97.9377 2.98322C97.987 3.03571 95.8175 3.0783 95.7541 3.04077C95.7035 3.02342 95.7387 2.76489 95.6872 2.73657C95.6583 2.72429 94.8291 2.76921 94.7263 2.73471C94.6961 2.72542 94.6733 2.71611 94.6566 2.70861C94.7134 2.75233 94.5682 2.75985 94.4077 2.74428C94.2078 2.72522 93.9911 2.68203 94.0086 2.63674C94.0193 2.61608 94.2372 2.63405 94.4156 2.65358C94.5149 2.66487 94.5986 2.67643 94.6056 2.67949C94.6133 2.68277 94.6199 2.68696 94.6262 2.68999C94.5231 2.59201 96.2622 2.70091 95.8951 2.53152C96.411 2.47517 95.8114 2.74248 96.2023 2.68175ZM98.791 2.57889C98.7342 2.60573 98.6759 2.63253 98.618 2.65929C99.5887 2.60217 100.743 2.73473 101.906 2.73513C102.2 2.73543 101.861 2.56779 102.248 2.61396C102.56 2.65096 102.903 2.80663 102.734 2.84095C102.691 2.84948 102.061 2.74763 101.744 2.75765C100.812 2.78723 101.051 2.93083 100.996 2.93466C100.933 2.93867 100.353 2.83681 100.037 2.84017C99.2479 2.84831 98.8802 2.93663 97.8375 2.80578C98.4421 2.7203 98.1122 2.51086 98.791 2.57889ZM136.098 2.85734C136.13 2.76552 136.784 2.81248 137.018 2.78665C136.986 2.87909 136.331 2.83262 136.098 2.85734ZM38.11 0.628536C37.9026 0.771431 39.4318 0.845972 39.0316 0.712751C38.9444 0.683119 38.3018 0.634089 38.11 0.628536ZM44.9327 0.892487C45.1367 0.856315 44.3225 0.730533 44.3237 0.845126C44.3222 0.881922 44.907 0.897283 44.9327 0.892487ZM111.84 2.79631C111.877 2.792 112.44 2.82997 112.456 2.83765C112.826 2.9982 110.985 2.89103 111.84 2.79631ZM53.1651 0.842339C52.4576 0.933046 54.5749 0.993999 53.9277 0.864491C53.8924 0.858245 53.196 0.837992 53.1651 0.842339ZM56.1985 0.857018C56.0307 0.85829 55.2505 0.794946 55.2419 0.840353C55.2236 0.912527 56.1123 0.979767 56.1985 0.857018ZM125.873 2.86911C125.794 2.70166 126.783 2.83503 127.13 2.8162C127.21 2.98379 126.215 2.85056 125.873 2.86911ZM119.598 2.69524C123.794 2.59944 122.863 2.94835 119.347 2.77436C119.343 2.66725 119.333 2.70123 119.598 2.69524ZM124.964 2.75914C124.816 2.86496 124.333 2.82956 124.016 2.8185C124.072 2.74461 124.737 2.77667 124.964 2.75914ZM36.2856 0.358543C36.5543 0.22856 37.7298 0.421474 37.5186 0.472542C37.4699 0.48307 36.1835 0.4304 36.2856 0.358543ZM112.193 2.65659C112.099 2.49342 113.357 2.57081 113.453 2.60772C113.841 2.75618 112.296 2.62166 112.193 2.65659ZM131.615 2.68911C131.828 2.55583 132.442 2.60169 132.837 2.58893C132.661 2.70434 131.951 2.68186 131.615 2.68911ZM128.886 2.64555C128.898 2.64327 129.034 2.64538 129.171 2.64879L129.051 2.64945C129.201 2.65009 129.356 2.65196 129.369 2.65478C129.594 2.71262 129.323 2.74083 129.052 2.73977L129.171 2.73912C128.901 2.7325 128.622 2.6968 128.886 2.64555ZM6.29693 0.00112057C6.31696 -0.00297689 6.74695 0.00513363 6.76052 0.00991392C7.14375 0.131987 5.85425 0.107033 6.29693 0.00112057Z" fill="#FDD300" fill-opacity="0.6"/>
</svg>
