<svg width="30" height="30" viewBox="0 0 30 30" fill="none" xmlns="http://www.w3.org/2000/svg">
<path d="M3.00093 10.3126H26.9995V9.31718C26.9995 7.11319 25.8525 6 23.5682 6H6.4323C4.14845 6 3.00047 7.11319 3.00047 9.31764L3.00093 10.3126ZM3.00093 20.6933C3.00093 22.8978 4.14799 24 6.4323 24H23.5682C25.852 24 27 22.8978 27 20.6933V12.7421H3L3.00093 20.6933ZM6.65099 18.082V16.1022C6.65099 15.5032 7.07717 15.0749 7.72204 15.0749H10.3994C11.0443 15.0749 11.4705 15.5032 11.4705 16.1022V18.082C11.4705 18.6921 11.0443 19.1094 10.3994 19.1094H7.72157C7.0767 19.1094 6.65099 18.6921 6.65099 18.082Z" fill="#3BAF75"/>
</svg>
