<svg fill="none" height="31" viewBox="0 0 200 31" width="200" xmlns="http://www.w3.org/2000/svg"><g fill="#f1eee4"><path d="m13.4598 6.59998c-.78-.4-1.61-.74-2.49-1.02-.88-.3-1.72003-.45-2.52003-.45-1.08 0-1.94.24-2.58.72-.62.48-.93 1.14-.93 1.98 0 .6.22 1.13.66 1.59.44.44 1 .83002 1.68 1.17002.68.32 1.4.63 2.16.93.66003.24 1.31003.53 1.95003.87.66.32 1.25.72 1.77 1.2s.93 1.08 1.23 1.8c.32.7.48 1.57.48 2.61 0 1.14-.29 2.19-.87 3.15-.58.94-1.41 1.69-2.49 2.25s-2.40003.84-3.96003.84c-.9 0-1.79-.1-2.67-.3-.86-.2-1.68-.47-2.46-.81-.78-.36-1.500004-.76-2.160004-1.2l1.560004-2.73c.48.36 1.03.69 1.65.99s1.26.54 1.92.72c.66.16 1.28.24 1.86.24.62 0 1.23-.1 1.83-.3.62-.2 1.13003-.53 1.53003-.99.42-.46.63-1.07.63-1.83 0-.62-.18-1.15-.54-1.59s-.83003-.82-1.41003-1.14c-.56-.34-1.18-.64-1.86-.9s-1.38-.55-2.1-.87c-.7-.32-1.35-.71-1.95-1.17-.6-.48-1.09-1.06-1.47-1.74-.38-.68002-.57-1.52002-.57-2.52002 0-1.2.28-2.24.84-3.12s1.33-1.58 2.31-2.10001c1-.51999 2.15-.79999 3.45-.84 1.54 0 2.85003.19 3.93003.57 1.1.36 2.07.80001 2.91 1.32001z"/><path d="m27.752 11.31 3.33 7.71-.63.06 3.03-7.77h3.3l-5.79 13.44-4.08-8.58-3.72 8.58-5.85-13.44h3.3l3.57 8.16-1.17-.21 2.67-6.06-.87-1.89z"/><path d="m46.1424 24.33c-1.5 0-2.78-.29-3.84-.87s-1.87-1.38-2.43-2.4c-.56-1.04-.84-2.21-.84-3.51 0-1.28.32-2.43.96-3.45s1.5-1.83 2.58-2.43c1.1-.62 2.31-.93 3.63-.93 1.74 0 3.17.51 4.29 1.53 1.14 1 1.9 2.42 2.28 4.26l-10.23 3.45-.78-1.89 7.98-2.85-.69.39c-.22-.6-.58-1.12-1.08-1.56-.48-.44-1.16-.66-2.04-.66-.7 0-1.32.17-1.86.51-.54.32-.97.78-1.29 1.38-.3.58-.45 1.27-.45 2.07 0 .82.17 1.54.51 2.16s.8 1.1 1.38 1.44c.58.32 1.24.48 1.98.48.52 0 1.02-.09 1.5-.27s.93-.42 1.35-.72l1.53 2.49c-.66.42-1.39.76-2.19 1.02-.78.24-1.53.36-2.25.36z"/><path d="m63.0385 24.33c-1.5 0-2.78-.29-3.84-.87s-1.87-1.38-2.43-2.4c-.56-1.04-.84-2.21-.84-3.51 0-1.28.32-2.43.96-3.45s1.5-1.83 2.58-2.43c1.1-.62 2.31-.93 3.63-.93 1.74 0 3.17.51 4.29 1.53 1.14 1 1.9 2.42 2.28 4.26l-10.23 3.45-.78-1.89 7.98-2.85-.69.39c-.22-.6-.58-1.12-1.08-1.56-.48-.44-1.16-.66-2.04-.66-.7 0-1.32.17-1.86.51-.54.32-.97.78-1.29 1.38-.3.58-.45 1.27-.45 2.07 0 .82.17 1.54.51 2.16s.8 1.1 1.38 1.44c.58.32 1.24.48 1.98.48.52 0 1.02-.09 1.5-.27s.93-.42 1.35-.72l1.53 2.49c-.66.42-1.39.76-2.19 1.02-.78.24-1.53.36-2.25.36z"/><path d="m75.0746 5.72998h3.39v5.58002h3.3v2.64h-3.3v10.05h-3.39v-10.05h-2.16v-2.64h2.16z"/><path d="m97.1654 24v-21.84002h6.2096c2.18 0 4.03.32999 5.55.98999 1.52.64 2.75 1.51001 3.69 2.61001.94 1.08 1.62 2.29 2.04 3.63.44 1.32002.66 2.65002.66 3.99002 0 1.64-.29 3.11-.87 4.41s-1.37 2.42-2.37 3.36c-1 .92-2.16 1.63-3.48 2.13-1.3.48-2.69.72-4.17.72zm3.5096-3.36h3.12c1.16 0 2.22-.16 3.18-.48.96-.34 1.79-.82 2.49-1.44.72-.64 1.27-1.43 1.65-2.37.4-.94.6-2.01.6-3.21 0-1.36-.23-2.52-.69-3.48002-.44-.98-1.03-1.77-1.77-2.37-.72-.62-1.51-1.07-2.37-1.35001-.86-.27999-1.71-.41999-2.55-.41999h-3.66z"/><path d="m126.258 24.33c-1.5 0-2.78-.29-3.84-.87s-1.87-1.38-2.43-2.4c-.56-1.04-.84-2.21-.84-3.51 0-1.28.32-2.43.96-3.45s1.5-1.83 2.58-2.43c1.1-.62 2.31-.93 3.63-.93 1.74 0 3.17.51 4.29 1.53 1.14 1 1.9 2.42 2.28 4.26l-10.23 3.45-.78-1.89 7.98-2.85-.69.39c-.22-.6-.58-1.12-1.08-1.56-.48-.44-1.16-.66-2.04-.66-.7 0-1.32.17-1.86.51-.54.32-.97.78-1.29 1.38-.3.58-.45 1.27-.45 2.07 0 .82.17 1.54.51 2.16s.8 1.1 1.38 1.44c.58.32 1.24.48 1.98.48.52 0 1.02-.09 1.5-.27s.93-.42 1.35-.72l1.53 2.49c-.66.42-1.39.76-2.19 1.02-.78.24-1.53.36-2.25.36z"/><path d="m137.094.599976h3.36v23.400024h-3.36z"/><path d="m145.963 11.31h3.36v12.69h-3.36zm-.15-4.53002c0-.52.2-.95.6-1.29.42-.34.87-.51 1.35-.51s.91.17 1.29.51c.399.34.6.77.6 1.29s-.201.95-.6 1.29c-.38.32-.81.48-1.29.48s-.93-.17-1.35-.51c-.4-.34-.6-.76-.6-1.26z"/><path d="m161.161 30.33c-1.04 0-1.93-.12-2.67-.36s-1.4-.56-1.98-.96c-.56-.38-1.09-.78-1.59-1.2l1.98-2.31c.58.54 1.19.99 1.83 1.35.66.36 1.45.54 2.37.54.82 0 1.53-.14 2.13-.42.62-.28 1.1-.67 1.44-1.17s.52-1.1.54-1.8v-3.15l.21.63c-.34.78-.96 1.45-1.86 2.01s-2.02.84-3.36.84c-1.16 0-2.23-.29-3.21-.87-.98-.6-1.76-1.41-2.34-2.43s-.87-2.17-.87-3.45c0-1.32.3-2.49.9-3.51.62-1.04 1.43-1.85 2.43-2.43 1.02-.6 2.1-.9 3.24-.9 1.12 0 2.11.2 2.97.6.88.4 1.54.9 1.98 1.5l-.18.48.36-2.01h3.09v12.75c0 1.18-.32 2.24-.96 3.18-.62.96-1.49 1.71-2.61 2.25-1.1.56-2.38.84-3.84.84zm-3.99-12.84c0 .76.17 1.45.51 2.07.36.62.84 1.11 1.44 1.47.62.36 1.31.54 2.07.54.66 0 1.25-.11 1.77-.33.54-.22 1-.53 1.38-.93.4-.4.69-.87.87-1.41v-2.76c-.18-.54-.47-1-.87-1.38-.38-.4-.84-.71-1.38-.93-.52-.22-1.11-.33-1.77-.33-.76 0-1.45.17-2.07.51-.6.34-1.08.81-1.44 1.41-.34.6-.51 1.29-.51 2.07z"/><path d="m174.1 24v-23.400024h3.3v13.500024l-.06-.51c.44-.82 1.09-1.49 1.95-2.01.86-.54 1.89-.81 3.09-.81s2.19.35 2.97 1.05 1.18 1.62 1.2 2.76v9.42h-3.36v-8.22c-.02-.64-.2-1.15-.54-1.53-.34-.4-.88-.61-1.62-.63-.68 0-1.29.21-1.83.63s-.97.99-1.29 1.71c-.3.7-.45 1.5-.45 2.4v5.64z"/><path d="m193.28 5.72998h3.39v5.58002h3.3v2.64h-3.3v10.05h-3.39v-10.05h-2.16v-2.64h2.16z"/></g></svg>